<?xml version="1.0" encoding="UTF-8" standalone="no"?>
<!DOCTYPE svg PUBLIC "-//W3C//DTD SVG 1.1//EN"
 "http://www.w3.org/Graphics/SVG/1.1/DTD/svg11.dtd">
<!-- Generated by graphviz version 2.40.1 (20161225.0304)
 -->
<!-- Title: G Pages: 1 -->
<svg width="185pt" height="221pt"
 viewBox="0.00 0.00 184.58 221.37" xmlns="http://www.w3.org/2000/svg" xmlns:xlink="http://www.w3.org/1999/xlink">
<g id="graph0" class="graph" transform="scale(1 1) rotate(0) translate(4 217.3749)">
<title>G</title>
<polygon fill="transparent" stroke="transparent" points="-4,4 -4,-217.3749 180.5771,-217.3749 180.5771,4 -4,4"/>
<!-- f -->
<g id="node1" class="node">
<title>f</title>
<ellipse fill="none" stroke="#000000" cx="62.0946" cy="-78.5375" rx="16.0303" ry="16.0303"/>
<text text-anchor="middle" x="62.0946" y="-74.8375" font-family="Times,serif" font-size="14.00" fill="#000000">f</text>
</g>
<!-- a -->
<g id="node2" class="node">
<title>a</title>
<ellipse fill="none" stroke="#000000" cx="99.3668" cy="-16.2635" rx="16.0303" ry="16.0303"/>
<text text-anchor="middle" x="99.3668" y="-12.5635" font-family="Times,serif" font-size="14.00" fill="#000000">a</text>
</g>
<!-- a&#45;&gt;f -->
<g id="edge2" class="edge">
<title>a&#45;&gt;f</title>
<path fill="none" stroke="#000000" d="M90.9091,-30.3944C86.4296,-37.8788 80.8182,-47.2542 75.7404,-55.7381"/>
<polygon fill="#000000" stroke="#000000" points="72.6512,-54.0844 70.5188,-64.4625 78.6576,-57.6794 72.6512,-54.0844"/>
</g>
<!-- b -->
<g id="node3" class="node">
<title>b</title>
<ellipse fill="none" stroke="#000000" cx="160.3136" cy="-81.7323" rx="16.0303" ry="16.0303"/>
<text text-anchor="middle" x="160.3136" y="-78.0323" font-family="Times,serif" font-size="14.00" fill="#000000">b</text>
</g>
<!-- a&#45;&gt;b -->
<g id="edge1" class="edge">
<title>a&#45;&gt;b</title>
<path fill="none" stroke="#000000" d="M110.5454,-28.2714C119.3943,-37.777 131.9308,-51.2436 142.2074,-62.2826"/>
<polygon fill="#000000" stroke="#000000" points="139.8303,-64.8659 149.2059,-69.8004 144.9539,-60.0962 139.8303,-64.8659"/>
</g>
<!-- g -->
<g id="node4" class="node">
<title>g</title>
<ellipse fill="none" stroke="#000000" cx="16.2635" cy="-37.1367" rx="16.0303" ry="16.0303"/>
<text text-anchor="middle" x="16.2635" y="-33.4367" font-family="Times,serif" font-size="14.00" fill="#000000">g</text>
</g>
<!-- a&#45;&gt;g -->
<g id="edge3" class="edge">
<title>a&#45;&gt;g</title>
<path fill="none" stroke="#000000" d="M83.3436,-20.288C71.617,-23.2334 55.4615,-27.2912 41.9435,-30.6866"/>
<polygon fill="#000000" stroke="#000000" points="41.0835,-27.2938 32.2374,-33.1245 42.7888,-34.0829 41.0835,-27.2938"/>
</g>
<!-- c -->
<g id="node5" class="node">
<title>c</title>
<ellipse fill="none" stroke="#000000" cx="156.7623" cy="-170.4494" rx="16.0303" ry="16.0303"/>
<text text-anchor="middle" x="156.7623" y="-166.7494" font-family="Times,serif" font-size="14.00" fill="#000000">c</text>
</g>
<!-- b&#45;&gt;c -->
<g id="edge4" class="edge">
<title>b&#45;&gt;c</title>
<path fill="none" stroke="#000000" d="M159.6623,-98.0044C159.1499,-110.8048 158.4253,-128.9061 157.8286,-143.8122"/>
<polygon fill="#000000" stroke="#000000" points="154.3244,-143.848 157.4216,-153.98 161.3188,-144.1281 154.3244,-143.848"/>
</g>
<!-- d -->
<g id="node6" class="node">
<title>d</title>
<ellipse fill="none" stroke="#000000" cx="111.8247" cy="-130.3767" rx="16.0303" ry="16.0303"/>
<text text-anchor="middle" x="111.8247" y="-126.6767" font-family="Times,serif" font-size="14.00" fill="#000000">d</text>
</g>
<!-- b&#45;&gt;d -->
<g id="edge5" class="edge">
<title>b&#45;&gt;d</title>
<path fill="none" stroke="#000000" d="M148.5758,-93.5077C143.2154,-98.8853 136.7318,-105.3897 130.712,-111.4288"/>
<polygon fill="#000000" stroke="#000000" points="128.0353,-109.1564 123.4544,-118.7097 132.993,-114.0982 128.0353,-109.1564"/>
</g>
<!-- h -->
<g id="node8" class="node">
<title>h</title>
<ellipse fill="none" stroke="#000000" cx="27.9871" cy="-125.1515" rx="16.9412" ry="16.9412"/>
<text text-anchor="middle" x="27.9871" y="-121.4515" font-family="Times,serif" font-size="14.00" fill="#000000">h</text>
</g>
<!-- g&#45;&gt;h -->
<g id="edge9" class="edge">
<title>g&#45;&gt;h</title>
<path fill="none" stroke="#000000" d="M18.4138,-53.28C20.084,-65.8194 22.4372,-83.4861 24.3926,-98.1656"/>
<polygon fill="#000000" stroke="#000000" points="20.9408,-98.7604 25.7306,-108.2107 27.8795,-97.8361 20.9408,-98.7604"/>
</g>
<!-- c&#45;&gt;d -->
<g id="edge6" class="edge">
<title>c&#45;&gt;d</title>
<path fill="none" stroke="#000000" d="M144.4829,-159.4994C140.5199,-155.9654 136.0204,-151.953 131.6555,-148.0607"/>
<polygon fill="#000000" stroke="#000000" points="133.8822,-145.3568 124.0892,-141.3135 129.2233,-150.5813 133.8822,-145.3568"/>
</g>
<!-- e -->
<g id="node7" class="node">
<title>e</title>
<ellipse fill="none" stroke="#000000" cx="70.6286" cy="-197.1115" rx="16.0303" ry="16.0303"/>
<text text-anchor="middle" x="70.6286" y="-193.4115" font-family="Times,serif" font-size="14.00" fill="#000000">e</text>
</g>
<!-- c&#45;&gt;e -->
<g id="edge7" class="edge">
<title>c&#45;&gt;e</title>
<path fill="none" stroke="#000000" d="M140.964,-175.3396C128.4582,-179.2108 110.7409,-184.695 96.2174,-189.1906"/>
<polygon fill="#000000" stroke="#000000" points="94.8445,-185.9517 86.3267,-192.2522 96.9145,-192.6387 94.8445,-185.9517"/>
</g>
<!-- d&#45;&gt;h -->
<g id="edge8" class="edge">
<title>d&#45;&gt;h</title>
<path fill="none" stroke="#000000" d="M95.2611,-129.3444C83.8141,-128.6309 68.3266,-127.6657 55.0972,-126.8411"/>
<polygon fill="#000000" stroke="#000000" points="55.2903,-123.3465 45.0919,-126.2175 54.8548,-130.3329 55.2903,-123.3465"/>
</g>
<!-- h&#45;&gt;f -->
<g id="edge11" class="edge">
<title>h&#45;&gt;f</title>
<path fill="none" stroke="#000000" d="M38.036,-111.4179C40.6716,-107.8159 43.5773,-103.8447 46.4308,-99.9449"/>
<polygon fill="#000000" stroke="#000000" points="49.3884,-101.8299 52.4689,-91.6927 43.7392,-97.6963 49.3884,-101.8299"/>
</g>
<!-- h&#45;&gt;e -->
<g id="edge10" class="edge">
<title>h&#45;&gt;e</title>
<path fill="none" stroke="#000000" d="M36.8224,-140.0616C42.6161,-149.8388 50.309,-162.8209 56.8924,-173.9309"/>
<polygon fill="#000000" stroke="#000000" points="53.9865,-175.8927 62.0955,-182.7115 60.0086,-172.3242 53.9865,-175.8927"/>
</g>
</g>
</svg>
