<?xml version="1.0" encoding="UTF-8" standalone="no"?>
<!DOCTYPE svg PUBLIC "-//W3C//DTD SVG 1.1//EN"
 "http://www.w3.org/Graphics/SVG/1.1/DTD/svg11.dtd">
<!-- Generated by graphviz version 2.44.0 (0)
 -->
<!-- Title: G Pages: 1 -->
<svg width="185pt" height="221pt"
 viewBox="0.00 0.00 184.58 221.37" xmlns="http://www.w3.org/2000/svg" xmlns:xlink="http://www.w3.org/1999/xlink">
<g id="graph0" class="graph" transform="scale(1 1) rotate(0) translate(4 217.37)">
<title>G</title>
<polygon fill="transparent" stroke="transparent" points="-4,4 -4,-217.37 180.58,-217.37 180.58,4 -4,4"/>
<!-- f -->
<g id="node1" class="node">
<title>f</title>
<ellipse fill="none" stroke="black" cx="62.09" cy="-78.54" rx="16.03" ry="16.03"/>
<text text-anchor="middle" x="62.09" y="-74.84" font-family="Times,serif" font-size="14.00">f</text>
</g>
<!-- a -->
<g id="node2" class="node">
<title>a</title>
<ellipse fill="none" stroke="black" cx="99.37" cy="-16.26" rx="16.03" ry="16.03"/>
<text text-anchor="middle" x="99.37" y="-12.56" font-family="Times,serif" font-size="14.00">a</text>
</g>
<!-- a&#45;&gt;f -->
<g id="edge2" class="edge">
<title>a&#45;&gt;f</title>
<path fill="none" stroke="black" d="M90.91,-30.39C86.43,-37.88 80.82,-47.25 75.74,-55.74"/>
<polygon fill="black" stroke="black" points="72.65,-54.08 70.52,-64.46 78.66,-57.68 72.65,-54.08"/>
</g>
<!-- b -->
<g id="node3" class="node">
<title>b</title>
<ellipse fill="none" stroke="black" cx="160.31" cy="-81.73" rx="16.03" ry="16.03"/>
<text text-anchor="middle" x="160.31" y="-78.03" font-family="Times,serif" font-size="14.00">b</text>
</g>
<!-- a&#45;&gt;b -->
<g id="edge1" class="edge">
<title>a&#45;&gt;b</title>
<path fill="none" stroke="black" d="M110.55,-28.27C119.39,-37.78 131.93,-51.24 142.21,-62.28"/>
<polygon fill="black" stroke="black" points="139.83,-64.87 149.21,-69.8 144.95,-60.1 139.83,-64.87"/>
</g>
<!-- g -->
<g id="node4" class="node">
<title>g</title>
<ellipse fill="none" stroke="black" cx="16.26" cy="-37.14" rx="16.03" ry="16.03"/>
<text text-anchor="middle" x="16.26" y="-33.44" font-family="Times,serif" font-size="14.00">g</text>
</g>
<!-- a&#45;&gt;g -->
<g id="edge3" class="edge">
<title>a&#45;&gt;g</title>
<path fill="none" stroke="black" d="M83.34,-20.29C71.62,-23.23 55.46,-27.29 41.94,-30.69"/>
<polygon fill="black" stroke="black" points="41.08,-27.29 32.24,-33.12 42.79,-34.08 41.08,-27.29"/>
</g>
<!-- c -->
<g id="node5" class="node">
<title>c</title>
<ellipse fill="none" stroke="black" cx="156.76" cy="-170.45" rx="16.03" ry="16.03"/>
<text text-anchor="middle" x="156.76" y="-166.75" font-family="Times,serif" font-size="14.00">c</text>
</g>
<!-- b&#45;&gt;c -->
<g id="edge4" class="edge">
<title>b&#45;&gt;c</title>
<path fill="none" stroke="black" d="M159.66,-98C159.15,-110.8 158.43,-128.91 157.83,-143.81"/>
<polygon fill="black" stroke="black" points="154.32,-143.85 157.42,-153.98 161.32,-144.13 154.32,-143.85"/>
</g>
<!-- d -->
<g id="node6" class="node">
<title>d</title>
<ellipse fill="none" stroke="black" cx="111.82" cy="-130.38" rx="16.03" ry="16.03"/>
<text text-anchor="middle" x="111.82" y="-126.68" font-family="Times,serif" font-size="14.00">d</text>
</g>
<!-- b&#45;&gt;d -->
<g id="edge5" class="edge">
<title>b&#45;&gt;d</title>
<path fill="none" stroke="black" d="M148.58,-93.51C143.22,-98.89 136.73,-105.39 130.71,-111.43"/>
<polygon fill="black" stroke="black" points="128.04,-109.16 123.45,-118.71 132.99,-114.1 128.04,-109.16"/>
</g>
<!-- h -->
<g id="node8" class="node">
<title>h</title>
<ellipse fill="none" stroke="black" cx="27.99" cy="-125.15" rx="16.94" ry="16.94"/>
<text text-anchor="middle" x="27.99" y="-121.45" font-family="Times,serif" font-size="14.00">h</text>
</g>
<!-- g&#45;&gt;h -->
<g id="edge9" class="edge">
<title>g&#45;&gt;h</title>
<path fill="none" stroke="black" d="M18.41,-53.28C20.08,-65.82 22.44,-83.49 24.39,-98.17"/>
<polygon fill="black" stroke="black" points="20.94,-98.76 25.73,-108.21 27.88,-97.84 20.94,-98.76"/>
</g>
<!-- c&#45;&gt;d -->
<g id="edge6" class="edge">
<title>c&#45;&gt;d</title>
<path fill="none" stroke="black" d="M144.48,-159.5C140.52,-155.97 136.02,-151.95 131.66,-148.06"/>
<polygon fill="black" stroke="black" points="133.88,-145.36 124.09,-141.31 129.22,-150.58 133.88,-145.36"/>
</g>
<!-- e -->
<g id="node7" class="node">
<title>e</title>
<ellipse fill="none" stroke="black" cx="70.63" cy="-197.11" rx="16.03" ry="16.03"/>
<text text-anchor="middle" x="70.63" y="-193.41" font-family="Times,serif" font-size="14.00">e</text>
</g>
<!-- c&#45;&gt;e -->
<g id="edge7" class="edge">
<title>c&#45;&gt;e</title>
<path fill="none" stroke="black" d="M140.96,-175.34C128.46,-179.21 110.74,-184.69 96.22,-189.19"/>
<polygon fill="black" stroke="black" points="94.84,-185.95 86.33,-192.25 96.91,-192.64 94.84,-185.95"/>
</g>
<!-- d&#45;&gt;h -->
<g id="edge8" class="edge">
<title>d&#45;&gt;h</title>
<path fill="none" stroke="black" d="M95.26,-129.34C83.81,-128.63 68.33,-127.67 55.1,-126.84"/>
<polygon fill="black" stroke="black" points="55.29,-123.35 45.09,-126.22 54.85,-130.33 55.29,-123.35"/>
</g>
<!-- h&#45;&gt;f -->
<g id="edge11" class="edge">
<title>h&#45;&gt;f</title>
<path fill="none" stroke="black" d="M38.04,-111.42C40.67,-107.82 43.58,-103.84 46.43,-99.94"/>
<polygon fill="black" stroke="black" points="49.39,-101.83 52.47,-91.69 43.74,-97.7 49.39,-101.83"/>
</g>
<!-- h&#45;&gt;e -->
<g id="edge10" class="edge">
<title>h&#45;&gt;e</title>
<path fill="none" stroke="black" d="M36.82,-140.06C42.62,-149.84 50.31,-162.82 56.89,-173.93"/>
<polygon fill="black" stroke="black" points="53.99,-175.89 62.1,-182.71 60.01,-172.32 53.99,-175.89"/>
</g>
</g>
</svg>
