<?xml version="1.0" encoding="UTF-8" standalone="no"?>
<!DOCTYPE svg PUBLIC "-//W3C//DTD SVG 1.1//EN"
 "http://www.w3.org/Graphics/SVG/1.1/DTD/svg11.dtd">
<!-- Generated by graphviz version 2.44.0 (0)
 -->
<!-- Pages: 1 -->
<svg width="372pt" height="196pt"
 viewBox="0.00 0.00 372.00 195.65" xmlns="http://www.w3.org/2000/svg" xmlns:xlink="http://www.w3.org/1999/xlink">
<g id="graph0" class="graph" transform="scale(1 1) rotate(0) translate(4 191.65)">
<polygon fill="white" stroke="transparent" points="-4,4 -4,-191.65 368,-191.65 368,4 -4,4"/>
<!-- LH -->
<g id="node1" class="node">
<title>LH</title>
<ellipse fill="none" stroke="black" cx="38" cy="-162" rx="24.9" ry="24.9"/>
<text text-anchor="middle" x="38" y="-158.3" font-family="Times,serif" font-size="14.00">LH</text>
</g>
<!-- RH -->
<g id="node2" class="node">
<title>RH</title>
<ellipse fill="none" stroke="black" cx="182" cy="-162" rx="25.2" ry="25.2"/>
<text text-anchor="middle" x="182" y="-158.3" font-family="Times,serif" font-size="14.00">RH</text>
</g>
<!-- LH&#45;&gt;RH -->
<g id="edge4" class="edge">
<title>LH&#45;&gt;RH</title>
<path fill="none" stroke="black" d="M62.43,-167.22C85.56,-169 120.55,-169.23 146.71,-167.9"/>
<polygon fill="black" stroke="black" points="147.2,-171.38 156.97,-167.26 146.77,-164.39 147.2,-171.38"/>
<text text-anchor="middle" x="103.5" y="-176.45" font-family="Times,serif" font-size="14.00">&quot;draws&quot;</text>
</g>
<!-- RH&#45;&gt;LH -->
<g id="edge5" class="edge">
<title>RH&#45;&gt;LH</title>
<path fill="none" stroke="black" d="M156.92,-156.73C133.55,-154.98 98.49,-154.78 72.49,-156.14"/>
<polygon fill="black" stroke="black" points="72.07,-152.66 62.32,-156.79 72.52,-159.65 72.07,-152.66"/>
<text text-anchor="middle" x="115.76" y="-140.1" font-family="Times,serif" font-size="14.00">&quot;draws&quot;</text>
</g>
<!-- Escher -->
<g id="node3" class="node">
<title>Escher</title>
<polygon fill="none" stroke="black" points="164.5,-36 55.5,-36 55.5,0 164.5,0 164.5,-36"/>
<text text-anchor="middle" x="110" y="-14.3" font-family="Times,serif" font-size="14.00">M. C. Escher</text>
</g>
<!-- Escher&#45;&gt;LH -->
<g id="edge2" class="edge">
<title>Escher&#45;&gt;LH</title>
<path fill="none" stroke="black" d="M100.88,-36.24C89.05,-59.9 68.22,-101.56 53.79,-130.41"/>
<polygon fill="black" stroke="black" points="50.51,-129.15 49.17,-139.66 56.77,-132.28 50.51,-129.15"/>
<text text-anchor="middle" x="51.22" y="-60.99" font-family="Times,serif" font-size="14.00">draws</text>
</g>
<!-- Escher&#45;&gt;RH -->
<g id="edge3" class="edge">
<title>Escher&#45;&gt;RH</title>
<path fill="none" stroke="black" d="M119.12,-36.24C130.88,-59.76 151.54,-101.08 165.96,-129.91"/>
<polygon fill="black" stroke="black" points="162.98,-131.79 170.59,-139.17 169.24,-128.66 162.98,-131.79"/>
<text text-anchor="middle" x="168.54" y="-60.5" font-family="Times,serif" font-size="14.00">draws</text>
</g>
<!-- lsep -->
<!-- rsep -->
<!-- lsep&#45;&gt;rsep -->
<g id="edge1" class="edge">
<title>lsep&#45;&gt;rsep</title>
<path fill="none" stroke="black" d="M3.94,-97.2C30.94,-97.2 331.75,-97.2 359.89,-97.2"/>
</g>
<!-- strlp -->
<g id="node6" class="node">
<title>strlp</title>
<text text-anchor="middle" x="290" y="-144.2" font-family="Times,serif" font-size="14.00">Strange Loop</text>
<text text-anchor="middle" x="290" y="-129.2" font-family="Times,serif" font-size="14.00">(visible)</text>
</g>
<!-- inviol -->
<g id="node7" class="node">
<title>inviol</title>
<text text-anchor="middle" x="290" y="-43.4" font-family="Times,serif" font-size="14.00">Inviolate level</text>
<text text-anchor="middle" x="290" y="-28.4" font-family="Times,serif" font-size="14.00">(invisible)</text>
</g>
</g>
</svg>
