<?xml version="1.0" encoding="UTF-8" standalone="no"?>
<!DOCTYPE svg PUBLIC "-//W3C//DTD SVG 1.1//EN"
 "http://www.w3.org/Graphics/SVG/1.1/DTD/svg11.dtd">
<!-- Generated by graphviz version 2.40.1 (20161225.0304)
 -->
<!-- Title: %3 Pages: 1 -->
<svg width="372pt" height="196pt"
 viewBox="0.00 0.00 372.00 195.80" xmlns="http://www.w3.org/2000/svg" xmlns:xlink="http://www.w3.org/1999/xlink">
<g id="graph0" class="graph" transform="scale(1 1) rotate(0) translate(4 191.7995)">
<title>%3</title>
<polygon fill="#ffffff" stroke="transparent" points="-4,4 -4,-191.7995 368,-191.7995 368,4 -4,4"/>
<!-- LH -->
<g id="node1" class="node">
<title>LH</title>
<ellipse fill="none" stroke="#000000" cx="38" cy="-162" rx="22.9987" ry="22.9987"/>
<text text-anchor="middle" x="38" y="-158.3" font-family="Times,serif" font-size="14.00" fill="#000000">LH</text>
</g>
<!-- RH -->
<g id="node2" class="node">
<title>RH</title>
<ellipse fill="none" stroke="#000000" cx="182" cy="-162" rx="22.9987" ry="22.9987"/>
<text text-anchor="middle" x="182" y="-158.3" font-family="Times,serif" font-size="14.00" fill="#000000">RH</text>
</g>
<!-- LH&#45;&gt;RH -->
<g id="edge4" class="edge">
<title>LH&#45;&gt;RH</title>
<path fill="none" stroke="#000000" d="M60.1844,-167.036C84.0039,-169.047 122.0907,-169.2884 149.3354,-167.7602"/>
<polygon fill="#000000" stroke="#000000" points="149.8166,-171.2355 159.5531,-167.0581 149.3367,-164.2519 149.8166,-171.2355"/>
<text text-anchor="middle" x="106.1709" y="-176.5995" font-family="Times,serif" font-size="14.00" fill="#000000">&quot;desenha&quot;</text>
</g>
<!-- RH&#45;&gt;LH -->
<g id="edge5" class="edge">
<title>RH&#45;&gt;LH</title>
<path fill="none" stroke="#000000" d="M159.8156,-156.964C135.9961,-154.953 97.9093,-154.7116 70.6646,-156.2398"/>
<polygon fill="#000000" stroke="#000000" points="70.1834,-152.7645 60.4469,-156.9419 70.6633,-159.7481 70.1834,-152.7645"/>
<text text-anchor="middle" x="113.8291" y="-140.0005" font-family="Times,serif" font-size="14.00" fill="#000000">&quot;desenha&quot;</text>
</g>
<!-- Escher -->
<g id="node3" class="node">
<title>Escher</title>
<polygon fill="none" stroke="#000000" points="154,-36 66,-36 66,0 154,0 154,-36"/>
<text text-anchor="middle" x="110" y="-14.3" font-family="Times,serif" font-size="14.00" fill="#000000">M. C. Escher</text>
</g>
<!-- Escher&#45;&gt;LH -->
<g id="edge2" class="edge">
<title>Escher&#45;&gt;LH</title>
<path fill="none" stroke="#000000" d="M100.8812,-36.2377C88.7782,-60.4436 67.2576,-103.4848 52.8087,-132.3825"/>
<polygon fill="#000000" stroke="#000000" points="49.5453,-131.0832 48.2036,-141.5928 55.8063,-134.2138 49.5453,-131.0832"/>
<text text-anchor="middle" x="50.252" y="-62.9208" font-family="Times,serif" font-size="14.00" fill="#000000">desenha</text>
</g>
<!-- Escher&#45;&gt;RH -->
<g id="edge3" class="edge">
<title>Escher&#45;&gt;RH</title>
<path fill="none" stroke="#000000" d="M119.1188,-36.2377C131.2218,-60.4436 152.7424,-103.4848 167.1913,-132.3825"/>
<polygon fill="#000000" stroke="#000000" points="164.1937,-134.2138 171.7964,-141.5928 170.4547,-131.0832 164.1937,-134.2138"/>
<text text-anchor="middle" x="169.748" y="-62.9208" font-family="Times,serif" font-size="14.00" fill="#000000">desenha</text>
</g>
<!-- lsep -->
<!-- rsep -->
<!-- lsep&#45;&gt;rsep -->
<g id="edge1" class="edge">
<title>lsep&#45;&gt;rsep</title>
<path fill="none" stroke="#000000" d="M3.9369,-97.2C30.9446,-97.2 331.7503,-97.2 359.8915,-97.2"/>
</g>
<!-- strlp -->
<g id="node6" class="node">
<title>strlp</title>
<text text-anchor="middle" x="290" y="-144.2" font-family="Times,serif" font-size="14.00" fill="#000000">Strange Loop ou</text>
<text text-anchor="middle" x="290" y="-129.2" font-family="Times,serif" font-size="14.00" fill="#000000">Hierarquia Entrelaçada</text>
</g>
<!-- inviol -->
<g id="node7" class="node">
<title>inviol</title>
<text text-anchor="middle" x="290" y="-43.4" font-family="Times,serif" font-size="14.00" fill="#000000">Nível inviolável</text>
<text text-anchor="middle" x="290" y="-28.4" font-family="Times,serif" font-size="14.00" fill="#000000">(invisível)</text>
</g>
</g>
</svg>
