<?xml version="1.0" encoding="UTF-8" standalone="no"?>
<!DOCTYPE svg PUBLIC "-//W3C//DTD SVG 1.1//EN"
 "http://www.w3.org/Graphics/SVG/1.1/DTD/svg11.dtd">
<!-- Generated by graphviz version 2.44.0 (0)
 -->
<!-- Title: G Pages: 1 -->
<svg width="377pt" height="213pt"
 viewBox="0.00 0.00 376.62 213.12" xmlns="http://www.w3.org/2000/svg" xmlns:xlink="http://www.w3.org/1999/xlink">
<g id="graph0" class="graph" transform="scale(1 1) rotate(0) translate(16.56 196.56)">
<title>G</title>
<polygon fill="transparent" stroke="transparent" points="-16.56,16.56 -16.56,-196.56 360.06,-196.56 360.06,16.56 -16.56,16.56"/>
<!-- expr -->
<g id="node1" class="node">
<title>expr</title>
<polygon fill="#aaaaaa" stroke="#666666" points="85,-180 0,-180 0,-144 91,-144 91,-174 85,-180"/>
<polyline fill="none" stroke="#666666" points="85,-180 85,-174 "/>
<polyline fill="none" stroke="#666666" points="91,-174 85,-174 "/>
<text text-anchor="middle" x="45.5" y="-158.3" font-family="Times,serif" font-size="14.00">Expressão</text>
</g>
<!-- eval -->
<g id="node3" class="node">
<title>eval</title>
<ellipse fill="#aaaaaa" stroke="#666666" cx="118.5" cy="-90" rx="27" ry="18"/>
<text text-anchor="middle" x="118.5" y="-87.5" font-family="mono" font-size="10.00">eval</text>
</g>
<!-- expr&#45;&gt;eval -->
<g id="edge1" class="edge">
<title>expr:e&#45;&gt;eval:w</title>
<path fill="none" stroke="#555555" stroke-width="2" d="M92.5,-162C119.26,-162 77.51,-111.69 81.79,-95.18"/>
<polygon fill="#555555" stroke="#555555" stroke-width="2" points="83.69,-98.12 90.5,-90 80.12,-92.1 83.69,-98.12"/>
</g>
<!-- result -->
<g id="node2" class="node">
<title>result</title>
<polygon fill="#aaaaaa" stroke="#666666" points="343.5,-36 259.5,-36 255.5,-32 255.5,0 339.5,0 343.5,-4 343.5,-36"/>
<polyline fill="none" stroke="#666666" points="339.5,-32 255.5,-32 "/>
<polyline fill="none" stroke="#666666" points="339.5,-32 339.5,0 "/>
<polyline fill="none" stroke="#666666" points="339.5,-32 343.5,-36 "/>
<text text-anchor="middle" x="299.5" y="-14.3" font-family="Times,serif" font-size="14.00">Resultado</text>
</g>
<!-- apply -->
<g id="node4" class="node">
<title>apply</title>
<ellipse fill="#aaaaaa" stroke="#666666" cx="227.5" cy="-90" rx="27.84" ry="18"/>
<text text-anchor="middle" x="227.5" y="-87.5" font-family="mono" font-size="10.00">apply</text>
</g>
<!-- eval&#45;&gt;apply -->
<g id="edge2" class="edge">
<title>eval:n&#45;&gt;apply:n</title>
<path fill="none" stroke="#555555" stroke-width="2" d="M118.5,-109C118.5,-129.91 199.73,-132.77 221.94,-117.58"/>
<polygon fill="#555555" stroke="#555555" stroke-width="2" points="225,-119.3 227.5,-109 219.13,-115.49 225,-119.3"/>
</g>
<!-- apply&#45;&gt;result -->
<g id="edge4" class="edge">
<title>apply:e&#45;&gt;result:w</title>
<path fill="none" stroke="#555555" stroke-width="2" d="M256.5,-90C283.26,-90 241.51,-39.69 245.79,-23.18"/>
<polygon fill="#555555" stroke="#555555" stroke-width="2" points="247.69,-26.12 254.5,-18 244.12,-20.1 247.69,-26.12"/>
</g>
<!-- apply&#45;&gt;eval -->
<g id="edge3" class="edge">
<title>apply:s&#45;&gt;eval:s</title>
<path fill="none" stroke="#555555" stroke-width="2" d="M227.5,-71C227.5,-50.09 146.27,-47.23 124.06,-62.42"/>
<polygon fill="#555555" stroke="#555555" stroke-width="2" points="121,-60.7 118.5,-71 126.87,-64.51 121,-60.7"/>
</g>
</g>
</svg>
