<?xml version="1.0" encoding="UTF-8" standalone="no"?>
<!DOCTYPE svg PUBLIC "-//W3C//DTD SVG 1.1//EN"
 "http://www.w3.org/Graphics/SVG/1.1/DTD/svg11.dtd">
<!-- Generated by graphviz version 12.2.1 (20241206.2353)
 -->
<!-- Title: G Pages: 1 -->
<svg width="186pt" height="222pt"
 viewBox="0.00 0.00 185.64 222.44" xmlns="http://www.w3.org/2000/svg" xmlns:xlink="http://www.w3.org/1999/xlink">
<g id="graph0" class="graph" transform="scale(1 1) rotate(0) translate(4 218.44)">
<title>G</title>
<polygon fill="none" stroke="none" points="-4,4 -4,-218.44 181.64,-218.44 181.64,4 -4,4"/>
<!-- f -->
<g id="node1" class="node">
<title>f</title>
<ellipse fill="none" stroke="black" cx="62.62" cy="-79.07" rx="16.79" ry="16.79"/>
<text text-anchor="middle" x="62.62" y="-73.64" font-family="Times,serif" font-size="14.00">f</text>
</g>
<!-- a -->
<g id="node2" class="node">
<title>a</title>
<ellipse fill="none" stroke="black" cx="99.9" cy="-16.79" rx="16.79" ry="16.79"/>
<text text-anchor="middle" x="99.9" y="-11.37" font-family="Times,serif" font-size="14.00">a</text>
</g>
<!-- a&#45;&gt;f -->
<g id="edge2" class="edge">
<title>a&#45;&gt;f</title>
<path fill="none" stroke="black" d="M91.06,-31.55C86.93,-38.45 81.9,-46.86 77.23,-54.67"/>
<polygon fill="black" stroke="black" points="74.3,-52.74 72.17,-63.12 80.31,-56.33 74.3,-52.74"/>
</g>
<!-- b -->
<g id="node3" class="node">
<title>b</title>
<ellipse fill="none" stroke="black" cx="160.84" cy="-82.26" rx="16.79" ry="16.79"/>
<text text-anchor="middle" x="160.84" y="-76.84" font-family="Times,serif" font-size="14.00">b</text>
</g>
<!-- a&#45;&gt;b -->
<g id="edge1" class="edge">
<title>a&#45;&gt;b</title>
<path fill="none" stroke="black" d="M111.65,-29.42C120.08,-38.47 131.63,-50.88 141.43,-61.4"/>
<polygon fill="black" stroke="black" points="138.72,-63.64 148.1,-68.57 143.85,-58.87 138.72,-63.64"/>
</g>
<!-- g -->
<g id="node4" class="node">
<title>g</title>
<ellipse fill="none" stroke="black" cx="16.79" cy="-37.67" rx="16.79" ry="16.79"/>
<text text-anchor="middle" x="16.79" y="-32.24" font-family="Times,serif" font-size="14.00">g</text>
</g>
<!-- a&#45;&gt;g -->
<g id="edge3" class="edge">
<title>a&#45;&gt;g</title>
<path fill="none" stroke="black" d="M83.48,-20.92C72.4,-23.7 57.49,-27.44 44.59,-30.69"/>
<polygon fill="black" stroke="black" points="43.78,-27.28 34.93,-33.11 45.48,-34.07 43.78,-27.28"/>
</g>
<!-- c -->
<g id="node5" class="node">
<title>c</title>
<ellipse fill="none" stroke="black" cx="157.29" cy="-170.98" rx="16.79" ry="16.79"/>
<text text-anchor="middle" x="157.29" y="-165.55" font-family="Times,serif" font-size="14.00">c</text>
</g>
<!-- b&#45;&gt;c -->
<g id="edge4" class="edge">
<title>b&#45;&gt;c</title>
<path fill="none" stroke="black" d="M160.16,-99.37C159.67,-111.64 158.99,-128.46 158.42,-142.71"/>
<polygon fill="black" stroke="black" points="154.94,-142.28 158.04,-152.41 161.93,-142.56 154.94,-142.28"/>
</g>
<!-- d -->
<g id="node6" class="node">
<title>d</title>
<ellipse fill="none" stroke="black" cx="112.35" cy="-130.91" rx="16.79" ry="16.79"/>
<text text-anchor="middle" x="112.35" y="-125.48" font-family="Times,serif" font-size="14.00">d</text>
</g>
<!-- b&#45;&gt;d -->
<g id="edge5" class="edge">
<title>b&#45;&gt;d</title>
<path fill="none" stroke="black" d="M149.11,-94.04C144.06,-99.1 138.02,-105.16 132.3,-110.89"/>
<polygon fill="black" stroke="black" points="129.97,-108.28 125.39,-117.83 134.93,-113.22 129.97,-108.28"/>
</g>
<!-- h -->
<g id="node8" class="node">
<title>h</title>
<ellipse fill="none" stroke="black" cx="28.52" cy="-125.68" rx="16.79" ry="16.79"/>
<text text-anchor="middle" x="28.52" y="-120.26" font-family="Times,serif" font-size="14.00">h</text>
</g>
<!-- g&#45;&gt;h -->
<g id="edge9" class="edge">
<title>g&#45;&gt;h</title>
<path fill="none" stroke="black" d="M19.05,-54.64C20.68,-66.81 22.9,-83.5 24.78,-97.64"/>
<polygon fill="black" stroke="black" points="21.27,-97.81 26.06,-107.26 28.21,-96.89 21.27,-97.81"/>
</g>
<!-- c&#45;&gt;d -->
<g id="edge6" class="edge">
<title>c&#45;&gt;d</title>
<path fill="none" stroke="black" d="M144.54,-159.6C141.09,-156.53 137.27,-153.12 133.5,-149.76"/>
<polygon fill="black" stroke="black" points="135.91,-147.22 126.12,-143.18 131.25,-152.45 135.91,-147.22"/>
</g>
<!-- e -->
<g id="node7" class="node">
<title>e</title>
<ellipse fill="none" stroke="black" cx="71.16" cy="-197.64" rx="16.79" ry="16.79"/>
<text text-anchor="middle" x="71.16" y="-192.22" font-family="Times,serif" font-size="14.00">e</text>
</g>
<!-- c&#45;&gt;e -->
<g id="edge7" class="edge">
<title>c&#45;&gt;e</title>
<path fill="none" stroke="black" d="M141.09,-175.99C129.02,-179.73 112.25,-184.92 98.16,-189.28"/>
<polygon fill="black" stroke="black" points="97.54,-185.81 89.03,-192.11 99.61,-192.5 97.54,-185.81"/>
</g>
<!-- d&#45;&gt;h -->
<g id="edge8" class="edge">
<title>d&#45;&gt;h</title>
<path fill="none" stroke="black" d="M95.39,-129.85C84.44,-129.17 69.92,-128.26 57.2,-127.47"/>
<polygon fill="black" stroke="black" points="57.45,-123.98 47.26,-126.85 57.02,-130.97 57.45,-123.98"/>
</g>
<!-- h&#45;&gt;f -->
<g id="edge11" class="edge">
<title>h&#45;&gt;f</title>
<path fill="none" stroke="black" d="M38.57,-111.95C40.84,-108.85 43.31,-105.47 45.77,-102.1"/>
<polygon fill="black" stroke="black" points="48.56,-104.22 51.64,-94.09 42.91,-100.09 48.56,-104.22"/>
</g>
<!-- h&#45;&gt;e -->
<g id="edge10" class="edge">
<title>h&#45;&gt;e</title>
<path fill="none" stroke="black" d="M37.15,-140.24C42.72,-149.64 50.1,-162.11 56.57,-173.02"/>
<polygon fill="black" stroke="black" points="53.52,-174.73 61.62,-181.55 59.54,-171.16 53.52,-174.73"/>
</g>
</g>
</svg>
