<?xml version="1.0" encoding="UTF-8" standalone="no"?>
<!DOCTYPE svg PUBLIC "-//W3C//DTD SVG 1.1//EN"
 "http://www.w3.org/Graphics/SVG/1.1/DTD/svg11.dtd">
<!-- Generated by graphviz version 2.44.0 (0)
 -->
<!-- Pages: 1 -->
<svg width="372pt" height="196pt"
 viewBox="0.00 0.00 372.00 195.80" xmlns="http://www.w3.org/2000/svg" xmlns:xlink="http://www.w3.org/1999/xlink">
<g id="graph0" class="graph" transform="scale(1 1) rotate(0) translate(4 191.8)">
<polygon fill="white" stroke="transparent" points="-4,4 -4,-191.8 368,-191.8 368,4 -4,4"/>
<!-- LH -->
<g id="node1" class="node">
<title>LH</title>
<ellipse fill="none" stroke="black" cx="38" cy="-162" rx="23" ry="23"/>
<text text-anchor="middle" x="38" y="-158.3" font-family="Times,serif" font-size="14.00">LH</text>
</g>
<!-- RH -->
<g id="node2" class="node">
<title>RH</title>
<ellipse fill="none" stroke="black" cx="182" cy="-162" rx="23" ry="23"/>
<text text-anchor="middle" x="182" y="-158.3" font-family="Times,serif" font-size="14.00">RH</text>
</g>
<!-- LH&#45;&gt;RH -->
<g id="edge4" class="edge">
<title>LH&#45;&gt;RH</title>
<path fill="none" stroke="black" d="M60.18,-167.04C84,-169.05 122.09,-169.29 149.34,-167.76"/>
<polygon fill="black" stroke="black" points="149.82,-171.24 159.55,-167.06 149.34,-164.25 149.82,-171.24"/>
<text text-anchor="middle" x="106.17" y="-176.6" font-family="Times,serif" font-size="14.00">&quot;desenha&quot;</text>
</g>
<!-- RH&#45;&gt;LH -->
<g id="edge5" class="edge">
<title>RH&#45;&gt;LH</title>
<path fill="none" stroke="black" d="M159.82,-156.96C136,-154.95 97.91,-154.71 70.66,-156.24"/>
<polygon fill="black" stroke="black" points="70.18,-152.76 60.45,-156.94 70.66,-159.75 70.18,-152.76"/>
<text text-anchor="middle" x="113.83" y="-140" font-family="Times,serif" font-size="14.00">&quot;desenha&quot;</text>
</g>
<!-- Escher -->
<g id="node3" class="node">
<title>Escher</title>
<polygon fill="none" stroke="black" points="154,-36 66,-36 66,0 154,0 154,-36"/>
<text text-anchor="middle" x="110" y="-14.3" font-family="Times,serif" font-size="14.00">M. C. Escher</text>
</g>
<!-- Escher&#45;&gt;LH -->
<g id="edge2" class="edge">
<title>Escher&#45;&gt;LH</title>
<path fill="none" stroke="black" d="M100.88,-36.24C88.78,-60.44 67.26,-103.48 52.81,-132.38"/>
<polygon fill="black" stroke="black" points="49.55,-131.08 48.2,-141.59 55.81,-134.21 49.55,-131.08"/>
<text text-anchor="middle" x="50.25" y="-62.92" font-family="Times,serif" font-size="14.00">desenha</text>
</g>
<!-- Escher&#45;&gt;RH -->
<g id="edge3" class="edge">
<title>Escher&#45;&gt;RH</title>
<path fill="none" stroke="black" d="M119.12,-36.24C131.22,-60.44 152.74,-103.48 167.19,-132.38"/>
<polygon fill="black" stroke="black" points="164.19,-134.21 171.8,-141.59 170.45,-131.08 164.19,-134.21"/>
<text text-anchor="middle" x="169.75" y="-62.92" font-family="Times,serif" font-size="14.00">desenha</text>
</g>
<!-- lsep -->
<!-- rsep -->
<!-- lsep&#45;&gt;rsep -->
<g id="edge1" class="edge">
<title>lsep&#45;&gt;rsep</title>
<path fill="none" stroke="black" d="M3.94,-97.2C30.94,-97.2 331.75,-97.2 359.89,-97.2"/>
</g>
<!-- strlp -->
<g id="node6" class="node">
<title>strlp</title>
<text text-anchor="middle" x="290" y="-144.2" font-family="Times,serif" font-size="14.00">Strange Loop ou</text>
<text text-anchor="middle" x="290" y="-129.2" font-family="Times,serif" font-size="14.00">Hierarquia Entrelaçada</text>
</g>
<!-- inviol -->
<g id="node7" class="node">
<title>inviol</title>
<text text-anchor="middle" x="290" y="-43.4" font-family="Times,serif" font-size="14.00">Nível inviolável</text>
<text text-anchor="middle" x="290" y="-28.4" font-family="Times,serif" font-size="14.00">(invisível)</text>
</g>
</g>
</svg>
