<?xml version="1.0" encoding="UTF-8" standalone="no"?>
<!DOCTYPE svg PUBLIC "-//W3C//DTD SVG 1.1//EN"
 "http://www.w3.org/Graphics/SVG/1.1/DTD/svg11.dtd">
<!-- Generated by graphviz version 2.44.0 (0)
 -->
<!-- Title: G Pages: 1 -->
<svg width="399pt" height="473pt"
 viewBox="0.00 0.00 399.12 473.12" xmlns="http://www.w3.org/2000/svg" xmlns:xlink="http://www.w3.org/1999/xlink">
<g id="graph0" class="graph" transform="scale(1 1) rotate(0) translate(16.56 456.56)">
<title>G</title>
<polygon fill="transparent" stroke="transparent" points="-16.56,16.56 -16.56,-456.56 382.56,-456.56 382.56,16.56 -16.56,16.56"/>
<g id="clust1" class="cluster">
<title>cluster_reader</title>
<polygon fill="transparent" stroke="orange" points="20,-226 20,-383.5 122,-383.5 122,-226 20,-226"/>
<text text-anchor="middle" x="71" y="-369.9" font-family="serif" font-size="12.00" fill="white">Leitor</text>
</g>
<g id="clust2" class="cluster">
<title>cluster_interpreter</title>
<polygon fill="transparent" stroke="orange" points="14,-145 14,-218 194,-218 194,-145 14,-145"/>
<text text-anchor="middle" x="104" y="-204.4" font-family="serif" font-size="12.00" fill="white">Interpretador</text>
</g>
<g id="clust4" class="cluster">
<title>cluster_printer</title>
<polygon fill="transparent" stroke="orange" points="133,-64 133,-137 349,-137 349,-64 133,-64"/>
<text text-anchor="middle" x="241" y="-123.4" font-family="serif" font-size="12.00" fill="white">Impressão</text>
</g>
<g id="clust6" class="cluster">
<title>cluster_global</title>
<polygon fill="transparent" stroke="black" stroke-width="0" points="160,-298 160,-396 358,-396 358,-298 160,-298"/>
<text text-anchor="middle" x="259" y="-382.4" font-family="serif" font-size="12.00" fill="white">Estado Global &amp; Núcleo</text>
</g>
<!-- file -->
<g id="node1" class="node">
<title>file</title>
<polygon fill="#aaaaaa" stroke="#666666" points="50,-440 0,-440 0,-404 56,-404 56,-434 50,-440"/>
<polyline fill="none" stroke="#666666" points="50,-440 50,-434 "/>
<polyline fill="none" stroke="#666666" points="56,-434 50,-434 "/>
<text text-anchor="middle" x="28" y="-419.2" font-family="Times,serif" font-size="11.00">Código</text>
</g>
<!-- tokenizer -->
<g id="node2" class="node">
<title>tokenizer</title>
<polygon fill="#aaaaaa" stroke="#666666" points="114,-354.5 28,-354.5 28,-318.5 114,-318.5 114,-354.5"/>
<text text-anchor="middle" x="71" y="-333.7" font-family="Times,serif" font-size="11.00">Tokenizador</text>
</g>
<!-- file&#45;&gt;tokenizer -->
<g id="edge6" class="edge">
<title>file&#45;&gt;tokenizer:w</title>
<path fill="none" stroke="#555555" stroke-width="2" d="M21.1,-403.9C13.48,-383.07 3.91,-349.41 17.14,-339.4"/>
<polygon fill="#555555" stroke="#555555" stroke-width="2" points="18.39,-342.68 27,-336.5 16.42,-335.96 18.39,-342.68"/>
</g>
<!-- parser -->
<g id="node3" class="node">
<title>parser</title>
<polygon fill="#aaaaaa" stroke="#666666" points="103,-270 49,-270 49,-234 103,-234 103,-270"/>
<text text-anchor="middle" x="76" y="-249.2" font-family="Times,serif" font-size="11.00">Parser</text>
</g>
<!-- tokenizer&#45;&gt;parser -->
<g id="edge1" class="edge">
<title>tokenizer:s&#45;&gt;parser:n</title>
<path fill="none" stroke="#555555" stroke-width="2" d="M71,-317.5C71,-300.09 74.36,-293.56 75.57,-280.06"/>
<polygon fill="#555555" stroke="#555555" stroke-width="2" points="79.07,-280.14 76,-270 72.08,-279.84 79.07,-280.14"/>
</g>
<!-- eval -->
<g id="node5" class="node">
<title>eval</title>
<ellipse fill="#aaaaaa" stroke="#666666" cx="49" cy="-171" rx="27" ry="18"/>
<text text-anchor="middle" x="49" y="-168.5" font-family="mono" font-size="10.00">eval</text>
</g>
<!-- parser&#45;&gt;eval -->
<g id="edge7" class="edge">
<title>parser:w&#45;&gt;eval:n</title>
<path fill="none" stroke="#555555" stroke-width="2" d="M48,-252C23.78,-252 42.91,-225.4 47.89,-200.24"/>
<polygon fill="#555555" stroke="#555555" stroke-width="2" points="51.41,-200.32 49,-190 44.45,-199.57 51.41,-200.32"/>
</g>
<!-- apply -->
<g id="node4" class="node">
<title>apply</title>
<ellipse fill="#aaaaaa" stroke="#666666" cx="158" cy="-171" rx="27.84" ry="18"/>
<text text-anchor="middle" x="158" y="-168.5" font-family="mono" font-size="10.00">apply</text>
</g>
<!-- apply&#45;&gt;eval -->
<g id="edge2" class="edge">
<title>apply&#45;&gt;eval</title>
<path fill="none" stroke="#555555" stroke-width="2" d="M129.98,-171C116.71,-171 100.53,-171 86.21,-171"/>
<polygon fill="#555555" stroke="#555555" stroke-width="2" points="86.18,-167.5 76.18,-171 86.18,-174.5 86.18,-167.5"/>
</g>
<!-- format -->
<g id="node7" class="node">
<title>format</title>
<ellipse fill="#aaaaaa" stroke="#666666" cx="172" cy="-90" rx="31.4" ry="18"/>
<text text-anchor="middle" x="172" y="-87.5" font-family="mono" font-size="10.00">format</text>
</g>
<!-- apply&#45;&gt;format -->
<g id="edge8" class="edge">
<title>apply:se&#45;&gt;format:n</title>
<path fill="none" stroke="#555555" stroke-width="2" d="M173,-155C184.86,-143.14 176.59,-133.54 173.23,-119.19"/>
<polygon fill="#555555" stroke="#555555" stroke-width="2" points="176.68,-118.51 172,-109 169.73,-119.35 176.68,-118.51"/>
</g>
<!-- eval&#45;&gt;apply -->
<g id="edge3" class="edge">
<title>eval:s&#45;&gt;apply:s</title>
<path fill="none" stroke="#555555" stroke-width="2" d="M49,-152C49,-131.09 130.23,-128.23 152.44,-143.42"/>
<polygon fill="#555555" stroke="#555555" stroke-width="2" points="149.63,-145.51 158,-152 155.5,-141.7 149.63,-145.51"/>
</g>
<!-- screen -->
<g id="node6" class="node">
<title>screen</title>
<polygon fill="#aaaaaa" stroke="#666666" points="199,-36 149,-36 145,-32 145,0 195,0 199,-4 199,-36"/>
<polyline fill="none" stroke="#666666" points="195,-32 145,-32 "/>
<polyline fill="none" stroke="#666666" points="195,-32 195,0 "/>
<polyline fill="none" stroke="#666666" points="195,-32 199,-36 "/>
<text text-anchor="middle" x="172" y="-15.2" font-family="Times,serif" font-size="11.00">Tela</text>
</g>
<!-- format&#45;&gt;screen -->
<g id="edge9" class="edge">
<title>format&#45;&gt;screen</title>
<path fill="none" stroke="#555555" stroke-width="2" d="M172,-71.7C172,-63.98 172,-54.71 172,-46.11"/>
<polygon fill="#555555" stroke="#555555" stroke-width="2" points="175.5,-46.1 172,-36.1 168.5,-46.1 175.5,-46.1"/>
</g>
<!-- formatter -->
<g id="node8" class="node">
<title>formatter</title>
<polygon fill="#aaaaaa" stroke="#666666" points="340.5,-108 257.5,-108 257.5,-72 340.5,-72 340.5,-108"/>
<text text-anchor="middle" x="299" y="-87.2" font-family="Times,serif" font-size="11.00">Formatador</text>
</g>
<!-- format&#45;&gt;formatter -->
<g id="edge4" class="edge">
<title>format&#45;&gt;formatter</title>
<path fill="none" stroke="#555555" stroke-width="2" d="M203.26,-90C216.41,-90 232.18,-90 247.05,-90"/>
<polygon fill="#555555" stroke="#555555" stroke-width="2" points="247.16,-93.5 257.16,-90 247.16,-86.5 247.16,-93.5"/>
</g>
<!-- formatter&#45;&gt;format -->
<g id="edge5" class="edge">
<title>formatter:sw&#45;&gt;format:se</title>
<path fill="none" stroke="#555555" stroke-width="2" d="M258,-72C238.76,-52.76 216.45,-52.16 196.51,-67.39"/>
<polygon fill="#555555" stroke="#555555" stroke-width="2" points="194.2,-64.77 189,-74 198.82,-70.02 194.2,-64.77"/>
</g>
<!-- state -->
<g id="node9" class="node">
<title>state</title>
<path fill="#eeeeee" stroke="#666666" d="M180.5,-306.5C180.5,-306.5 337.5,-306.5 337.5,-306.5 343.5,-306.5 349.5,-312.5 349.5,-318.5 349.5,-318.5 349.5,-354.5 349.5,-354.5 349.5,-360.5 343.5,-366.5 337.5,-366.5 337.5,-366.5 180.5,-366.5 180.5,-366.5 174.5,-366.5 168.5,-360.5 168.5,-354.5 168.5,-354.5 168.5,-318.5 168.5,-318.5 168.5,-312.5 174.5,-306.5 180.5,-306.5"/>
<text text-anchor="middle" x="222" y="-353.7" font-family="Times,serif" font-size="11.00">Streams</text>
<polyline fill="none" stroke="#666666" points="168.5,-346.5 275.5,-346.5 "/>
<text text-anchor="middle" x="222" y="-333.7" font-family="Times,serif" font-size="11.00">Símbolos</text>
<polyline fill="none" stroke="#666666" points="168.5,-326.5 275.5,-326.5 "/>
<text text-anchor="middle" x="222" y="-313.7" font-family="Times,serif" font-size="11.00">Contexto Global</text>
<polyline fill="none" stroke="#666666" points="275.5,-306.5 275.5,-366.5 "/>
<text text-anchor="middle" x="312.5" y="-348.7" font-family="Times,serif" font-size="11.00">Axiomas</text>
<polyline fill="none" stroke="#666666" points="275.5,-336.5 349.5,-336.5 "/>
<text text-anchor="middle" x="312.5" y="-318.7" font-family="Times,serif" font-size="11.00">Primitivas</text>
</g>
<!-- state&#45;&gt;parser -->
<g id="edge10" class="edge">
<title>state:f1&#45;&gt;parser</title>
<path fill="none" stroke="#555555" stroke-dasharray="5,2" d="M157.16,-334.27C146.33,-328.11 148.05,-310.51 135,-298 127.04,-290.36 117.8,-282.8 109.03,-276.12"/>
<polygon fill="#555555" stroke="#555555" points="156.47,-337.7 167,-336.5 158.02,-330.87 156.47,-337.7"/>
<polygon fill="#555555" stroke="#555555" points="110.94,-273.17 100.83,-270.01 106.76,-278.79 110.94,-273.17"/>
</g>
<!-- state&#45;&gt;eval -->
<g id="edge11" class="edge">
<title>state:f2&#45;&gt;eval</title>
<path fill="none" stroke="#555555" stroke-dasharray="5,2" d="M221.44,-295.44C216.39,-252.7 177.99,-249.08 135,-226 122.08,-219.07 116.04,-224.71 103,-218 91.02,-211.84 79.42,-202.54 70.06,-193.92"/>
<polygon fill="#555555" stroke="#555555" points="217.95,-295.71 222,-305.5 224.94,-295.32 217.95,-295.71"/>
<polygon fill="#555555" stroke="#555555" points="72.41,-191.32 62.77,-186.92 67.56,-196.37 72.41,-191.32"/>
</g>
<!-- state&#45;&gt;formatter -->
<g id="edge12" class="edge">
<title>state:f1&#45;&gt;formatter:n</title>
<path fill="none" stroke="#555555" stroke-dasharray="5,2" d="M159.72,-329.55C159.67,-323.08 164.26,-313.37 168,-306 179.75,-282.85 197.35,-289.92 214,-270 263.67,-210.58 296.12,-191.54 298.82,-119.09"/>
<polygon fill="#555555" stroke="#555555" points="157.35,-332.12 167,-336.5 162.19,-327.06 157.35,-332.12"/>
<polygon fill="#555555" stroke="#555555" points="302.32,-119.06 299,-109 295.32,-118.94 302.32,-119.06"/>
</g>
</g>
</svg>
