<?xml version="1.0" encoding="UTF-8" standalone="no"?>
<!DOCTYPE svg PUBLIC "-//W3C//DTD SVG 1.1//EN"
 "http://www.w3.org/Graphics/SVG/1.1/DTD/svg11.dtd">
<!-- Generated by graphviz version 12.2.1 (20241206.2353)
 -->
<!-- Pages: 1 -->
<svg width="372pt" height="196pt"
 viewBox="0.00 0.00 371.60 196.09" xmlns="http://www.w3.org/2000/svg" xmlns:xlink="http://www.w3.org/1999/xlink">
<g id="graph0" class="graph" transform="scale(1 1) rotate(0) translate(4 192.09)">
<polygon fill="white" stroke="none" points="-4,4 -4,-192.09 367.6,-192.09 367.6,4 -4,4"/>
<!-- LH -->
<g id="node1" class="node">
<title>LH</title>
<ellipse fill="none" stroke="black" cx="37.8" cy="-162" rx="22.62" ry="22.62"/>
<text text-anchor="middle" x="37.8" y="-156.57" font-family="Times,serif" font-size="14.00">LH</text>
</g>
<!-- RH -->
<g id="node2" class="node">
<title>RH</title>
<ellipse fill="none" stroke="black" cx="181.8" cy="-162" rx="23.12" ry="23.12"/>
<text text-anchor="middle" x="181.8" y="-156.57" font-family="Times,serif" font-size="14.00">RH</text>
</g>
<!-- LH&#45;&gt;RH -->
<g id="edge4" class="edge">
<title>LH&#45;&gt;RH</title>
<path fill="none" stroke="black" d="M60.3,-167.06C83.73,-169.01 120.71,-169.27 147.72,-167.84"/>
<polygon fill="black" stroke="black" points="147.73,-171.34 157.47,-167.19 147.26,-164.36 147.73,-171.34"/>
<text text-anchor="middle" x="105.57" y="-174.79" font-family="Times,serif" font-size="14.00">&quot;desenha&quot;</text>
</g>
<!-- RH&#45;&gt;LH -->
<g id="edge5" class="edge">
<title>RH&#45;&gt;LH</title>
<path fill="none" stroke="black" d="M158.98,-156.91C135.36,-154.97 98.2,-154.73 71.25,-156.2"/>
<polygon fill="black" stroke="black" points="71.29,-152.69 61.55,-156.86 71.76,-159.67 71.29,-152.69"/>
<text text-anchor="middle" x="113.43" y="-138.33" font-family="Times,serif" font-size="14.00">&quot;desenha&quot;</text>
</g>
<!-- Escher -->
<g id="node3" class="node">
<title>Escher</title>
<polygon fill="none" stroke="black" points="154.55,-36 65.05,-36 65.05,0 154.55,0 154.55,-36"/>
<text text-anchor="middle" x="109.8" y="-12.57" font-family="Times,serif" font-size="14.00">M. C. Escher</text>
</g>
<!-- Escher&#45;&gt;LH -->
<g id="edge2" class="edge">
<title>Escher&#45;&gt;LH</title>
<path fill="none" stroke="black" d="M100.68,-36.24C88.68,-60.23 67.43,-102.74 52.99,-131.63"/>
<polygon fill="black" stroke="black" points="50.02,-129.73 48.68,-140.24 56.28,-132.86 50.02,-129.73"/>
<text text-anchor="middle" x="50.05" y="-61.2" font-family="Times,serif" font-size="14.00">desenha</text>
</g>
<!-- Escher&#45;&gt;RH -->
<g id="edge3" class="edge">
<title>Escher&#45;&gt;RH</title>
<path fill="none" stroke="black" d="M118.92,-36.24C130.85,-60.1 151.93,-102.26 166.37,-131.14"/>
<polygon fill="black" stroke="black" points="163.08,-132.38 170.68,-139.76 169.34,-129.25 163.08,-132.38"/>
<text text-anchor="middle" x="169.31" y="-60.72" font-family="Times,serif" font-size="14.00">desenha</text>
</g>
<!-- lsep -->
<!-- rsep -->
<!-- lsep&#45;&gt;rsep -->
<g id="edge1" class="edge">
<title>lsep&#45;&gt;rsep</title>
<path fill="none" stroke="black" d="M4.1,-97.2C33.32,-97.2 331.79,-97.2 359.71,-97.2"/>
</g>
<!-- strlp -->
<g id="node6" class="node">
<title>strlp</title>
<text text-anchor="middle" x="289.8" y="-142.85" font-family="Times,serif" font-size="14.00">Strange Loop ou</text>
<text text-anchor="middle" x="289.8" y="-127.1" font-family="Times,serif" font-size="14.00">Hierarquia Entrelaçada</text>
</g>
<!-- inviol -->
<g id="node7" class="node">
<title>inviol</title>
<text text-anchor="middle" x="289.8" y="-42.05" font-family="Times,serif" font-size="14.00">Nível inviolável</text>
<text text-anchor="middle" x="289.8" y="-26.3" font-family="Times,serif" font-size="14.00">(invisível)</text>
</g>
</g>
</svg>
