<?xml version="1.0" encoding="UTF-8" standalone="no"?>
<!DOCTYPE svg PUBLIC "-//W3C//DTD SVG 1.1//EN"
 "http://www.w3.org/Graphics/SVG/1.1/DTD/svg11.dtd">
<!-- Generated by graphviz version 12.2.1 (20241206.2353)
 -->
<!-- Title: CicloFerramenta Pages: 1 -->
<svg width="406pt" height="523pt"
 viewBox="0.00 0.00 406.38 523.25" xmlns="http://www.w3.org/2000/svg" xmlns:xlink="http://www.w3.org/1999/xlink">
<g id="graph0" class="graph" transform="scale(1 1) rotate(0) translate(4 519.25)">
<title>CicloFerramenta</title>
<polygon fill="white" stroke="none" points="-4,4 -4,-519.25 402.38,-519.25 402.38,4 -4,4"/>
<!-- label -->
<g id="node1" class="node">
<title>label</title>
<polygon fill="#e0e0ff" stroke="black" stroke-width="2" points="230.5,-489.75 0,-489.75 0,-453.75 230.5,-453.75 230.5,-489.75"/>
<text text-anchor="middle" x="115.25" y="-466.32" font-family="Times,serif" font-size="14.00">CICLO DE USO DE FERRAMENTA</text>
</g>
<!-- step1 -->
<g id="node2" class="node">
<title>step1</title>
<path fill="#e0e0e0" stroke="black" d="M386.38,-515.25C386.38,-515.25 260.12,-515.25 260.12,-515.25 254.12,-515.25 248.12,-509.25 248.12,-503.25 248.12,-503.25 248.12,-440.25 248.12,-440.25 248.12,-434.25 254.12,-428.25 260.12,-428.25 260.12,-428.25 386.38,-428.25 386.38,-428.25 392.38,-428.25 398.38,-434.25 398.38,-440.25 398.38,-440.25 398.38,-503.25 398.38,-503.25 398.38,-509.25 392.38,-515.25 386.38,-515.25"/>
<text text-anchor="middle" x="323.25" y="-497.95" font-family="Times,serif" font-size="14.00">1. DESCRIÇÃO</text>
<text text-anchor="middle" x="323.25" y="-466.2" font-family="Times,serif" font-size="14.00">Ferramentas disponíveis:</text>
<text text-anchor="middle" x="323.25" y="-450.45" font-family="Times,serif" font-size="14.00">&quot;Tenho calculate,</text>
<text text-anchor="middle" x="323.25" y="-434.7" font-family="Times,serif" font-size="14.00">get_time&quot;</text>
</g>
<!-- step2 -->
<g id="node3" class="node">
<title>step2</title>
<path fill="#f0f0ff" stroke="black" d="M364.25,-392.25C364.25,-392.25 282.25,-392.25 282.25,-392.25 276.25,-392.25 270.25,-386.25 270.25,-380.25 270.25,-380.25 270.25,-317.25 270.25,-317.25 270.25,-311.25 276.25,-305.25 282.25,-305.25 282.25,-305.25 364.25,-305.25 364.25,-305.25 370.25,-305.25 376.25,-311.25 376.25,-317.25 376.25,-317.25 376.25,-380.25 376.25,-380.25 376.25,-386.25 370.25,-392.25 364.25,-392.25"/>
<text text-anchor="middle" x="323.25" y="-374.95" font-family="Times,serif" font-size="14.00">2. ANÁLISE</text>
<text text-anchor="middle" x="323.25" y="-343.2" font-family="Times,serif" font-size="14.00">LLM Raciocina:</text>
<text text-anchor="middle" x="323.25" y="-327.45" font-family="Times,serif" font-size="14.00">&quot;O usuário quer</text>
<text text-anchor="middle" x="323.25" y="-311.7" font-family="Times,serif" font-size="14.00">calcular...&quot;</text>
</g>
<!-- step1&#45;&gt;step2 -->
<g id="edge1" class="edge">
<title>step1&#45;&gt;step2</title>
<path fill="none" stroke="black" d="M323.25,-428.09C323.25,-420.23 323.25,-411.92 323.25,-403.78"/>
<polygon fill="black" stroke="black" points="326.75,-403.95 323.25,-393.95 319.75,-403.95 326.75,-403.95"/>
</g>
<!-- step3 -->
<g id="node4" class="node">
<title>step3</title>
<path fill="#f0f0ff" stroke="black" d="M377.38,-269.25C377.38,-269.25 269.12,-269.25 269.12,-269.25 263.12,-269.25 257.12,-263.25 257.12,-257.25 257.12,-257.25 257.12,-194.5 257.12,-194.5 257.12,-188.5 263.12,-182.5 269.12,-182.5 269.12,-182.5 377.38,-182.5 377.38,-182.5 383.38,-182.5 389.38,-188.5 389.38,-194.5 389.38,-194.5 389.38,-257.25 389.38,-257.25 389.38,-263.25 383.38,-269.25 377.38,-269.25"/>
<text text-anchor="middle" x="323.25" y="-251.95" font-family="Times,serif" font-size="14.00">3. DECISÃO</text>
<text text-anchor="middle" x="323.25" y="-236.2" font-family="Times,serif" font-size="14.00">PLANO DE AÇÃO:</text>
<text text-anchor="middle" x="323.25" y="-220.45" font-family="Times,serif" font-size="14.00">&quot;Usar calculate</text>
<text text-anchor="middle" x="323.25" y="-204.7" font-family="Times,serif" font-size="14.00">a=234, b=987,</text>
<text text-anchor="middle" x="323.25" y="-188.95" font-family="Times,serif" font-size="14.00">operation=&#39;multiply&#39;&quot;</text>
</g>
<!-- step2&#45;&gt;step3 -->
<g id="edge2" class="edge">
<title>step2&#45;&gt;step3</title>
<path fill="none" stroke="black" d="M323.25,-304.79C323.25,-297.13 323.25,-289.07 323.25,-281.14"/>
<polygon fill="black" stroke="black" points="326.75,-281.21 323.25,-271.21 319.75,-281.21 326.75,-281.21"/>
</g>
<!-- step4 -->
<g id="node5" class="node">
<title>step4</title>
<path fill="#f0f0ff" stroke="black" d="M375.12,-146.5C375.12,-146.5 271.38,-146.5 271.38,-146.5 265.38,-146.5 259.38,-140.5 259.38,-134.5 259.38,-134.5 259.38,-103.25 259.38,-103.25 259.38,-97.25 265.38,-91.25 271.38,-91.25 271.38,-91.25 375.12,-91.25 375.12,-91.25 381.12,-91.25 387.12,-97.25 387.12,-103.25 387.12,-103.25 387.12,-134.5 387.12,-134.5 387.12,-140.5 381.12,-146.5 375.12,-146.5"/>
<text text-anchor="middle" x="323.25" y="-129.2" font-family="Times,serif" font-size="14.00">4. EXECUÇÃO</text>
<text text-anchor="middle" x="323.25" y="-113.45" font-family="Times,serif" font-size="14.00">Python executa:</text>
<text text-anchor="middle" x="323.25" y="-97.7" font-family="Times,serif" font-size="14.00">Resultado: 230958.0</text>
</g>
<!-- step3&#45;&gt;step4 -->
<g id="edge3" class="edge">
<title>step3&#45;&gt;step4</title>
<path fill="none" stroke="black" d="M323.25,-182.17C323.25,-174.25 323.25,-166.02 323.25,-158.25"/>
<polygon fill="black" stroke="black" points="326.75,-158.39 323.25,-148.39 319.75,-158.39 326.75,-158.39"/>
</g>
<!-- step5 -->
<g id="node6" class="node">
<title>step5</title>
<path fill="#e0ffe0" stroke="black" d="M380.75,-55.25C380.75,-55.25 265.75,-55.25 265.75,-55.25 259.75,-55.25 253.75,-49.25 253.75,-43.25 253.75,-43.25 253.75,-12 253.75,-12 253.75,-6 259.75,0 265.75,0 265.75,0 380.75,0 380.75,0 386.75,0 392.75,-6 392.75,-12 392.75,-12 392.75,-43.25 392.75,-43.25 392.75,-49.25 386.75,-55.25 380.75,-55.25"/>
<text text-anchor="middle" x="323.25" y="-37.95" font-family="Times,serif" font-size="14.00">5. RESPOSTA</text>
<text text-anchor="middle" x="323.25" y="-22.2" font-family="Times,serif" font-size="14.00">LLM Formula:</text>
<text text-anchor="middle" x="323.25" y="-6.45" font-family="Times,serif" font-size="14.00">&quot;234 × 987 = 230958&quot;</text>
</g>
<!-- step4&#45;&gt;step5 -->
<g id="edge4" class="edge">
<title>step4&#45;&gt;step5</title>
<path fill="none" stroke="black" d="M323.25,-91.1C323.25,-83.58 323.25,-75.25 323.25,-67.18"/>
<polygon fill="black" stroke="black" points="326.75,-67.21 323.25,-57.21 319.75,-67.21 326.75,-67.21"/>
</g>
</g>
</svg>
