<?xml version="1.0" encoding="UTF-8" standalone="no"?>
<!DOCTYPE svg PUBLIC "-//W3C//DTD SVG 1.1//EN"
 "http://www.w3.org/Graphics/SVG/1.1/DTD/svg11.dtd">
<!-- Generated by graphviz version 12.2.1 (20241206.2353)
 -->
<!-- Title: FerramentasEspecificas Pages: 1 -->
<svg width="400pt" height="279pt"
 viewBox="0.00 0.00 399.62 278.50" xmlns="http://www.w3.org/2000/svg" xmlns:xlink="http://www.w3.org/1999/xlink">
<g id="graph0" class="graph" transform="scale(1 1) rotate(0) translate(4 274.5)">
<title>FerramentasEspecificas</title>
<polygon fill="white" stroke="none" points="-4,4 -4,-274.5 395.62,-274.5 395.62,4 -4,4"/>
<!-- pergunta -->
<g id="node1" class="node">
<title>pergunta</title>
<path fill="#e0e0e0" stroke="black" d="M259,-270.5C259,-270.5 150,-270.5 150,-270.5 144,-270.5 138,-264.5 138,-258.5 138,-258.5 138,-243 138,-243 138,-237 144,-231 150,-231 150,-231 259,-231 259,-231 265,-231 271,-237 271,-243 271,-243 271,-258.5 271,-258.5 271,-264.5 265,-270.5 259,-270.5"/>
<text text-anchor="middle" x="204.5" y="-253.2" font-family="Times,serif" font-size="14.00">Pergunta:</text>
<text text-anchor="middle" x="204.5" y="-237.45" font-family="Times,serif" font-size="14.00">&quot;Quem foi Einstein?&quot;</text>
</g>
<!-- wiki -->
<g id="node2" class="node">
<title>wiki</title>
<path fill="#e0ffe0" stroke="black" d="M193,-179.25C193,-179.25 12,-179.25 12,-179.25 6,-179.25 0,-173.25 0,-167.25 0,-167.25 0,-88.5 0,-88.5 0,-82.5 6,-76.5 12,-76.5 12,-76.5 193,-76.5 193,-76.5 199,-76.5 205,-82.5 205,-88.5 205,-88.5 205,-167.25 205,-167.25 205,-173.25 199,-179.25 193,-179.25"/>
<text text-anchor="middle" x="102.5" y="-161.95" font-family="Times,serif" font-size="14.00">buscar_wikipedia</text>
<text text-anchor="middle" x="102.5" y="-130.2" font-family="Times,serif" font-size="14.00">&quot;Busca artigos enciclopédicos</text>
<text text-anchor="middle" x="102.5" y="-114.45" font-family="Times,serif" font-size="14.00">sobre pessoas, lugares e conceitos.</text>
<text text-anchor="middle" x="102.5" y="-98.7" font-family="Times,serif" font-size="14.00">Use para informações factuais</text>
<text text-anchor="middle" x="102.5" y="-82.95" font-family="Times,serif" font-size="14.00">e históricas bem estabelecidas.&quot;</text>
</g>
<!-- pergunta&#45;&gt;wiki -->
<g id="edge1" class="edge">
<title>pergunta&#45;&gt;wiki</title>
<path fill="none" stroke="black" d="M188.34,-230.6C178.53,-218.97 165.42,-203.44 152.41,-188.02"/>
<polygon fill="black" stroke="black" points="155.31,-186.03 146.19,-180.65 149.96,-190.55 155.31,-186.03"/>
<text text-anchor="middle" x="189.88" y="-199.7" font-family="Times,serif" font-size="14.00">factual</text>
</g>
<!-- google -->
<g id="node3" class="node">
<title>google</title>
<path fill="#e0ffe0" stroke="black" d="M379.62,-179.25C379.62,-179.25 235.38,-179.25 235.38,-179.25 229.38,-179.25 223.38,-173.25 223.38,-167.25 223.38,-167.25 223.38,-88.5 223.38,-88.5 223.38,-82.5 229.38,-76.5 235.38,-76.5 235.38,-76.5 379.62,-76.5 379.62,-76.5 385.62,-76.5 391.62,-82.5 391.62,-88.5 391.62,-88.5 391.62,-167.25 391.62,-167.25 391.62,-173.25 385.62,-179.25 379.62,-179.25"/>
<text text-anchor="middle" x="307.5" y="-161.95" font-family="Times,serif" font-size="14.00">buscar_google</text>
<text text-anchor="middle" x="307.5" y="-130.2" font-family="Times,serif" font-size="14.00">&quot;Pesquisa resultados da web</text>
<text text-anchor="middle" x="307.5" y="-114.45" font-family="Times,serif" font-size="14.00">em tempo real. Use para</text>
<text text-anchor="middle" x="307.5" y="-98.7" font-family="Times,serif" font-size="14.00">notícias atuais, preços,</text>
<text text-anchor="middle" x="307.5" y="-82.95" font-family="Times,serif" font-size="14.00">eventos recentes.&quot;</text>
</g>
<!-- pergunta&#45;&gt;google -->
<g id="edge2" class="edge">
<title>pergunta&#45;&gt;google</title>
<path fill="none" stroke="black" d="M220.82,-230.6C230.73,-218.97 243.96,-203.44 257.1,-188.02"/>
<polygon fill="black" stroke="black" points="259.57,-190.52 263.39,-180.64 254.24,-185.98 259.57,-190.52"/>
<text text-anchor="middle" x="276.02" y="-199.7" font-family="Times,serif" font-size="14.00">tempo real</text>
</g>
<!-- resposta -->
<g id="node4" class="node">
<title>resposta</title>
<path fill="#e0ffe0" stroke="black" d="M244.75,-39.5C244.75,-39.5 164.25,-39.5 164.25,-39.5 158.25,-39.5 152.25,-33.5 152.25,-27.5 152.25,-27.5 152.25,-12 152.25,-12 152.25,-6 158.25,0 164.25,0 164.25,0 244.75,0 244.75,0 250.75,0 256.75,-6 256.75,-12 256.75,-12 256.75,-27.5 256.75,-27.5 256.75,-33.5 250.75,-39.5 244.75,-39.5"/>
<text text-anchor="middle" x="204.5" y="-22.2" font-family="Times,serif" font-size="14.00">Agora o modelo</text>
<text text-anchor="middle" x="204.5" y="-6.45" font-family="Times,serif" font-size="14.00">sabe distinguir!</text>
</g>
<!-- wiki&#45;&gt;resposta -->
<g id="edge3" class="edge">
<title>wiki&#45;&gt;resposta</title>
<path fill="none" stroke="black" d="M151.11,-76.3C160.5,-66.53 170,-56.65 178.33,-47.98"/>
<polygon fill="black" stroke="black" points="180.77,-50.5 185.17,-40.86 175.72,-45.64 180.77,-50.5"/>
</g>
<!-- google&#45;&gt;resposta -->
<g id="edge4" class="edge">
<title>google&#45;&gt;resposta</title>
<path fill="none" stroke="black" d="M258.41,-76.3C248.93,-66.53 239.34,-56.65 230.93,-47.98"/>
<polygon fill="black" stroke="black" points="233.49,-45.59 224.01,-40.86 228.47,-50.47 233.49,-45.59"/>
</g>
</g>
</svg>
