<?xml version="1.0" encoding="UTF-8" standalone="no"?>
<!DOCTYPE svg PUBLIC "-//W3C//DTD SVG 1.1//EN"
 "http://www.w3.org/Graphics/SVG/1.1/DTD/svg11.dtd">
<!-- Generated by graphviz version 12.2.1 (20241206.2353)
 -->
<!-- Title: FerramentasConflitantes Pages: 1 -->
<svg width="759pt" height="136pt"
 viewBox="0.00 0.00 758.50 136.25" xmlns="http://www.w3.org/2000/svg" xmlns:xlink="http://www.w3.org/1999/xlink">
<g id="graph0" class="graph" transform="scale(1 1) rotate(0) translate(4 132.25)">
<title>FerramentasConflitantes</title>
<polygon fill="white" stroke="none" points="-4,4 -4,-132.25 754.5,-132.25 754.5,4 -4,4"/>
<!-- pergunta -->
<g id="node1" class="node">
<title>pergunta</title>
<path fill="#e0e0e0" stroke="black" d="M121,-83.38C121,-83.38 12,-83.38 12,-83.38 6,-83.38 0,-77.38 0,-71.38 0,-71.38 0,-55.88 0,-55.88 0,-49.88 6,-43.88 12,-43.88 12,-43.88 121,-43.88 121,-43.88 127,-43.88 133,-49.88 133,-55.88 133,-55.88 133,-71.38 133,-71.38 133,-77.38 127,-83.38 121,-83.38"/>
<text text-anchor="middle" x="66.5" y="-66.08" font-family="Times,serif" font-size="14.00">Pergunta:</text>
<text text-anchor="middle" x="66.5" y="-50.33" font-family="Times,serif" font-size="14.00">&quot;Quem foi Einstein?&quot;</text>
</g>
<!-- confusao -->
<g id="node5" class="node">
<title>confusao</title>
<path fill="#ffe0e0" stroke="black" d="M267.3,-113.45C267.3,-113.45 179.7,-69.05 179.7,-69.05 174.35,-66.34 174.35,-60.91 179.7,-58.2 179.7,-58.2 267.3,-13.8 267.3,-13.8 272.65,-11.09 283.35,-11.09 288.7,-13.8 288.7,-13.8 376.3,-58.2 376.3,-58.2 381.65,-60.91 381.65,-66.34 376.3,-69.05 376.3,-69.05 288.7,-113.45 288.7,-113.45 283.35,-116.16 272.65,-116.16 267.3,-113.45"/>
<text text-anchor="middle" x="278" y="-73.95" font-family="Times,serif" font-size="14.00">Problema:</text>
<text text-anchor="middle" x="278" y="-58.2" font-family="Times,serif" font-size="14.00">Modelo não sabe</text>
<text text-anchor="middle" x="278" y="-42.45" font-family="Times,serif" font-size="14.00">qual usar!</text>
</g>
<!-- pergunta&#45;&gt;confusao -->
<g id="edge1" class="edge">
<title>pergunta&#45;&gt;confusao</title>
<path fill="none" stroke="black" d="M133.5,-63.62C141,-63.62 148.81,-63.62 156.74,-63.62"/>
<polygon fill="black" stroke="black" points="156.5,-67.13 166.5,-63.63 156.5,-60.13 156.5,-67.13"/>
</g>
<!-- ferramentas -->
<g id="node2" class="node">
<title>ferramentas</title>
<path fill="#e0e0e0" stroke="black" d="M738.5,-118.62C738.5,-118.62 610,-118.62 610,-118.62 604,-118.62 598,-112.62 598,-106.62 598,-106.62 598,-94.62 598,-94.62 598,-88.62 604,-82.62 610,-82.62 610,-82.62 738.5,-82.62 738.5,-82.62 744.5,-82.62 750.5,-88.62 750.5,-94.62 750.5,-94.62 750.5,-106.62 750.5,-106.62 750.5,-112.62 744.5,-118.62 738.5,-118.62"/>
<text text-anchor="middle" x="674.25" y="-95.2" font-family="Times,serif" font-size="14.00">Ferramentas conflitantes:</text>
</g>
<!-- wiki -->
<g id="node3" class="node">
<title>wiki</title>
<path fill="#f0f0ff" stroke="black" d="M542.88,-128.25C542.88,-128.25 442.12,-128.25 442.12,-128.25 436.12,-128.25 430.12,-122.25 430.12,-116.25 430.12,-116.25 430.12,-85 430.12,-85 430.12,-79 436.12,-73 442.12,-73 442.12,-73 542.88,-73 542.88,-73 548.88,-73 554.88,-79 554.88,-85 554.88,-85 554.88,-116.25 554.88,-116.25 554.88,-122.25 548.88,-128.25 542.88,-128.25"/>
<text text-anchor="middle" x="492.5" y="-110.95" font-family="Times,serif" font-size="14.00">buscar_wikipedia</text>
<text text-anchor="middle" x="492.5" y="-95.2" font-family="Times,serif" font-size="14.00">&quot;Busca informações</text>
<text text-anchor="middle" x="492.5" y="-79.45" font-family="Times,serif" font-size="14.00">na Wikipedia&quot;</text>
</g>
<!-- wiki&#45;&gt;ferramentas -->
<!-- google -->
<g id="node4" class="node">
<title>google</title>
<path fill="#f0f0ff" stroke="black" d="M550,-55.25C550,-55.25 435,-55.25 435,-55.25 429,-55.25 423,-49.25 423,-43.25 423,-43.25 423,-12 423,-12 423,-6 429,0 435,0 435,0 550,0 550,0 556,0 562,-6 562,-12 562,-12 562,-43.25 562,-43.25 562,-49.25 556,-55.25 550,-55.25"/>
<text text-anchor="middle" x="492.5" y="-37.95" font-family="Times,serif" font-size="14.00">buscar_google</text>
<text text-anchor="middle" x="492.5" y="-22.2" font-family="Times,serif" font-size="14.00">&quot;Pesquisa informações</text>
<text text-anchor="middle" x="492.5" y="-6.45" font-family="Times,serif" font-size="14.00">no Google&quot;</text>
</g>
<!-- confusao&#45;&gt;wiki -->
<g id="edge2" class="edge">
<title>confusao&#45;&gt;wiki</title>
<path fill="none" stroke="black" stroke-dasharray="5,2" d="M359.94,-77.72C379.27,-81.08 399.77,-84.65 418.7,-87.95"/>
<polygon fill="black" stroke="black" points="418.01,-91.38 428.46,-89.65 419.21,-84.49 418.01,-91.38"/>
</g>
<!-- confusao&#45;&gt;google -->
<g id="edge3" class="edge">
<title>confusao&#45;&gt;google</title>
<path fill="none" stroke="black" stroke-dasharray="5,2" d="M360.55,-49.81C377.19,-46.99 394.69,-44.03 411.29,-41.21"/>
<polygon fill="black" stroke="black" points="411.84,-44.67 421.12,-39.55 410.67,-37.77 411.84,-44.67"/>
</g>
</g>
</svg>
