<?xml version="1.0" encoding="UTF-8" standalone="no"?>
<!DOCTYPE svg PUBLIC "-//W3C//DTD SVG 1.1//EN"
 "http://www.w3.org/Graphics/SVG/1.1/DTD/svg11.dtd">
<!-- Generated by graphviz version 12.2.1 (20241206.2353)
 -->
<!-- Title: OrquestracaoParalela Pages: 1 -->
<svg width="306pt" height="271pt"
 viewBox="0.00 0.00 306.00 270.50" xmlns="http://www.w3.org/2000/svg" xmlns:xlink="http://www.w3.org/1999/xlink">
<g id="graph0" class="graph" transform="scale(1 1) rotate(0) translate(4 266.5)">
<title>OrquestracaoParalela</title>
<polygon fill="white" stroke="none" points="-4,4 -4,-266.5 302,-266.5 302,4 -4,4"/>
<!-- label -->
<g id="node1" class="node">
<title>label</title>
<path fill="#e0e0e0" stroke="black" d="M46,-260.75C46,-260.75 12,-260.75 12,-260.75 6,-260.75 0,-254.75 0,-248.75 0,-248.75 0,-236.75 0,-236.75 0,-230.75 6,-224.75 12,-224.75 12,-224.75 46,-224.75 46,-224.75 52,-224.75 58,-230.75 58,-236.75 58,-236.75 58,-248.75 58,-248.75 58,-254.75 52,-260.75 46,-260.75"/>
<text text-anchor="middle" x="29" y="-238.47" font-family="Times,serif" font-size="12.00">Paralelo:</text>
</g>
<!-- wiki1 -->
<g id="node2" class="node">
<title>wiki1</title>
<path fill="#f0f0ff" stroke="black" d="M155.5,-262.5C155.5,-262.5 88.5,-262.5 88.5,-262.5 82.5,-262.5 76.5,-256.5 76.5,-250.5 76.5,-250.5 76.5,-235 76.5,-235 76.5,-229 82.5,-223 88.5,-223 88.5,-223 155.5,-223 155.5,-223 161.5,-223 167.5,-229 167.5,-235 167.5,-235 167.5,-250.5 167.5,-250.5 167.5,-256.5 161.5,-262.5 155.5,-262.5"/>
<text text-anchor="middle" x="122" y="-245.2" font-family="Times,serif" font-size="14.00">WIKIPEDIA</text>
<text text-anchor="middle" x="122" y="-229.45" font-family="Times,serif" font-size="14.00">&quot;Brazil GDP&quot;</text>
</g>
<!-- resA -->
<g id="node4" class="node">
<title>resA</title>
<path fill="#ffffe0" stroke="black" d="M161.38,-187C161.38,-187 102.62,-187 102.62,-187 96.62,-187 90.62,-181 90.62,-175 90.62,-175 90.62,-163 90.62,-163 90.62,-157 96.62,-151 102.62,-151 102.62,-151 161.38,-151 161.38,-151 167.38,-151 173.38,-157 173.38,-163 173.38,-163 173.38,-175 173.38,-175 173.38,-181 167.38,-187 161.38,-187"/>
<text text-anchor="middle" x="132" y="-163.57" font-family="Times,serif" font-size="14.00">Resultado A</text>
</g>
<!-- wiki1&#45;&gt;resA -->
<g id="edge1" class="edge">
<title>wiki1&#45;&gt;resA</title>
<path fill="none" stroke="black" d="M124.68,-222.52C125.71,-215.16 126.9,-206.59 128.02,-198.54"/>
<polygon fill="black" stroke="black" points="131.46,-199.2 129.38,-188.82 124.53,-198.24 131.46,-199.2"/>
</g>
<!-- wiki2 -->
<g id="node3" class="node">
<title>wiki2</title>
<path fill="#f0f0ff" stroke="black" d="M286,-262.5C286,-262.5 198,-262.5 198,-262.5 192,-262.5 186,-256.5 186,-250.5 186,-250.5 186,-235 186,-235 186,-229 192,-223 198,-223 198,-223 286,-223 286,-223 292,-223 298,-229 298,-235 298,-235 298,-250.5 298,-250.5 298,-256.5 292,-262.5 286,-262.5"/>
<text text-anchor="middle" x="242" y="-245.2" font-family="Times,serif" font-size="14.00">WIKIPEDIA</text>
<text text-anchor="middle" x="242" y="-229.45" font-family="Times,serif" font-size="14.00">&quot;Argentina GDP&quot;</text>
</g>
<!-- resB -->
<g id="node5" class="node">
<title>resB</title>
<path fill="#ffffe0" stroke="black" d="M266,-187C266,-187 208,-187 208,-187 202,-187 196,-181 196,-175 196,-175 196,-163 196,-163 196,-157 202,-151 208,-151 208,-151 266,-151 266,-151 272,-151 278,-157 278,-163 278,-163 278,-175 278,-175 278,-181 272,-187 266,-187"/>
<text text-anchor="middle" x="237" y="-163.57" font-family="Times,serif" font-size="14.00">Resultado B</text>
</g>
<!-- wiki2&#45;&gt;resB -->
<g id="edge2" class="edge">
<title>wiki2&#45;&gt;resB</title>
<path fill="none" stroke="black" d="M240.66,-222.52C240.15,-215.16 239.55,-206.59 238.99,-198.54"/>
<polygon fill="black" stroke="black" points="242.5,-198.56 238.31,-188.83 235.52,-199.05 242.5,-198.56"/>
</g>
<!-- calc -->
<g id="node6" class="node">
<title>calc</title>
<path fill="#f0f0ff" stroke="black" d="M230.12,-115C230.12,-115 133.88,-115 133.88,-115 127.88,-115 121.88,-109 121.88,-103 121.88,-103 121.88,-87.5 121.88,-87.5 121.88,-81.5 127.88,-75.5 133.88,-75.5 133.88,-75.5 230.12,-75.5 230.12,-75.5 236.12,-75.5 242.12,-81.5 242.12,-87.5 242.12,-87.5 242.12,-103 242.12,-103 242.12,-109 236.12,-115 230.12,-115"/>
<text text-anchor="middle" x="182" y="-97.7" font-family="Times,serif" font-size="14.00">CALCULADORA</text>
<text text-anchor="middle" x="182" y="-81.95" font-family="Times,serif" font-size="14.00">(A &#45; B)</text>
</g>
<!-- resA&#45;&gt;calc -->
<g id="edge3" class="edge">
<title>resA&#45;&gt;calc</title>
<path fill="none" stroke="black" d="M144.1,-150.63C149.54,-142.83 156.09,-133.43 162.21,-124.65"/>
<polygon fill="black" stroke="black" points="164.89,-126.92 167.74,-116.72 159.15,-122.92 164.89,-126.92"/>
</g>
<!-- resB&#45;&gt;calc -->
<g id="edge4" class="edge">
<title>resB&#45;&gt;calc</title>
<path fill="none" stroke="black" d="M223.69,-150.63C217.65,-142.75 210.35,-133.23 203.56,-124.37"/>
<polygon fill="black" stroke="black" points="206.52,-122.49 197.66,-116.68 200.97,-126.74 206.52,-122.49"/>
</g>
<!-- resposta -->
<g id="node7" class="node">
<title>resposta</title>
<path fill="#e0ffe0" stroke="black" d="M202,-39.5C202,-39.5 162,-39.5 162,-39.5 156,-39.5 150,-33.5 150,-27.5 150,-27.5 150,-12 150,-12 150,-6 156,0 162,0 162,0 202,0 202,0 208,0 214,-6 214,-12 214,-12 214,-27.5 214,-27.5 214,-33.5 208,-39.5 202,-39.5"/>
<text text-anchor="middle" x="182" y="-22.2" font-family="Times,serif" font-size="14.00">Resposta</text>
<text text-anchor="middle" x="182" y="-6.45" font-family="Times,serif" font-size="14.00">final</text>
</g>
<!-- calc&#45;&gt;resposta -->
<g id="edge5" class="edge">
<title>calc&#45;&gt;resposta</title>
<path fill="none" stroke="black" d="M182,-75.32C182,-68.01 182,-59.45 182,-51.31"/>
<polygon fill="black" stroke="black" points="185.5,-51.38 182,-41.38 178.5,-51.38 185.5,-51.38"/>
</g>
</g>
</svg>
