<?xml version="1.0" encoding="UTF-8" standalone="no"?>
<!DOCTYPE svg PUBLIC "-//W3C//DTD SVG 1.1//EN"
 "http://www.w3.org/Graphics/SVG/1.1/DTD/svg11.dtd">
<!-- Generated by graphviz version 12.2.1 (20241206.2353)
 -->
<!-- Title: RAG Pages: 1 -->
<svg width="718pt" height="198pt"
 viewBox="0.00 0.00 718.00 198.00" xmlns="http://www.w3.org/2000/svg" xmlns:xlink="http://www.w3.org/1999/xlink">
<g id="graph0" class="graph" transform="scale(1 1) rotate(0) translate(4 194)">
<title>RAG</title>
<polygon fill="white" stroke="none" points="-4,4 -4,-194 714,-194 714,4 -4,4"/>
<g id="clust1" class="cluster">
<title>cluster_rag</title>
<path fill="none" stroke="black" d="M20,-8C20,-8 690,-8 690,-8 696,-8 702,-14 702,-20 702,-20 702,-170 702,-170 702,-176 696,-182 690,-182 690,-182 20,-182 20,-182 14,-182 8,-176 8,-170 8,-170 8,-20 8,-20 8,-14 14,-8 20,-8"/>
<text text-anchor="middle" x="355" y="-164.7" font-family="Times,serif" font-size="14.00">Sistema RAG</text>
</g>
<!-- consulta -->
<g id="node1" class="node">
<title>consulta</title>
<path fill="#f0f0ff" stroke="black" d="M79.25,-55.75C79.25,-55.75 28,-55.75 28,-55.75 22,-55.75 16,-49.75 16,-43.75 16,-43.75 16,-28.25 16,-28.25 16,-22.25 22,-16.25 28,-16.25 28,-16.25 79.25,-16.25 79.25,-16.25 85.25,-16.25 91.25,-22.25 91.25,-28.25 91.25,-28.25 91.25,-43.75 91.25,-43.75 91.25,-49.75 85.25,-55.75 79.25,-55.75"/>
<text text-anchor="middle" x="53.62" y="-38.45" font-family="Times,serif" font-size="14.00">Consulta</text>
<text text-anchor="middle" x="53.62" y="-22.7" font-family="Times,serif" font-size="14.00">do Usuário</text>
</g>
<!-- embedding -->
<g id="node2" class="node">
<title>embedding</title>
<path fill="#f0f0ff" stroke="black" d="M198.38,-55.75C198.38,-55.75 144.12,-55.75 144.12,-55.75 138.12,-55.75 132.12,-49.75 132.12,-43.75 132.12,-43.75 132.12,-28.25 132.12,-28.25 132.12,-22.25 138.12,-16.25 144.12,-16.25 144.12,-16.25 198.38,-16.25 198.38,-16.25 204.38,-16.25 210.38,-22.25 210.38,-28.25 210.38,-28.25 210.38,-43.75 210.38,-43.75 210.38,-49.75 204.38,-55.75 198.38,-55.75"/>
<text text-anchor="middle" x="171.25" y="-38.45" font-family="Times,serif" font-size="14.00">Embedding</text>
<text text-anchor="middle" x="171.25" y="-22.7" font-family="Times,serif" font-size="14.00">Model</text>
</g>
<!-- consulta&#45;&gt;embedding -->
<g id="edge1" class="edge">
<title>consulta&#45;&gt;embedding</title>
<path fill="none" stroke="black" d="M91.53,-36C100.74,-36 110.78,-36 120.5,-36"/>
<polygon fill="black" stroke="black" points="120.19,-39.5 130.19,-36 120.19,-32.5 120.19,-39.5"/>
</g>
<!-- search -->
<g id="node3" class="node">
<title>search</title>
<path fill="#f0f0ff" stroke="black" d="M331.75,-93.75C331.75,-93.75 263.25,-93.75 263.25,-93.75 257.25,-93.75 251.25,-87.75 251.25,-81.75 251.25,-81.75 251.25,-66.25 251.25,-66.25 251.25,-60.25 257.25,-54.25 263.25,-54.25 263.25,-54.25 331.75,-54.25 331.75,-54.25 337.75,-54.25 343.75,-60.25 343.75,-66.25 343.75,-66.25 343.75,-81.75 343.75,-81.75 343.75,-87.75 337.75,-93.75 331.75,-93.75"/>
<text text-anchor="middle" x="297.5" y="-76.45" font-family="Times,serif" font-size="14.00">Vector Search</text>
<text text-anchor="middle" x="297.5" y="-60.7" font-family="Times,serif" font-size="14.00">(Top&#45;k docs)</text>
</g>
<!-- embedding&#45;&gt;search -->
<g id="edge2" class="edge">
<title>embedding&#45;&gt;search</title>
<path fill="none" stroke="black" d="M210.54,-47.71C219.97,-50.59 230.26,-53.74 240.33,-56.82"/>
<polygon fill="black" stroke="black" points="239.1,-60.11 249.69,-59.68 241.15,-53.41 239.1,-60.11"/>
</g>
<!-- fusion -->
<g id="node4" class="node">
<title>fusion</title>
<path fill="#f0f0ff" stroke="black" d="M470,-93.75C470,-93.75 391.75,-93.75 391.75,-93.75 385.75,-93.75 379.75,-87.75 379.75,-81.75 379.75,-81.75 379.75,-66.25 379.75,-66.25 379.75,-60.25 385.75,-54.25 391.75,-54.25 391.75,-54.25 470,-54.25 470,-54.25 476,-54.25 482,-60.25 482,-66.25 482,-66.25 482,-81.75 482,-81.75 482,-87.75 476,-93.75 470,-93.75"/>
<text text-anchor="middle" x="430.88" y="-76.45" font-family="Times,serif" font-size="14.00">Context Fusion</text>
<text text-anchor="middle" x="430.88" y="-60.7" font-family="Times,serif" font-size="14.00">(Query + Docs)</text>
</g>
<!-- search&#45;&gt;fusion -->
<g id="edge3" class="edge">
<title>search&#45;&gt;fusion</title>
<path fill="none" stroke="black" d="M344.08,-74C351.84,-74 360.01,-74 368.1,-74"/>
<polygon fill="black" stroke="black" points="367.92,-77.5 377.92,-74 367.92,-70.5 367.92,-77.5"/>
</g>
<!-- llm -->
<g id="node5" class="node">
<title>llm</title>
<path fill="#f0f0ff" stroke="black" d="M582,-93.75C582,-93.75 530,-93.75 530,-93.75 524,-93.75 518,-87.75 518,-81.75 518,-81.75 518,-66.25 518,-66.25 518,-60.25 524,-54.25 530,-54.25 530,-54.25 582,-54.25 582,-54.25 588,-54.25 594,-60.25 594,-66.25 594,-66.25 594,-81.75 594,-81.75 594,-87.75 588,-93.75 582,-93.75"/>
<text text-anchor="middle" x="556" y="-76.45" font-family="Times,serif" font-size="14.00">LLM</text>
<text text-anchor="middle" x="556" y="-60.7" font-family="Times,serif" font-size="14.00">Generation</text>
</g>
<!-- fusion&#45;&gt;llm -->
<g id="edge5" class="edge">
<title>fusion&#45;&gt;llm</title>
<path fill="none" stroke="black" d="M482.31,-74C490.25,-74 498.45,-74 506.35,-74"/>
<polygon fill="black" stroke="black" points="506.14,-77.5 516.14,-74 506.14,-70.5 506.14,-77.5"/>
</g>
<!-- resposta -->
<g id="node6" class="node">
<title>resposta</title>
<path fill="#f0f0ff" stroke="black" d="M682,-93.75C682,-93.75 642,-93.75 642,-93.75 636,-93.75 630,-87.75 630,-81.75 630,-81.75 630,-66.25 630,-66.25 630,-60.25 636,-54.25 642,-54.25 642,-54.25 682,-54.25 682,-54.25 688,-54.25 694,-60.25 694,-66.25 694,-66.25 694,-81.75 694,-81.75 694,-87.75 688,-93.75 682,-93.75"/>
<text text-anchor="middle" x="662" y="-76.45" font-family="Times,serif" font-size="14.00">Resposta</text>
<text text-anchor="middle" x="662" y="-60.7" font-family="Times,serif" font-size="14.00">Final</text>
</g>
<!-- llm&#45;&gt;resposta -->
<g id="edge6" class="edge">
<title>llm&#45;&gt;resposta</title>
<path fill="none" stroke="black" d="M594.25,-74C602.08,-74 610.4,-74 618.41,-74"/>
<polygon fill="black" stroke="black" points="618.32,-77.5 628.32,-74 618.32,-70.5 618.32,-77.5"/>
</g>
<!-- vectordb -->
<g id="node7" class="node">
<title>vectordb</title>
<path fill="#f0f0ff" stroke="black" d="M215.25,-143.08C215.25,-146.89 195.53,-149.98 171.25,-149.98 146.97,-149.98 127.25,-146.89 127.25,-143.08 127.25,-143.08 127.25,-80.92 127.25,-80.92 127.25,-77.11 146.97,-74.02 171.25,-74.02 195.53,-74.02 215.25,-77.11 215.25,-80.92 215.25,-80.92 215.25,-143.08 215.25,-143.08"/>
<path fill="none" stroke="black" d="M215.25,-143.08C215.25,-139.27 195.53,-136.17 171.25,-136.17 146.97,-136.17 127.25,-139.27 127.25,-143.08"/>
<text text-anchor="middle" x="171.25" y="-122.33" font-family="Times,serif" font-size="14.00">Vector DB</text>
<text text-anchor="middle" x="171.25" y="-106.58" font-family="Times,serif" font-size="14.00">(Embeddings</text>
<text text-anchor="middle" x="171.25" y="-90.83" font-family="Times,serif" font-size="14.00">Indexados)</text>
</g>
<!-- vectordb&#45;&gt;search -->
<g id="edge4" class="edge">
<title>vectordb&#45;&gt;search</title>
<path fill="none" stroke="black" stroke-dasharray="5,2" d="M215.71,-98.71C223.69,-96.27 232.12,-93.69 240.41,-91.15"/>
<polygon fill="black" stroke="black" points="241.18,-94.58 249.72,-88.31 239.14,-87.88 241.18,-94.58"/>
</g>
</g>
</svg>
