<?xml version="1.0" encoding="UTF-8" standalone="no"?>
<!DOCTYPE svg PUBLIC "-//W3C//DTD SVG 1.1//EN"
 "http://www.w3.org/Graphics/SVG/1.1/DTD/svg11.dtd">
<!-- Generated by graphviz version 12.2.1 (20241206.2353)
 -->
<!-- Title: ResumoIA Pages: 1 -->
<svg width="579pt" height="325pt"
 viewBox="0.00 0.00 579.00 324.50" xmlns="http://www.w3.org/2000/svg" xmlns:xlink="http://www.w3.org/1999/xlink">
<g id="graph0" class="graph" transform="scale(1 1) rotate(0) translate(4 320.5)">
<title>ResumoIA</title>
<polygon fill="white" stroke="none" points="-4,4 -4,-320.5 575,-320.5 575,4 -4,4"/>
<g id="clust1" class="cluster">
<title>cluster_modelos</title>
<path fill="none" stroke="black" d="M109,-126.75C109,-126.75 239,-126.75 239,-126.75 245,-126.75 251,-132.75 251,-138.75 251,-138.75 251,-225.5 251,-225.5 251,-231.5 245,-237.5 239,-237.5 239,-237.5 109,-237.5 109,-237.5 103,-237.5 97,-231.5 97,-225.5 97,-225.5 97,-138.75 97,-138.75 97,-132.75 103,-126.75 109,-126.75"/>
<text text-anchor="middle" x="174" y="-220.2" font-family="Times,serif" font-size="14.00">Modelos Discriminativos</text>
</g>
<g id="clust2" class="cluster">
<title>cluster_sistemas</title>
<path fill="none" stroke="black" d="M271,-111C271,-111 377,-111 377,-111 383,-111 389,-117 389,-123 389,-123 389,-241.25 389,-241.25 389,-247.25 383,-253.25 377,-253.25 377,-253.25 271,-253.25 271,-253.25 265,-253.25 259,-247.25 259,-241.25 259,-241.25 259,-123 259,-123 259,-117 265,-111 271,-111"/>
<text text-anchor="middle" x="324" y="-235.95" font-family="Times,serif" font-size="14.00">Sistemas Autônomos</text>
</g>
<g id="clust3" class="cluster">
<title>cluster_tecnicas</title>
<path fill="none" stroke="black" d="M409,-126.75C409,-126.75 551,-126.75 551,-126.75 557,-126.75 563,-132.75 563,-138.75 563,-138.75 563,-225.5 563,-225.5 563,-231.5 557,-237.5 551,-237.5 551,-237.5 409,-237.5 409,-237.5 403,-237.5 397,-231.5 397,-225.5 397,-225.5 397,-138.75 397,-138.75 397,-132.75 403,-126.75 409,-126.75"/>
<text text-anchor="middle" x="480" y="-220.2" font-family="Times,serif" font-size="14.00">Técnicas Específicas</text>
</g>
<g id="clust4" class="cluster">
<title>cluster_techs</title>
<path fill="none" stroke="black" d="M20,-8C20,-8 311,-8 311,-8 317,-8 323,-14 323,-20 323,-20 323,-91 323,-91 323,-97 317,-103 311,-103 311,-103 20,-103 20,-103 14,-103 8,-97 8,-91 8,-91 8,-20 8,-20 8,-14 14,-8 20,-8"/>
<text text-anchor="middle" x="165.5" y="-85.7" font-family="Times,serif" font-size="14.00">Tecnologias Habilitadoras</text>
</g>
<!-- ia -->
<g id="node1" class="node">
<title>ia</title>
<polygon fill="#e0e0ff" stroke="black" stroke-width="2" points="394.25,-316.5 253.75,-316.5 253.75,-261.25 394.25,-261.25 394.25,-316.5"/>
<text text-anchor="middle" x="324" y="-299.2" font-family="Times,serif" font-size="14.00">IA</text>
<text text-anchor="middle" x="324" y="-283.45" font-family="Times,serif" font-size="14.00">(Inteligência Artificial)</text>
<text text-anchor="middle" x="324" y="-267.7" font-family="Times,serif" font-size="14.00">Campo Geral</text>
</g>
<!-- llm -->
<g id="node2" class="node">
<title>llm</title>
<path fill="#f0f0ff" stroke="black" d="M230.75,-205.75C230.75,-205.75 117.25,-205.75 117.25,-205.75 111.25,-205.75 105.25,-199.75 105.25,-193.75 105.25,-193.75 105.25,-146.75 105.25,-146.75 105.25,-140.75 111.25,-134.75 117.25,-134.75 117.25,-134.75 230.75,-134.75 230.75,-134.75 236.75,-134.75 242.75,-140.75 242.75,-146.75 242.75,-146.75 242.75,-193.75 242.75,-193.75 242.75,-199.75 236.75,-205.75 230.75,-205.75"/>
<text text-anchor="middle" x="174" y="-188.45" font-family="Times,serif" font-size="14.00">LLM</text>
<text text-anchor="middle" x="174" y="-172.7" font-family="Times,serif" font-size="14.00">(Language Model)</text>
<text text-anchor="middle" x="174" y="-156.95" font-family="Times,serif" font-size="14.00">&#45; Prevê tokens</text>
<text text-anchor="middle" x="174" y="-141.2" font-family="Times,serif" font-size="14.00">&#45; Base para aplicações</text>
</g>
<!-- ia&#45;&gt;llm -->
<g id="edge1" class="edge">
<title>ia&#45;&gt;llm</title>
<path fill="none" stroke="black" d="M266.65,-260.96C262.61,-258.51 258.69,-255.93 255,-253.25 239.58,-242.05 224.43,-227.83 211.47,-214.4"/>
<polygon fill="black" stroke="black" points="214.15,-212.14 204.74,-207.27 209.06,-216.94 214.15,-212.14"/>
</g>
<!-- agente -->
<g id="node3" class="node">
<title>agente</title>
<path fill="#f0f0ff" stroke="black" d="M362,-221.5C362,-221.5 286,-221.5 286,-221.5 280,-221.5 274,-215.5 274,-209.5 274,-209.5 274,-131 274,-131 274,-125 280,-119 286,-119 286,-119 362,-119 362,-119 368,-119 374,-125 374,-131 374,-131 374,-209.5 374,-209.5 374,-215.5 368,-221.5 362,-221.5"/>
<text text-anchor="middle" x="324" y="-204.2" font-family="Times,serif" font-size="14.00">Agente</text>
<text text-anchor="middle" x="324" y="-188.45" font-family="Times,serif" font-size="14.00">(LLM + Tools)</text>
<text text-anchor="middle" x="324" y="-172.7" font-family="Times,serif" font-size="14.00">&#45; Percebe</text>
<text text-anchor="middle" x="324" y="-156.95" font-family="Times,serif" font-size="14.00">&#45; Raciocina</text>
<text text-anchor="middle" x="324" y="-141.2" font-family="Times,serif" font-size="14.00">&#45; Age</text>
<text text-anchor="middle" x="324" y="-125.45" font-family="Times,serif" font-size="14.00">&#45; Lembra</text>
</g>
<!-- ia&#45;&gt;agente -->
<g id="edge2" class="edge">
<title>ia&#45;&gt;agente</title>
<path fill="none" stroke="black" d="M324,-260.83C324,-252.51 324,-242.98 324,-233.32"/>
<polygon fill="black" stroke="black" points="327.5,-233.49 324,-223.49 320.5,-233.49 327.5,-233.49"/>
</g>
<!-- rag -->
<g id="node4" class="node">
<title>rag</title>
<path fill="#f0f0ff" stroke="black" d="M542.75,-205.75C542.75,-205.75 417.25,-205.75 417.25,-205.75 411.25,-205.75 405.25,-199.75 405.25,-193.75 405.25,-193.75 405.25,-146.75 405.25,-146.75 405.25,-140.75 411.25,-134.75 417.25,-134.75 417.25,-134.75 542.75,-134.75 542.75,-134.75 548.75,-134.75 554.75,-140.75 554.75,-146.75 554.75,-146.75 554.75,-193.75 554.75,-193.75 554.75,-199.75 548.75,-205.75 542.75,-205.75"/>
<text text-anchor="middle" x="480" y="-188.45" font-family="Times,serif" font-size="14.00">RAG</text>
<text text-anchor="middle" x="480" y="-172.7" font-family="Times,serif" font-size="14.00">(Retrieval + Generation)</text>
<text text-anchor="middle" x="480" y="-156.95" font-family="Times,serif" font-size="14.00">&#45; Busca docs</text>
<text text-anchor="middle" x="480" y="-141.2" font-family="Times,serif" font-size="14.00">&#45; Injeta contexto</text>
</g>
<!-- ia&#45;&gt;rag -->
<g id="edge3" class="edge">
<title>ia&#45;&gt;rag</title>
<path fill="none" stroke="black" d="M381.25,-260.81C385.31,-258.39 389.27,-255.86 393,-253.25 409.35,-241.81 425.69,-227.4 439.72,-213.86"/>
<polygon fill="black" stroke="black" points="441.94,-216.59 446.62,-207.08 437.03,-211.6 441.94,-216.59"/>
</g>
<!-- embedding_tech -->
<g id="node5" class="node">
<title>embedding_tech</title>
<path fill="#ffffe0" stroke="black" d="M103.62,-71.25C103.62,-71.25 28.38,-71.25 28.38,-71.25 22.38,-71.25 16.38,-65.25 16.38,-59.25 16.38,-59.25 16.38,-28 16.38,-28 16.38,-22 22.38,-16 28.38,-16 28.38,-16 103.62,-16 103.62,-16 109.62,-16 115.62,-22 115.62,-28 115.62,-28 115.62,-59.25 115.62,-59.25 115.62,-65.25 109.62,-71.25 103.62,-71.25"/>
<text text-anchor="middle" x="66" y="-53.95" font-family="Times,serif" font-size="14.00">Embedding</text>
<text text-anchor="middle" x="66" y="-38.2" font-family="Times,serif" font-size="14.00">(Representação</text>
<text text-anchor="middle" x="66" y="-22.45" font-family="Times,serif" font-size="14.00">Vetorial)</text>
</g>
<!-- llm&#45;&gt;embedding_tech -->
<g id="edge4" class="edge">
<title>llm&#45;&gt;embedding_tech</title>
<path fill="none" stroke="black" stroke-dasharray="5,2" d="M143.92,-134.53C129.25,-117.61 111.63,-97.27 96.86,-80.23"/>
<polygon fill="black" stroke="black" points="99.61,-78.06 90.41,-72.8 94.32,-82.65 99.61,-78.06"/>
</g>
<!-- vectordb -->
<g id="node6" class="node">
<title>vectordb</title>
<path fill="#ffffe0" stroke="black" d="M202.25,-63.38C202.25,-63.38 145.75,-63.38 145.75,-63.38 139.75,-63.38 133.75,-57.38 133.75,-51.38 133.75,-51.38 133.75,-35.88 133.75,-35.88 133.75,-29.88 139.75,-23.88 145.75,-23.88 145.75,-23.88 202.25,-23.88 202.25,-23.88 208.25,-23.88 214.25,-29.88 214.25,-35.88 214.25,-35.88 214.25,-51.38 214.25,-51.38 214.25,-57.38 208.25,-63.38 202.25,-63.38"/>
<text text-anchor="middle" x="174" y="-46.08" font-family="Times,serif" font-size="14.00">Vector DB</text>
<text text-anchor="middle" x="174" y="-30.32" font-family="Times,serif" font-size="14.00">(Indexação)</text>
</g>
<!-- llm&#45;&gt;vectordb -->
<g id="edge5" class="edge">
<title>llm&#45;&gt;vectordb</title>
<path fill="none" stroke="black" stroke-dasharray="5,2" d="M174,-134.53C174,-115.84 174,-92.98 174,-75"/>
<polygon fill="black" stroke="black" points="177.5,-75.22 174,-65.22 170.5,-75.22 177.5,-75.22"/>
</g>
<!-- finetuning -->
<g id="node7" class="node">
<title>finetuning</title>
<path fill="#ffffe0" stroke="black" d="M303.38,-63.38C303.38,-63.38 244.62,-63.38 244.62,-63.38 238.62,-63.38 232.62,-57.38 232.62,-51.38 232.62,-51.38 232.62,-35.88 232.62,-35.88 232.62,-29.88 238.62,-23.88 244.62,-23.88 244.62,-23.88 303.38,-23.88 303.38,-23.88 309.38,-23.88 315.38,-29.88 315.38,-35.88 315.38,-35.88 315.38,-51.38 315.38,-51.38 315.38,-57.38 309.38,-63.38 303.38,-63.38"/>
<text text-anchor="middle" x="274" y="-46.08" font-family="Times,serif" font-size="14.00">Fine&#45;tuning</text>
<text text-anchor="middle" x="274" y="-30.32" font-family="Times,serif" font-size="14.00">(Adaptação)</text>
</g>
<!-- llm&#45;&gt;finetuning -->
<g id="edge6" class="edge">
<title>llm&#45;&gt;finetuning</title>
<path fill="none" stroke="black" stroke-dasharray="5,2" d="M201.86,-134.53C217.58,-114.94 236.96,-90.79 251.67,-72.45"/>
<polygon fill="black" stroke="black" points="254.22,-74.87 257.74,-64.88 248.76,-70.49 254.22,-74.87"/>
</g>
</g>
</svg>
