<?xml version="1.0" encoding="UTF-8" standalone="no"?>
<!DOCTYPE svg PUBLIC "-//W3C//DTD SVG 1.1//EN"
 "http://www.w3.org/Graphics/SVG/1.1/DTD/svg11.dtd">
<!-- Generated by graphviz version 12.2.1 (20241206.2353)
 -->
<!-- Title: CicloFerramenta Pages: 1 -->
<svg width="406pt" height="508pt"
 viewBox="0.00 0.00 406.38 507.50" xmlns="http://www.w3.org/2000/svg" xmlns:xlink="http://www.w3.org/1999/xlink">
<g id="graph0" class="graph" transform="scale(1 1) rotate(0) translate(4 503.5)">
<title>CicloFerramenta</title>
<polygon fill="white" stroke="none" points="-4,4 -4,-503.5 402.38,-503.5 402.38,4 -4,4"/>
<!-- label -->
<g id="node1" class="node">
<title>label</title>
<polygon fill="#e0e0ff" stroke="black" stroke-width="2" points="230.5,-474 0,-474 0,-438 230.5,-438 230.5,-474"/>
<text text-anchor="middle" x="115.25" y="-450.57" font-family="Times,serif" font-size="14.00">CICLO DE USO DE FERRAMENTA</text>
</g>
<!-- step1 -->
<g id="node2" class="node">
<title>step1</title>
<path fill="#e0e0e0" stroke="black" d="M386.38,-499.5C386.38,-499.5 260.12,-499.5 260.12,-499.5 254.12,-499.5 248.12,-493.5 248.12,-487.5 248.12,-487.5 248.12,-424.5 248.12,-424.5 248.12,-418.5 254.12,-412.5 260.12,-412.5 260.12,-412.5 386.38,-412.5 386.38,-412.5 392.38,-412.5 398.38,-418.5 398.38,-424.5 398.38,-424.5 398.38,-487.5 398.38,-487.5 398.38,-493.5 392.38,-499.5 386.38,-499.5"/>
<text text-anchor="middle" x="323.25" y="-482.2" font-family="Times,serif" font-size="14.00">1. DESCRIÇÃO</text>
<text text-anchor="middle" x="323.25" y="-450.45" font-family="Times,serif" font-size="14.00">Ferramentas disponíveis:</text>
<text text-anchor="middle" x="323.25" y="-434.7" font-family="Times,serif" font-size="14.00">&quot;Tenho calculadora,</text>
<text text-anchor="middle" x="323.25" y="-418.95" font-family="Times,serif" font-size="14.00">wikipedia, ...&quot;</text>
</g>
<!-- step2 -->
<g id="node3" class="node">
<title>step2</title>
<path fill="#f0f0ff" stroke="black" d="M364.25,-376.5C364.25,-376.5 282.25,-376.5 282.25,-376.5 276.25,-376.5 270.25,-370.5 270.25,-364.5 270.25,-364.5 270.25,-301.5 270.25,-301.5 270.25,-295.5 276.25,-289.5 282.25,-289.5 282.25,-289.5 364.25,-289.5 364.25,-289.5 370.25,-289.5 376.25,-295.5 376.25,-301.5 376.25,-301.5 376.25,-364.5 376.25,-364.5 376.25,-370.5 370.25,-376.5 364.25,-376.5"/>
<text text-anchor="middle" x="323.25" y="-359.2" font-family="Times,serif" font-size="14.00">2. ANÁLISE</text>
<text text-anchor="middle" x="323.25" y="-327.45" font-family="Times,serif" font-size="14.00">LLM Raciocina:</text>
<text text-anchor="middle" x="323.25" y="-311.7" font-family="Times,serif" font-size="14.00">&quot;O usuário quer</text>
<text text-anchor="middle" x="323.25" y="-295.95" font-family="Times,serif" font-size="14.00">calcular...&quot;</text>
</g>
<!-- step1&#45;&gt;step2 -->
<g id="edge1" class="edge">
<title>step1&#45;&gt;step2</title>
<path fill="none" stroke="black" d="M323.25,-412.34C323.25,-404.48 323.25,-396.17 323.25,-388.03"/>
<polygon fill="black" stroke="black" points="326.75,-388.2 323.25,-378.2 319.75,-388.2 326.75,-388.2"/>
</g>
<!-- step3 -->
<g id="node4" class="node">
<title>step3</title>
<path fill="#f0f0ff" stroke="black" d="M377.38,-253.5C377.38,-253.5 269.12,-253.5 269.12,-253.5 263.12,-253.5 257.12,-247.5 257.12,-241.5 257.12,-241.5 257.12,-194.5 257.12,-194.5 257.12,-188.5 263.12,-182.5 269.12,-182.5 269.12,-182.5 377.38,-182.5 377.38,-182.5 383.38,-182.5 389.38,-188.5 389.38,-194.5 389.38,-194.5 389.38,-241.5 389.38,-241.5 389.38,-247.5 383.38,-253.5 377.38,-253.5"/>
<text text-anchor="middle" x="323.25" y="-236.2" font-family="Times,serif" font-size="14.00">3. DECISÃO</text>
<text text-anchor="middle" x="323.25" y="-220.45" font-family="Times,serif" font-size="14.00">PLANO DE AÇÃO:</text>
<text text-anchor="middle" x="323.25" y="-204.7" font-family="Times,serif" font-size="14.00">&quot;Usar calculadora</text>
<text text-anchor="middle" x="323.25" y="-188.95" font-family="Times,serif" font-size="14.00">com &#39;234*987&#39;&quot;</text>
</g>
<!-- step2&#45;&gt;step3 -->
<g id="edge2" class="edge">
<title>step2&#45;&gt;step3</title>
<path fill="none" stroke="black" d="M323.25,-289.28C323.25,-281.39 323.25,-273.11 323.25,-265.12"/>
<polygon fill="black" stroke="black" points="326.75,-265.21 323.25,-255.21 319.75,-265.21 326.75,-265.21"/>
</g>
<!-- step4 -->
<g id="node5" class="node">
<title>step4</title>
<path fill="#f0f0ff" stroke="black" d="M369.88,-146.5C369.88,-146.5 276.62,-146.5 276.62,-146.5 270.62,-146.5 264.62,-140.5 264.62,-134.5 264.62,-134.5 264.62,-103.25 264.62,-103.25 264.62,-97.25 270.62,-91.25 276.62,-91.25 276.62,-91.25 369.88,-91.25 369.88,-91.25 375.88,-91.25 381.88,-97.25 381.88,-103.25 381.88,-103.25 381.88,-134.5 381.88,-134.5 381.88,-140.5 375.88,-146.5 369.88,-146.5"/>
<text text-anchor="middle" x="323.25" y="-129.2" font-family="Times,serif" font-size="14.00">4. EXECUÇÃO</text>
<text text-anchor="middle" x="323.25" y="-113.45" font-family="Times,serif" font-size="14.00">Python executa:</text>
<text text-anchor="middle" x="323.25" y="-97.7" font-family="Times,serif" font-size="14.00">Resultado: 230958</text>
</g>
<!-- step3&#45;&gt;step4 -->
<g id="edge3" class="edge">
<title>step3&#45;&gt;step4</title>
<path fill="none" stroke="black" d="M323.25,-182.21C323.25,-174.38 323.25,-166.04 323.25,-158.08"/>
<polygon fill="black" stroke="black" points="326.75,-158.32 323.25,-148.32 319.75,-158.32 326.75,-158.32"/>
</g>
<!-- step5 -->
<g id="node6" class="node">
<title>step5</title>
<path fill="#e0ffe0" stroke="black" d="M380.75,-55.25C380.75,-55.25 265.75,-55.25 265.75,-55.25 259.75,-55.25 253.75,-49.25 253.75,-43.25 253.75,-43.25 253.75,-12 253.75,-12 253.75,-6 259.75,0 265.75,0 265.75,0 380.75,0 380.75,0 386.75,0 392.75,-6 392.75,-12 392.75,-12 392.75,-43.25 392.75,-43.25 392.75,-49.25 386.75,-55.25 380.75,-55.25"/>
<text text-anchor="middle" x="323.25" y="-37.95" font-family="Times,serif" font-size="14.00">5. RESPOSTA</text>
<text text-anchor="middle" x="323.25" y="-22.2" font-family="Times,serif" font-size="14.00">LLM Formula:</text>
<text text-anchor="middle" x="323.25" y="-6.45" font-family="Times,serif" font-size="14.00">&quot;234 × 987 = 230958&quot;</text>
</g>
<!-- step4&#45;&gt;step5 -->
<g id="edge4" class="edge">
<title>step4&#45;&gt;step5</title>
<path fill="none" stroke="black" d="M323.25,-91.1C323.25,-83.58 323.25,-75.25 323.25,-67.18"/>
<polygon fill="black" stroke="black" points="326.75,-67.21 323.25,-57.21 319.75,-67.21 326.75,-67.21"/>
</g>
</g>
</svg>
