<?xml version="1.0" encoding="UTF-8" standalone="no"?>
<!DOCTYPE svg PUBLIC "-//W3C//DTD SVG 1.1//EN"
 "http://www.w3.org/Graphics/SVG/1.1/DTD/svg11.dtd">
<!-- Generated by graphviz version 12.2.1 (20241206.2353)
 -->
<!-- Title: ClienteServidor Pages: 1 -->
<svg width="461pt" height="128pt"
 viewBox="0.00 0.00 461.38 128.00" xmlns="http://www.w3.org/2000/svg" xmlns:xlink="http://www.w3.org/1999/xlink">
<g id="graph0" class="graph" transform="scale(1 1) rotate(0) translate(4 124)">
<title>ClienteServidor</title>
<polygon fill="white" stroke="none" points="-4,4 -4,-124 457.38,-124 457.38,4 -4,4"/>
<g id="clust1" class="cluster">
<title>cluster_cliente</title>
<path fill="none" stroke="black" d="M19.88,-20C19.88,-20 95.88,-20 95.88,-20 101.88,-20 107.88,-26 107.88,-32 107.88,-32 107.88,-100 107.88,-100 107.88,-106 101.88,-112 95.88,-112 95.88,-112 19.88,-112 19.88,-112 13.88,-112 7.88,-106 7.88,-100 7.88,-100 7.88,-32 7.88,-32 7.88,-26 13.88,-20 19.88,-20"/>
<text text-anchor="middle" x="57.88" y="-94.7" font-family="Times,serif" font-size="14.00">SEU CÓDIGO</text>
<text text-anchor="middle" x="57.88" y="-78.95" font-family="Times,serif" font-size="14.00">(Cliente)</text>
</g>
<g id="clust2" class="cluster">
<title>cluster_servidor</title>
<path fill="none" stroke="black" d="M205.12,-8C205.12,-8 433.38,-8 433.38,-8 439.38,-8 445.38,-14 445.38,-20 445.38,-20 445.38,-88 445.38,-88 445.38,-94 439.38,-100 433.38,-100 433.38,-100 205.12,-100 205.12,-100 199.12,-100 193.12,-94 193.12,-88 193.12,-88 193.12,-20 193.12,-20 193.12,-14 199.12,-8 205.12,-8"/>
<text text-anchor="middle" x="319.25" y="-82.7" font-family="Times,serif" font-size="14.00">SERVIDOR LLM</text>
<text text-anchor="middle" x="319.25" y="-66.95" font-family="Times,serif" font-size="14.00">(Gemini, etc)</text>
</g>
<!-- codigo -->
<g id="node1" class="node">
<title>codigo</title>
<path fill="#e0e0e0" stroke="black" d="M86.75,-64C86.75,-64 28,-64 28,-64 22,-64 16,-58 16,-52 16,-52 16,-40 16,-40 16,-34 22,-28 28,-28 28,-28 86.75,-28 86.75,-28 92.75,-28 98.75,-34 98.75,-40 98.75,-40 98.75,-52 98.75,-52 98.75,-58 92.75,-64 86.75,-64"/>
<text text-anchor="middle" x="57.38" y="-40.58" font-family="Times,serif" font-size="14.00">python code</text>
</g>
<!-- api -->
<g id="node2" class="node">
<title>api</title>
<path fill="#f0f0ff" stroke="black" d="M280.88,-52C280.88,-52 213.12,-52 213.12,-52 207.12,-52 201.12,-46 201.12,-40 201.12,-40 201.12,-28 201.12,-28 201.12,-22 207.12,-16 213.12,-16 213.12,-16 280.88,-16 280.88,-16 286.88,-16 292.88,-22 292.88,-28 292.88,-28 292.88,-40 292.88,-40 292.88,-46 286.88,-52 280.88,-52"/>
<text text-anchor="middle" x="247" y="-28.57" font-family="Times,serif" font-size="14.00">API Endpoint</text>
</g>
<!-- codigo&#45;&gt;api -->
<g id="edge1" class="edge">
<title>codigo&#45;&gt;api</title>
<path fill="none" stroke="black" d="M99.15,-45.09C123.54,-44.37 155.14,-43.12 183.12,-41 185.17,-40.85 187.25,-40.68 189.36,-40.49"/>
<polygon fill="black" stroke="black" points="189.57,-43.99 199.2,-39.57 188.91,-37.02 189.57,-43.99"/>
<text text-anchor="middle" x="150.5" y="-57.45" font-family="Times,serif" font-size="10.00">HTTP Request</text>
<text text-anchor="middle" x="150.5" y="-46.2" font-family="Times,serif" font-size="10.00">(JSON payload)</text>
</g>
<!-- api&#45;&gt;codigo -->
<g id="edge4" class="edge">
<title>api&#45;&gt;codigo</title>
<path fill="none" stroke="black" d="M200.7,-18.19C194.85,-16.67 188.89,-15.37 183.12,-14.5 154.45,-10.16 146.02,-7.51 117.88,-14.5 110.56,-16.32 103.15,-19.22 96.16,-22.54"/>
<polygon fill="black" stroke="black" points="94.92,-19.25 87.63,-26.94 98.12,-25.47 94.92,-19.25"/>
<text text-anchor="middle" x="150.5" y="-27.5" font-family="Times,serif" font-size="10.00">HTTP Response</text>
<text text-anchor="middle" x="150.5" y="-16.25" font-family="Times,serif" font-size="10.00">(JSON result)</text>
</g>
<!-- llm -->
<g id="node3" class="node">
<title>llm</title>
<path fill="#f0f0ff" stroke="black" d="M425.38,-52C425.38,-52 341.88,-52 341.88,-52 335.88,-52 329.88,-46 329.88,-40 329.88,-40 329.88,-28 329.88,-28 329.88,-22 335.88,-16 341.88,-16 341.88,-16 425.38,-16 425.38,-16 431.38,-16 437.38,-22 437.38,-28 437.38,-28 437.38,-40 437.38,-40 437.38,-46 431.38,-52 425.38,-52"/>
<text text-anchor="middle" x="383.62" y="-28.57" font-family="Times,serif" font-size="14.00">LLM Processing</text>
</g>
<!-- api&#45;&gt;llm -->
<g id="edge2" class="edge">
<title>api&#45;&gt;llm</title>
<path fill="none" stroke="black" d="M293.2,-27.58C301.19,-27.33 309.63,-27.22 318.03,-27.25"/>
<polygon fill="black" stroke="black" points="317.84,-30.75 327.87,-27.37 317.91,-23.75 317.84,-30.75"/>
</g>
<!-- llm&#45;&gt;api -->
<g id="edge3" class="edge">
<title>llm&#45;&gt;api</title>
<path fill="none" stroke="black" d="M329.39,-40.62C321.25,-40.77 312.82,-40.79 304.61,-40.67"/>
<polygon fill="black" stroke="black" points="304.79,-37.18 294.72,-40.45 304.63,-44.18 304.79,-37.18"/>
</g>
</g>
</svg>
