<?xml version="1.0" encoding="UTF-8" standalone="no"?>
<!DOCTYPE svg PUBLIC "-//W3C//DTD SVG 1.1//EN"
 "http://www.w3.org/Graphics/SVG/1.1/DTD/svg11.dtd">
<!-- Generated by graphviz version 12.2.1 (20241206.2353)
 -->
<!-- Title: ReAct Pages: 1 -->
<svg width="787pt" height="48pt"
 viewBox="0.00 0.00 787.25 47.50" xmlns="http://www.w3.org/2000/svg" xmlns:xlink="http://www.w3.org/1999/xlink">
<g id="graph0" class="graph" transform="scale(1 1) rotate(0) translate(4 43.5)">
<title>ReAct</title>
<polygon fill="white" stroke="none" points="-4,4 -4,-43.5 783.25,-43.5 783.25,4 -4,4"/>
<!-- input -->
<g id="node1" class="node">
<title>input</title>
<path fill="#e0e0e0" stroke="black" d="M45.25,-37.75C45.25,-37.75 12,-37.75 12,-37.75 6,-37.75 0,-31.75 0,-25.75 0,-25.75 0,-13.75 0,-13.75 0,-7.75 6,-1.75 12,-1.75 12,-1.75 45.25,-1.75 45.25,-1.75 51.25,-1.75 57.25,-7.75 57.25,-13.75 57.25,-13.75 57.25,-25.75 57.25,-25.75 57.25,-31.75 51.25,-37.75 45.25,-37.75"/>
<text text-anchor="middle" x="28.62" y="-14.32" font-family="Times,serif" font-size="14.00">INPUT</text>
</g>
<!-- thought1 -->
<g id="node2" class="node">
<title>thought1</title>
<path fill="#f0f0ff" stroke="black" d="M206,-39.5C206,-39.5 105.25,-39.5 105.25,-39.5 99.25,-39.5 93.25,-33.5 93.25,-27.5 93.25,-27.5 93.25,-12 93.25,-12 93.25,-6 99.25,0 105.25,0 105.25,0 206,0 206,0 212,0 218,-6 218,-12 218,-12 218,-27.5 218,-27.5 218,-33.5 212,-39.5 206,-39.5"/>
<text text-anchor="middle" x="155.62" y="-22.2" font-family="Times,serif" font-size="14.00">THOUGHT</text>
<text text-anchor="middle" x="155.62" y="-6.45" font-family="Times,serif" font-size="14.00">&quot;Preciso calcular...&quot;</text>
</g>
<!-- input&#45;&gt;thought1 -->
<g id="edge1" class="edge">
<title>input&#45;&gt;thought1</title>
<path fill="none" stroke="black" d="M57.68,-19.75C64.98,-19.75 73.21,-19.75 81.69,-19.75"/>
<polygon fill="black" stroke="black" points="81.43,-23.25 91.43,-19.75 81.43,-16.25 81.43,-23.25"/>
</g>
<!-- action -->
<g id="node3" class="node">
<title>action</title>
<path fill="#f0f0ff" stroke="black" d="M344.25,-39.5C344.25,-39.5 266,-39.5 266,-39.5 260,-39.5 254,-33.5 254,-27.5 254,-27.5 254,-12 254,-12 254,-6 260,0 266,0 266,0 344.25,0 344.25,0 350.25,0 356.25,-6 356.25,-12 356.25,-12 356.25,-27.5 356.25,-27.5 356.25,-33.5 350.25,-39.5 344.25,-39.5"/>
<text text-anchor="middle" x="305.12" y="-22.2" font-family="Times,serif" font-size="14.00">ACTION</text>
<text text-anchor="middle" x="305.12" y="-6.45" font-family="Times,serif" font-size="14.00"> calculadora[...]</text>
</g>
<!-- thought1&#45;&gt;action -->
<g id="edge2" class="edge">
<title>thought1&#45;&gt;action</title>
<path fill="none" stroke="black" d="M218.32,-19.75C226.28,-19.75 234.43,-19.75 242.38,-19.75"/>
<polygon fill="black" stroke="black" points="242.35,-23.25 252.35,-19.75 242.35,-16.25 242.35,-23.25"/>
</g>
<!-- obs -->
<g id="node4" class="node">
<title>obs</title>
<path fill="#f0f0ff" stroke="black" d="M493,-39.5C493,-39.5 404.25,-39.5 404.25,-39.5 398.25,-39.5 392.25,-33.5 392.25,-27.5 392.25,-27.5 392.25,-12 392.25,-12 392.25,-6 398.25,0 404.25,0 404.25,0 493,0 493,0 499,0 505,-6 505,-12 505,-12 505,-27.5 505,-27.5 505,-33.5 499,-39.5 493,-39.5"/>
<text text-anchor="middle" x="448.62" y="-22.2" font-family="Times,serif" font-size="14.00">OBSERVATION</text>
<text text-anchor="middle" x="448.62" y="-6.45" font-family="Times,serif" font-size="14.00">Resultado</text>
</g>
<!-- action&#45;&gt;obs -->
<g id="edge3" class="edge">
<title>action&#45;&gt;obs</title>
<path fill="none" stroke="black" d="M356.41,-19.75C364.29,-19.75 372.55,-19.75 380.73,-19.75"/>
<polygon fill="black" stroke="black" points="380.7,-23.25 390.7,-19.75 380.7,-16.25 380.7,-23.25"/>
</g>
<!-- thought2 -->
<g id="node5" class="node">
<title>thought2</title>
<path fill="#f0f0ff" stroke="black" d="M635,-39.5C635,-39.5 553,-39.5 553,-39.5 547,-39.5 541,-33.5 541,-27.5 541,-27.5 541,-12 541,-12 541,-6 547,0 553,0 553,0 635,0 635,0 641,0 647,-6 647,-12 647,-12 647,-27.5 647,-27.5 647,-33.5 641,-39.5 635,-39.5"/>
<text text-anchor="middle" x="594" y="-22.2" font-family="Times,serif" font-size="14.00">THOUGHT</text>
<text text-anchor="middle" x="594" y="-6.45" font-family="Times,serif" font-size="14.00">&quot;Agora posso...&quot;</text>
</g>
<!-- obs&#45;&gt;thought2 -->
<g id="edge4" class="edge">
<title>obs&#45;&gt;thought2</title>
<path fill="none" stroke="black" d="M505.47,-19.75C513.29,-19.75 521.37,-19.75 529.32,-19.75"/>
<polygon fill="black" stroke="black" points="529.31,-23.25 539.31,-19.75 529.31,-16.25 529.31,-23.25"/>
</g>
<!-- answer -->
<g id="node6" class="node">
<title>answer</title>
<path fill="#e0ffe0" stroke="black" d="M767.25,-39.5C767.25,-39.5 695,-39.5 695,-39.5 689,-39.5 683,-33.5 683,-27.5 683,-27.5 683,-12 683,-12 683,-6 689,0 695,0 695,0 767.25,0 767.25,0 773.25,0 779.25,-6 779.25,-12 779.25,-12 779.25,-27.5 779.25,-27.5 779.25,-33.5 773.25,-39.5 767.25,-39.5"/>
<text text-anchor="middle" x="731.12" y="-22.2" font-family="Times,serif" font-size="14.00">ANSWER</text>
<text text-anchor="middle" x="731.12" y="-6.45" font-family="Times,serif" font-size="14.00">Resposta Final</text>
</g>
<!-- thought2&#45;&gt;answer -->
<g id="edge5" class="edge">
<title>thought2&#45;&gt;answer</title>
<path fill="none" stroke="black" d="M647.24,-19.75C655.22,-19.75 663.49,-19.75 671.59,-19.75"/>
<polygon fill="black" stroke="black" points="671.36,-23.25 681.36,-19.75 671.36,-16.25 671.36,-23.25"/>
</g>
</g>
</svg>
