<?xml version="1.0" encoding="UTF-8" standalone="no"?>
<!DOCTYPE svg PUBLIC "-//W3C//DTD SVG 1.1//EN"
 "http://www.w3.org/Graphics/SVG/1.1/DTD/svg11.dtd">
<!-- Generated by graphviz version 12.2.1 (20241206.2353)
 -->
<!-- Title: DecisaoModelo Pages: 1 -->
<svg width="528pt" height="512pt"
 viewBox="0.00 0.00 527.50 512.00" xmlns="http://www.w3.org/2000/svg" xmlns:xlink="http://www.w3.org/1999/xlink">
<g id="graph0" class="graph" transform="scale(1 1) rotate(0) translate(4 508)">
<title>DecisaoModelo</title>
<polygon fill="white" stroke="none" points="-4,4 -4,-508 523.5,-508 523.5,4 -4,4"/>
<g id="clust1" class="cluster">
<title>cluster_step1</title>
<path fill="none" stroke="black" d="M155.5,-361.5C155.5,-361.5 499.5,-361.5 499.5,-361.5 505.5,-361.5 511.5,-367.5 511.5,-373.5 511.5,-373.5 511.5,-428.75 511.5,-428.75 511.5,-434.75 505.5,-440.75 499.5,-440.75 499.5,-440.75 155.5,-440.75 155.5,-440.75 149.5,-440.75 143.5,-434.75 143.5,-428.75 143.5,-428.75 143.5,-373.5 143.5,-373.5 143.5,-367.5 149.5,-361.5 155.5,-361.5"/>
<text text-anchor="middle" x="327.5" y="-423.45" font-family="Times,serif" font-size="14.00">Step 1: Parsing da pergunta</text>
</g>
<g id="clust2" class="cluster">
<title>cluster_step2</title>
<path fill="none" stroke="black" d="M54.5,-202.25C54.5,-202.25 426.5,-202.25 426.5,-202.25 432.5,-202.25 438.5,-208.25 438.5,-214.25 438.5,-214.25 438.5,-341.5 438.5,-341.5 438.5,-347.5 432.5,-353.5 426.5,-353.5 426.5,-353.5 54.5,-353.5 54.5,-353.5 48.5,-353.5 42.5,-347.5 42.5,-341.5 42.5,-341.5 42.5,-214.25 42.5,-214.25 42.5,-208.25 48.5,-202.25 54.5,-202.25"/>
<text text-anchor="middle" x="240.5" y="-336.2" font-family="Times,serif" font-size="14.00">Step 2: Análise das ferramentas</text>
</g>
<g id="clust3" class="cluster">
<title>cluster_step3</title>
<path fill="none" stroke="black" d="M130.5,-8C130.5,-8 354.5,-8 354.5,-8 360.5,-8 366.5,-14 366.5,-20 366.5,-20 366.5,-182.25 366.5,-182.25 366.5,-188.25 360.5,-194.25 354.5,-194.25 354.5,-194.25 130.5,-194.25 130.5,-194.25 124.5,-194.25 118.5,-188.25 118.5,-182.25 118.5,-182.25 118.5,-20 118.5,-20 118.5,-14 124.5,-8 130.5,-8"/>
<text text-anchor="middle" x="242.5" y="-176.95" font-family="Times,serif" font-size="14.00">Step 3: Geração do plano</text>
</g>
<!-- label -->
<g id="node1" class="node">
<title>label</title>
<polygon fill="#e0e0ff" stroke="black" stroke-width="2" points="241,-494.38 0,-494.38 0,-458.38 241,-458.38 241,-494.38"/>
<text text-anchor="middle" x="120.5" y="-470.95" font-family="Times,serif" font-size="14.00">DECISÃO DO MODELO (Inside LLM)</text>
</g>
<!-- input -->
<g id="node2" class="node">
<title>input</title>
<path fill="#e0e0e0" stroke="black" d="M399.75,-504C399.75,-504 271.25,-504 271.25,-504 265.25,-504 259.25,-498 259.25,-492 259.25,-492 259.25,-460.75 259.25,-460.75 259.25,-454.75 265.25,-448.75 271.25,-448.75 271.25,-448.75 399.75,-448.75 399.75,-448.75 405.75,-448.75 411.75,-454.75 411.75,-460.75 411.75,-460.75 411.75,-492 411.75,-492 411.75,-498 405.75,-504 399.75,-504"/>
<text text-anchor="middle" x="335.5" y="-486.7" font-family="Times,serif" font-size="14.00">INPUT:</text>
<text text-anchor="middle" x="335.5" y="-470.95" font-family="Times,serif" font-size="14.00">&quot;Quem foi Ada Lovelace</text>
<text text-anchor="middle" x="335.5" y="-455.2" font-family="Times,serif" font-size="14.00">quando ela nasceu?&quot;</text>
</g>
<!-- parse1 -->
<g id="node3" class="node">
<title>parse1</title>
<path fill="#f0f0ff" stroke="black" d="M321.75,-409C321.75,-409 163.25,-409 163.25,-409 157.25,-409 151.25,-403 151.25,-397 151.25,-397 151.25,-381.5 151.25,-381.5 151.25,-375.5 157.25,-369.5 163.25,-369.5 163.25,-369.5 321.75,-369.5 321.75,-369.5 327.75,-369.5 333.75,-375.5 333.75,-381.5 333.75,-381.5 333.75,-397 333.75,-397 333.75,-403 327.75,-409 321.75,-409"/>
<text text-anchor="middle" x="242.5" y="-391.7" font-family="Times,serif" font-size="14.00">&#45; &quot;Quem foi Ada Lovelace&quot; →</text>
<text text-anchor="middle" x="242.5" y="-375.95" font-family="Times,serif" font-size="14.00"> &#160;informação biográfica</text>
</g>
<!-- input&#45;&gt;parse1 -->
<g id="edge1" class="edge">
<title>input&#45;&gt;parse1</title>
<path fill="none" stroke="black" d="M306.07,-448.44C295.16,-438.45 282.78,-427.12 271.87,-417.13"/>
<polygon fill="black" stroke="black" points="274.34,-414.65 264.6,-410.48 269.62,-419.82 274.34,-414.65"/>
</g>
<!-- parse2 -->
<g id="node4" class="node">
<title>parse2</title>
<path fill="#f0f0ff" stroke="black" d="M491,-409C491,-409 364,-409 364,-409 358,-409 352,-403 352,-397 352,-397 352,-381.5 352,-381.5 352,-375.5 358,-369.5 364,-369.5 364,-369.5 491,-369.5 491,-369.5 497,-369.5 503,-375.5 503,-381.5 503,-381.5 503,-397 503,-397 503,-403 497,-409 491,-409"/>
<text text-anchor="middle" x="427.5" y="-391.7" font-family="Times,serif" font-size="14.00">&#45; &quot;quando ela nasceu&quot; →</text>
<text text-anchor="middle" x="427.5" y="-375.95" font-family="Times,serif" font-size="14.00"> &#160;data</text>
</g>
<!-- input&#45;&gt;parse2 -->
<g id="edge2" class="edge">
<title>input&#45;&gt;parse2</title>
<path fill="none" stroke="black" d="M364.61,-448.44C375.41,-438.45 387.65,-427.12 398.45,-417.13"/>
<polygon fill="black" stroke="black" points="400.66,-419.85 405.63,-410.49 395.91,-414.71 400.66,-419.85"/>
</g>
<!-- calc -->
<g id="node5" class="node">
<title>calc</title>
<path fill="#ffe0e0" stroke="black" d="M162.5,-321.75C162.5,-321.75 62.5,-321.75 62.5,-321.75 56.5,-321.75 50.5,-315.75 50.5,-309.75 50.5,-309.75 50.5,-294.25 50.5,-294.25 50.5,-288.25 56.5,-282.25 62.5,-282.25 62.5,-282.25 162.5,-282.25 162.5,-282.25 168.5,-282.25 174.5,-288.25 174.5,-294.25 174.5,-294.25 174.5,-309.75 174.5,-309.75 174.5,-315.75 168.5,-321.75 162.5,-321.75"/>
<text text-anchor="middle" x="112.5" y="-304.45" font-family="Times,serif" font-size="14.00">calculadora</text>
<text text-anchor="middle" x="112.5" y="-288.7" font-family="Times,serif" font-size="14.00">Resolve matemática</text>
</g>
<!-- parse1&#45;&gt;calc -->
<g id="edge3" class="edge">
<title>parse1&#45;&gt;calc</title>
<path fill="none" stroke="black" d="M208.81,-369.08C200.45,-364.14 191.58,-358.74 183.5,-353.5 171.5,-345.72 158.68,-336.8 147.29,-328.64"/>
<polygon fill="black" stroke="black" points="149.48,-325.91 139.32,-322.9 145.39,-331.59 149.48,-325.91"/>
</g>
<!-- hora -->
<g id="node7" class="node">
<title>hora</title>
<path fill="#ffe0e0" stroke="black" d="M280.5,-321.75C280.5,-321.75 204.5,-321.75 204.5,-321.75 198.5,-321.75 192.5,-315.75 192.5,-309.75 192.5,-309.75 192.5,-294.25 192.5,-294.25 192.5,-288.25 198.5,-282.25 204.5,-282.25 204.5,-282.25 280.5,-282.25 280.5,-282.25 286.5,-282.25 292.5,-288.25 292.5,-294.25 292.5,-294.25 292.5,-309.75 292.5,-309.75 292.5,-315.75 286.5,-321.75 280.5,-321.75"/>
<text text-anchor="middle" x="242.5" y="-304.45" font-family="Times,serif" font-size="14.00">horario</text>
<text text-anchor="middle" x="242.5" y="-288.7" font-family="Times,serif" font-size="14.00">Data/hora atual</text>
</g>
<!-- parse1&#45;&gt;hora -->
<g id="edge4" class="edge">
<title>parse1&#45;&gt;hora</title>
<path fill="none" stroke="black" d="M242.5,-369.33C242.5,-358.81 242.5,-345.46 242.5,-333.5"/>
<polygon fill="black" stroke="black" points="246,-333.68 242.5,-323.68 239,-333.68 246,-333.68"/>
</g>
<!-- wiki -->
<g id="node9" class="node">
<title>wiki</title>
<path fill="#e0ffe0" stroke="black" d="M418.25,-321.75C418.25,-321.75 322.75,-321.75 322.75,-321.75 316.75,-321.75 310.75,-315.75 310.75,-309.75 310.75,-309.75 310.75,-294.25 310.75,-294.25 310.75,-288.25 316.75,-282.25 322.75,-282.25 322.75,-282.25 418.25,-282.25 418.25,-282.25 424.25,-282.25 430.25,-288.25 430.25,-294.25 430.25,-294.25 430.25,-309.75 430.25,-309.75 430.25,-315.75 424.25,-321.75 418.25,-321.75"/>
<text text-anchor="middle" x="370.5" y="-304.45" font-family="Times,serif" font-size="14.00">wikipedia</text>
<text text-anchor="middle" x="370.5" y="-288.7" font-family="Times,serif" font-size="14.00">Busca informações</text>
</g>
<!-- parse1&#45;&gt;wiki -->
<g id="edge5" class="edge">
<title>parse1&#45;&gt;wiki</title>
<path fill="none" stroke="black" d="M276.24,-369.16C284.6,-364.22 293.46,-358.79 301.5,-353.5 313.22,-345.79 325.7,-336.88 336.77,-328.72"/>
<polygon fill="black" stroke="black" points="338.54,-331.76 344.48,-322.98 334.36,-326.15 338.54,-331.76"/>
</g>
<!-- calc_status -->
<g id="node6" class="node">
<title>calc_status</title>
<path fill="#ffe0e0" stroke="black" d="M156.5,-246.25C156.5,-246.25 74.5,-246.25 74.5,-246.25 68.5,-246.25 62.5,-240.25 62.5,-234.25 62.5,-234.25 62.5,-222.25 62.5,-222.25 62.5,-216.25 68.5,-210.25 74.5,-210.25 74.5,-210.25 156.5,-210.25 156.5,-210.25 162.5,-210.25 168.5,-216.25 168.5,-222.25 168.5,-222.25 168.5,-234.25 168.5,-234.25 168.5,-240.25 162.5,-246.25 156.5,-246.25"/>
<text text-anchor="middle" x="115.5" y="-222.82" font-family="Times,serif" font-size="14.00">❌ Não relevante</text>
</g>
<!-- calc&#45;&gt;calc_status -->
<g id="edge6" class="edge">
<title>calc&#45;&gt;calc_status</title>
<path fill="none" stroke="black" d="M113.3,-281.77C113.61,-274.41 113.97,-265.84 114.31,-257.79"/>
<polygon fill="black" stroke="black" points="117.79,-258.22 114.71,-248.08 110.8,-257.92 117.79,-258.22"/>
</g>
<!-- thought -->
<g id="node11" class="node">
<title>thought</title>
<path fill="#f0f0ff" stroke="black" d="M321,-162.5C321,-162.5 164,-162.5 164,-162.5 158,-162.5 152,-156.5 152,-150.5 152,-150.5 152,-103.5 152,-103.5 152,-97.5 158,-91.5 164,-91.5 164,-91.5 321,-91.5 321,-91.5 327,-91.5 333,-97.5 333,-103.5 333,-103.5 333,-150.5 333,-150.5 333,-156.5 327,-162.5 321,-162.5"/>
<text text-anchor="middle" x="242.5" y="-145.2" font-family="Times,serif" font-size="14.00">Thought: Ada Lovelace é uma</text>
<text text-anchor="middle" x="242.5" y="-129.45" font-family="Times,serif" font-size="14.00">pessoa histórica. Preciso</text>
<text text-anchor="middle" x="242.5" y="-113.7" font-family="Times,serif" font-size="14.00">buscar informações sobre ela</text>
<text text-anchor="middle" x="242.5" y="-97.95" font-family="Times,serif" font-size="14.00">na Wikipedia.</text>
</g>
<!-- calc_status&#45;&gt;thought -->
<g id="edge9" class="edge">
<title>calc_status&#45;&gt;thought</title>
<path fill="none" stroke="black" d="M137.62,-209.96C151.85,-198.84 170.99,-183.88 189.03,-169.79"/>
<polygon fill="black" stroke="black" points="190.85,-172.81 196.57,-163.89 186.54,-167.29 190.85,-172.81"/>
</g>
<!-- hora_status -->
<g id="node8" class="node">
<title>hora_status</title>
<path fill="#ffe0e0" stroke="black" d="M283.5,-246.25C283.5,-246.25 201.5,-246.25 201.5,-246.25 195.5,-246.25 189.5,-240.25 189.5,-234.25 189.5,-234.25 189.5,-222.25 189.5,-222.25 189.5,-216.25 195.5,-210.25 201.5,-210.25 201.5,-210.25 283.5,-210.25 283.5,-210.25 289.5,-210.25 295.5,-216.25 295.5,-222.25 295.5,-222.25 295.5,-234.25 295.5,-234.25 295.5,-240.25 289.5,-246.25 283.5,-246.25"/>
<text text-anchor="middle" x="242.5" y="-222.82" font-family="Times,serif" font-size="14.00">❌ Não relevante</text>
</g>
<!-- hora&#45;&gt;hora_status -->
<g id="edge7" class="edge">
<title>hora&#45;&gt;hora_status</title>
<path fill="none" stroke="black" d="M242.5,-281.77C242.5,-274.5 242.5,-266.04 242.5,-258.08"/>
<polygon fill="black" stroke="black" points="246,-258.08 242.5,-248.08 239,-258.08 246,-258.08"/>
</g>
<!-- hora_status&#45;&gt;thought -->
<g id="edge10" class="edge">
<title>hora_status&#45;&gt;thought</title>
<path fill="none" stroke="black" d="M242.5,-209.96C242.5,-200.01 242.5,-186.99 242.5,-174.26"/>
<polygon fill="black" stroke="black" points="246,-174.27 242.5,-164.27 239,-174.27 246,-174.27"/>
</g>
<!-- wiki_status -->
<g id="node10" class="node">
<title>wiki_status</title>
<path fill="#e0ffe0" stroke="black" d="M413.12,-246.25C413.12,-246.25 325.88,-246.25 325.88,-246.25 319.88,-246.25 313.88,-240.25 313.88,-234.25 313.88,-234.25 313.88,-222.25 313.88,-222.25 313.88,-216.25 319.88,-210.25 325.88,-210.25 325.88,-210.25 413.12,-210.25 413.12,-210.25 419.12,-210.25 425.12,-216.25 425.12,-222.25 425.12,-222.25 425.12,-234.25 425.12,-234.25 425.12,-240.25 419.12,-246.25 413.12,-246.25"/>
<text text-anchor="middle" x="369.5" y="-222.82" font-family="Times,serif" font-size="14.00">✅ RELEVANTE</text>
</g>
<!-- wiki&#45;&gt;wiki_status -->
<g id="edge8" class="edge">
<title>wiki&#45;&gt;wiki_status</title>
<path fill="none" stroke="black" d="M370.23,-281.77C370.13,-274.5 370.01,-266.04 369.9,-258.08"/>
<polygon fill="black" stroke="black" points="373.4,-258.03 369.76,-248.08 366.4,-258.13 373.4,-258.03"/>
</g>
<!-- wiki_status&#45;&gt;thought -->
<g id="edge11" class="edge">
<title>wiki_status&#45;&gt;thought</title>
<path fill="none" stroke="black" d="M347.38,-209.96C333.15,-198.84 314.01,-183.88 295.97,-169.79"/>
<polygon fill="black" stroke="black" points="298.46,-167.29 288.43,-163.89 294.15,-172.81 298.46,-167.29"/>
</g>
<!-- action -->
<g id="node12" class="node">
<title>action</title>
<path fill="#e0ffe0" stroke="black" d="M346.5,-55.5C346.5,-55.5 138.5,-55.5 138.5,-55.5 132.5,-55.5 126.5,-49.5 126.5,-43.5 126.5,-43.5 126.5,-28 126.5,-28 126.5,-22 132.5,-16 138.5,-16 138.5,-16 346.5,-16 346.5,-16 352.5,-16 358.5,-22 358.5,-28 358.5,-28 358.5,-43.5 358.5,-43.5 358.5,-49.5 352.5,-55.5 346.5,-55.5"/>
<text text-anchor="middle" x="242.5" y="-38.2" font-family="Times,serif" font-size="14.00">Action: wikipedia</text>
<text text-anchor="middle" x="242.5" y="-22.45" font-family="Times,serif" font-size="14.00">Arguments: {&quot;termo&quot;: &quot;Ada Lovelace&quot;}</text>
</g>
<!-- thought&#45;&gt;action -->
<g id="edge12" class="edge">
<title>thought&#45;&gt;action</title>
<path fill="none" stroke="black" d="M242.5,-91.24C242.5,-83.34 242.5,-75 242.5,-67.29"/>
<polygon fill="black" stroke="black" points="246,-67.35 242.5,-57.35 239,-67.35 246,-67.35"/>
</g>
</g>
</svg>
