<?xml version="1.0" encoding="UTF-8" standalone="no"?>
<!DOCTYPE svg PUBLIC "-//W3C//DTD SVG 1.1//EN"
 "http://www.w3.org/Graphics/SVG/1.1/DTD/svg11.dtd">
<!-- Generated by graphviz version 12.2.1 (20241206.2353)
 -->
<!-- Title: hierarchy Pages: 1 -->
<svg width="349pt" height="230pt"
 viewBox="0.00 0.00 349.38 230.00" xmlns="http://www.w3.org/2000/svg" xmlns:xlink="http://www.w3.org/1999/xlink">
<g id="graph0" class="graph" transform="scale(1 1) rotate(0) translate(4 226)">
<title>hierarchy</title>
<!-- IA -->
<g id="node1" class="node">
<title>IA</title>
<path fill="#e8e8e8" stroke="black" d="M200,-222C200,-222 130.75,-222 130.75,-222 124.75,-222 118.75,-216 118.75,-210 118.75,-210 118.75,-194.5 118.75,-194.5 118.75,-188.5 124.75,-182.5 130.75,-182.5 130.75,-182.5 200,-182.5 200,-182.5 206,-182.5 212,-188.5 212,-194.5 212,-194.5 212,-210 212,-210 212,-216 206,-222 200,-222"/>
<text text-anchor="middle" x="165.38" y="-204.7" font-family="sans-serif" font-size="14.00">IA</text>
<text text-anchor="middle" x="165.38" y="-188.95" font-family="sans-serif" font-size="14.00">(Intelligence)</text>
</g>
<!-- LLM -->
<g id="node2" class="node">
<title>LLM</title>
<path fill="#d4d4d4" stroke="black" d="M216.88,-146.5C216.88,-146.5 113.88,-146.5 113.88,-146.5 107.88,-146.5 101.88,-140.5 101.88,-134.5 101.88,-134.5 101.88,-119 101.88,-119 101.88,-113 107.88,-107 113.88,-107 113.88,-107 216.88,-107 216.88,-107 222.88,-107 228.88,-113 228.88,-119 228.88,-119 228.88,-134.5 228.88,-134.5 228.88,-140.5 222.88,-146.5 216.88,-146.5"/>
<text text-anchor="middle" x="165.38" y="-129.2" font-family="sans-serif" font-size="14.00">LLM</text>
<text text-anchor="middle" x="165.38" y="-113.45" font-family="sans-serif" font-size="14.00">(Language Model)</text>
</g>
<!-- IA&#45;&gt;LLM -->
<g id="edge1" class="edge">
<title>IA&#45;&gt;LLM</title>
<path fill="none" stroke="#666666" d="M165.38,-182.32C165.38,-175.01 165.38,-166.45 165.38,-158.31"/>
<polygon fill="#666666" stroke="#666666" points="168.88,-158.38 165.38,-148.38 161.88,-158.38 168.88,-158.38"/>
</g>
<!-- RAG -->
<g id="node3" class="node">
<title>RAG</title>
<path fill="#c8e6c9" stroke="black" d="M82.75,-71C82.75,-71 12,-71 12,-71 6,-71 0,-65 0,-59 0,-59 0,-12 0,-12 0,-6 6,0 12,0 12,0 82.75,0 82.75,0 88.75,0 94.75,-6 94.75,-12 94.75,-12 94.75,-59 94.75,-59 94.75,-65 88.75,-71 82.75,-71"/>
<text text-anchor="middle" x="47.38" y="-53.7" font-family="sans-serif" font-size="14.00">RAG</text>
<text text-anchor="middle" x="47.38" y="-37.95" font-family="sans-serif" font-size="14.00">(Retrieval +</text>
<text text-anchor="middle" x="47.38" y="-22.2" font-family="sans-serif" font-size="14.00">Generation +</text>
<text text-anchor="middle" x="47.38" y="-6.45" font-family="sans-serif" font-size="14.00">Memória)</text>
</g>
<!-- LLM&#45;&gt;RAG -->
<g id="edge2" class="edge">
<title>LLM&#45;&gt;RAG</title>
<path fill="none" stroke="#666666" d="M140.06,-106.6C129.06,-98.28 115.7,-88.18 102.6,-78.27"/>
<polygon fill="#666666" stroke="#666666" points="104.89,-75.61 94.8,-72.37 100.67,-81.19 104.89,-75.61"/>
</g>
<!-- Agente -->
<g id="node4" class="node">
<title>Agente</title>
<path fill="#bbdefb" stroke="black" d="M205.62,-71C205.62,-71 125.12,-71 125.12,-71 119.12,-71 113.12,-65 113.12,-59 113.12,-59 113.12,-12 113.12,-12 113.12,-6 119.12,0 125.12,0 125.12,0 205.62,0 205.62,0 211.62,0 217.62,-6 217.62,-12 217.62,-12 217.62,-59 217.62,-59 217.62,-65 211.62,-71 205.62,-71"/>
<text text-anchor="middle" x="165.38" y="-53.7" font-family="sans-serif" font-size="14.00">Agente</text>
<text text-anchor="middle" x="165.38" y="-37.95" font-family="sans-serif" font-size="14.00">(LLM +</text>
<text text-anchor="middle" x="165.38" y="-22.2" font-family="sans-serif" font-size="14.00">Ferramentas +</text>
<text text-anchor="middle" x="165.38" y="-6.45" font-family="sans-serif" font-size="14.00">Memória)</text>
</g>
<!-- LLM&#45;&gt;Agente -->
<g id="edge3" class="edge">
<title>LLM&#45;&gt;Agente</title>
<path fill="none" stroke="#666666" d="M165.38,-106.82C165.38,-99.64 165.38,-91.1 165.38,-82.5"/>
<polygon fill="#666666" stroke="#666666" points="168.88,-82.77 165.38,-72.77 161.88,-82.77 168.88,-82.77"/>
</g>
<!-- Outros -->
<g id="node5" class="node">
<title>Outros</title>
<path fill="#ffecb3" stroke="black" d="M329.38,-55.25C329.38,-55.25 247.38,-55.25 247.38,-55.25 241.38,-55.25 235.38,-49.25 235.38,-43.25 235.38,-43.25 235.38,-27.75 235.38,-27.75 235.38,-21.75 241.38,-15.75 247.38,-15.75 247.38,-15.75 329.38,-15.75 329.38,-15.75 335.38,-15.75 341.38,-21.75 341.38,-27.75 341.38,-27.75 341.38,-43.25 341.38,-43.25 341.38,-49.25 335.38,-55.25 329.38,-55.25"/>
<text text-anchor="middle" x="288.38" y="-37.95" font-family="sans-serif" font-size="14.00">Outros</text>
<text text-anchor="middle" x="288.38" y="-22.2" font-family="sans-serif" font-size="14.00">(não cobrimos)</text>
</g>
<!-- LLM&#45;&gt;Outros -->
<g id="edge4" class="edge">
<title>LLM&#45;&gt;Outros</title>
<path fill="none" stroke="#666666" d="M191.76,-106.6C209.6,-93.66 233.36,-76.42 252.85,-62.28"/>
<polygon fill="#666666" stroke="#666666" points="254.77,-65.21 260.81,-56.5 250.66,-59.54 254.77,-65.21"/>
</g>
</g>
</svg>
