<?xml version="1.0" encoding="UTF-8" standalone="no"?>
<!DOCTYPE svg PUBLIC "-//W3C//DTD SVG 1.1//EN"
 "http://www.w3.org/Graphics/SVG/1.1/DTD/svg11.dtd">
<!-- Generated by graphviz version 12.2.1 (20241206.2353)
 -->
<!-- Title: LLMFuncionamento Pages: 1 -->
<svg width="180pt" height="579pt"
 viewBox="0.00 0.00 180.00 579.25" xmlns="http://www.w3.org/2000/svg" xmlns:xlink="http://www.w3.org/1999/xlink">
<g id="graph0" class="graph" transform="scale(1 1) rotate(0) translate(4 575.25)">
<title>LLMFuncionamento</title>
<polygon fill="white" stroke="none" points="-4,4 -4,-575.25 176,-575.25 176,4 -4,4"/>
<!-- entrada -->
<g id="node1" class="node">
<title>entrada</title>
<path fill="#e0e0e0" stroke="black" d="M134.12,-571.25C134.12,-571.25 37.88,-571.25 37.88,-571.25 31.88,-571.25 25.88,-565.25 25.88,-559.25 25.88,-559.25 25.88,-543.75 25.88,-543.75 25.88,-537.75 31.88,-531.75 37.88,-531.75 37.88,-531.75 134.12,-531.75 134.12,-531.75 140.12,-531.75 146.12,-537.75 146.12,-543.75 146.12,-543.75 146.12,-559.25 146.12,-559.25 146.12,-565.25 140.12,-571.25 134.12,-571.25"/>
<text text-anchor="middle" x="86" y="-553.95" font-family="Times,serif" font-size="14.00">Entrada:</text>
<text text-anchor="middle" x="86" y="-538.2" font-family="Times,serif" font-size="14.00">&quot;O gato sentou no&quot;</text>
</g>
<!-- tokenizacao -->
<g id="node2" class="node">
<title>tokenizacao</title>
<path fill="#f0f0ff" stroke="black" d="M160,-495.75C160,-495.75 12,-495.75 12,-495.75 6,-495.75 0,-489.75 0,-483.75 0,-483.75 0,-452.5 0,-452.5 0,-446.5 6,-440.5 12,-440.5 12,-440.5 160,-440.5 160,-440.5 166,-440.5 172,-446.5 172,-452.5 172,-452.5 172,-483.75 172,-483.75 172,-489.75 166,-495.75 160,-495.75"/>
<text text-anchor="middle" x="86" y="-478.45" font-family="Times,serif" font-size="14.00">Tokenização:</text>
<text text-anchor="middle" x="86" y="-462.7" font-family="Times,serif" font-size="14.00">[&quot;O&quot;, &quot;gato&quot;, &quot;sentou&quot;, &quot;no&quot;]</text>
<text text-anchor="middle" x="86" y="-446.95" font-family="Times,serif" font-size="14.00">→ [128, 4521, 7892, 301]</text>
</g>
<!-- entrada&#45;&gt;tokenizacao -->
<g id="edge1" class="edge">
<title>entrada&#45;&gt;tokenizacao</title>
<path fill="none" stroke="black" d="M86,-531.63C86,-524.4 86,-515.86 86,-507.46"/>
<polygon fill="black" stroke="black" points="89.5,-507.74 86,-497.74 82.5,-507.74 89.5,-507.74"/>
</g>
<!-- embeddings -->
<g id="node3" class="node">
<title>embeddings</title>
<path fill="#f0f0ff" stroke="black" d="M136.75,-404.5C136.75,-404.5 35.25,-404.5 35.25,-404.5 29.25,-404.5 23.25,-398.5 23.25,-392.5 23.25,-392.5 23.25,-361.25 23.25,-361.25 23.25,-355.25 29.25,-349.25 35.25,-349.25 35.25,-349.25 136.75,-349.25 136.75,-349.25 142.75,-349.25 148.75,-355.25 148.75,-361.25 148.75,-361.25 148.75,-392.5 148.75,-392.5 148.75,-398.5 142.75,-404.5 136.75,-404.5"/>
<text text-anchor="middle" x="86" y="-387.2" font-family="Times,serif" font-size="14.00">Embeddings:</text>
<text text-anchor="middle" x="86" y="-371.45" font-family="Times,serif" font-size="14.00">Cada token → vetor</text>
<text text-anchor="middle" x="86" y="-355.7" font-family="Times,serif" font-size="14.00">(dims: 4096)</text>
</g>
<!-- tokenizacao&#45;&gt;embeddings -->
<g id="edge2" class="edge">
<title>tokenizacao&#45;&gt;embeddings</title>
<path fill="none" stroke="black" d="M86,-440.35C86,-432.83 86,-424.5 86,-416.43"/>
<polygon fill="black" stroke="black" points="89.5,-416.46 86,-406.46 82.5,-416.46 89.5,-416.46"/>
</g>
<!-- self_attention -->
<g id="node4" class="node">
<title>self_attention</title>
<path fill="#f0f0ff" stroke="black" d="M127,-313.25C127,-313.25 45,-313.25 45,-313.25 39,-313.25 33,-307.25 33,-301.25 33,-301.25 33,-270 33,-270 33,-264 39,-258 45,-258 45,-258 127,-258 127,-258 133,-258 139,-264 139,-270 139,-270 139,-301.25 139,-301.25 139,-307.25 133,-313.25 127,-313.25"/>
<text text-anchor="middle" x="86" y="-295.95" font-family="Times,serif" font-size="14.00">Self&#45;Attention:</text>
<text text-anchor="middle" x="86" y="-280.2" font-family="Times,serif" font-size="14.00">Calcula relações</text>
<text text-anchor="middle" x="86" y="-264.45" font-family="Times,serif" font-size="14.00">entre tokens</text>
</g>
<!-- embeddings&#45;&gt;self_attention -->
<g id="edge3" class="edge">
<title>embeddings&#45;&gt;self_attention</title>
<path fill="none" stroke="black" d="M86,-349.1C86,-341.58 86,-333.25 86,-325.18"/>
<polygon fill="black" stroke="black" points="89.5,-325.21 86,-315.21 82.5,-325.21 89.5,-325.21"/>
</g>
<!-- feed_forward -->
<g id="node5" class="node">
<title>feed_forward</title>
<path fill="#f0f0ff" stroke="black" d="M125.5,-222C125.5,-222 46.5,-222 46.5,-222 40.5,-222 34.5,-216 34.5,-210 34.5,-210 34.5,-178.75 34.5,-178.75 34.5,-172.75 40.5,-166.75 46.5,-166.75 46.5,-166.75 125.5,-166.75 125.5,-166.75 131.5,-166.75 137.5,-172.75 137.5,-178.75 137.5,-178.75 137.5,-210 137.5,-210 137.5,-216 131.5,-222 125.5,-222"/>
<text text-anchor="middle" x="86" y="-204.7" font-family="Times,serif" font-size="14.00">Feed&#45;Forward:</text>
<text text-anchor="middle" x="86" y="-188.95" font-family="Times,serif" font-size="14.00">Transformações</text>
<text text-anchor="middle" x="86" y="-173.2" font-family="Times,serif" font-size="14.00">não&#45;lineares</text>
</g>
<!-- self_attention&#45;&gt;feed_forward -->
<g id="edge4" class="edge">
<title>self_attention&#45;&gt;feed_forward</title>
<path fill="none" stroke="black" d="M86,-257.85C86,-250.33 86,-242 86,-233.93"/>
<polygon fill="black" stroke="black" points="89.5,-233.96 86,-223.96 82.5,-233.96 89.5,-233.96"/>
</g>
<!-- predicao -->
<g id="node6" class="node">
<title>predicao</title>
<path fill="#f0f0ff" stroke="black" d="M139,-130.75C139,-130.75 33,-130.75 33,-130.75 27,-130.75 21,-124.75 21,-118.75 21,-118.75 21,-87.5 21,-87.5 21,-81.5 27,-75.5 33,-75.5 33,-75.5 139,-75.5 139,-75.5 145,-75.5 151,-81.5 151,-87.5 151,-87.5 151,-118.75 151,-118.75 151,-124.75 145,-130.75 139,-130.75"/>
<text text-anchor="middle" x="86" y="-113.45" font-family="Times,serif" font-size="14.00">Predição:</text>
<text text-anchor="middle" x="86" y="-97.7" font-family="Times,serif" font-size="14.00">Probabilidade por</text>
<text text-anchor="middle" x="86" y="-81.95" font-family="Times,serif" font-size="14.00">token do vocabulário</text>
</g>
<!-- feed_forward&#45;&gt;predicao -->
<g id="edge5" class="edge">
<title>feed_forward&#45;&gt;predicao</title>
<path fill="none" stroke="black" d="M86,-166.6C86,-159.08 86,-150.75 86,-142.68"/>
<polygon fill="black" stroke="black" points="89.5,-142.71 86,-132.71 82.5,-142.71 89.5,-142.71"/>
</g>
<!-- saida -->
<g id="node7" class="node">
<title>saida</title>
<path fill="#e0ffe0" stroke="black" d="M147.25,-39.5C147.25,-39.5 24.75,-39.5 24.75,-39.5 18.75,-39.5 12.75,-33.5 12.75,-27.5 12.75,-27.5 12.75,-12 12.75,-12 12.75,-6 18.75,0 24.75,0 24.75,0 147.25,0 147.25,0 153.25,0 159.25,-6 159.25,-12 159.25,-12 159.25,-27.5 159.25,-27.5 159.25,-33.5 153.25,-39.5 147.25,-39.5"/>
<text text-anchor="middle" x="86" y="-22.2" font-family="Times,serif" font-size="14.00">Saída:</text>
<text text-anchor="middle" x="86" y="-6.45" font-family="Times,serif" font-size="14.00">&quot;tapete&quot; (mais provável)</text>
</g>
<!-- predicao&#45;&gt;saida -->
<g id="edge6" class="edge">
<title>predicao&#45;&gt;saida</title>
<path fill="none" stroke="black" d="M86,-75.03C86,-67.35 86,-58.95 86,-51.09"/>
<polygon fill="black" stroke="black" points="89.5,-51.28 86,-41.28 82.5,-51.28 89.5,-51.28"/>
</g>
</g>
</svg>
