<?xml version="1.0" encoding="UTF-8" standalone="no"?>
<!DOCTYPE svg PUBLIC "-//W3C//DTD SVG 1.1//EN"
 "http://www.w3.org/Graphics/SVG/1.1/DTD/svg11.dtd">
<!-- Generated by graphviz version 12.2.1 (20241206.2353)
 -->
<!-- Title: RAGPipeline Pages: 1 -->
<svg width="368pt" height="754pt"
 viewBox="0.00 0.00 367.88 754.31" xmlns="http://www.w3.org/2000/svg" xmlns:xlink="http://www.w3.org/1999/xlink">
<g id="graph0" class="graph" transform="scale(1 1) rotate(0) translate(4 750.31)">
<title>RAGPipeline</title>
<polygon fill="white" stroke="none" points="-4,4 -4,-750.31 363.88,-750.31 363.88,4 -4,4"/>
<g id="clust1" class="cluster">
<title>cluster_indexing</title>
<path fill="none" stroke="black" d="M141.88,-401.75C141.88,-401.75 235.88,-401.75 235.88,-401.75 241.88,-401.75 247.88,-407.75 247.88,-413.75 247.88,-413.75 247.88,-726.31 247.88,-726.31 247.88,-732.31 241.88,-738.31 235.88,-738.31 235.88,-738.31 141.88,-738.31 141.88,-738.31 135.88,-738.31 129.88,-732.31 129.88,-726.31 129.88,-726.31 129.88,-413.75 129.88,-413.75 129.88,-407.75 135.88,-401.75 141.88,-401.75"/>
<text text-anchor="middle" x="188.88" y="-721.01" font-family="Times,serif" font-size="14.00">Indexação (offline)</text>
</g>
<g id="clust2" class="cluster">
<title>cluster_query</title>
<path fill="none" stroke="black" d="M267.88,-8C267.88,-8 339.88,-8 339.88,-8 345.88,-8 351.88,-14 351.88,-20 351.88,-20 351.88,-558.56 351.88,-558.56 351.88,-564.56 345.88,-570.56 339.88,-570.56 339.88,-570.56 267.88,-570.56 267.88,-570.56 261.88,-570.56 255.88,-564.56 255.88,-558.56 255.88,-558.56 255.88,-20 255.88,-20 255.88,-14 261.88,-8 267.88,-8"/>
<text text-anchor="middle" x="303.88" y="-553.26" font-family="Times,serif" font-size="14.00">Query (online)</text>
</g>
<!-- label -->
<g id="node1" class="node">
<title>label</title>
<polygon fill="#e0e0ff" stroke="black" stroke-width="2" points="121.75,-706.56 0,-706.56 0,-670.56 121.75,-670.56 121.75,-706.56"/>
<text text-anchor="middle" x="60.88" y="-682.74" font-family="Times,serif" font-size="16.00">PIPELINE RAG</text>
</g>
<!-- documentos -->
<g id="node2" class="node">
<title>documentos</title>
<path fill="#e0e0e0" stroke="black" d="M228,-706.56C228,-706.56 167.75,-706.56 167.75,-706.56 161.75,-706.56 155.75,-700.56 155.75,-694.56 155.75,-694.56 155.75,-682.56 155.75,-682.56 155.75,-676.56 161.75,-670.56 167.75,-670.56 167.75,-670.56 228,-670.56 228,-670.56 234,-670.56 240,-676.56 240,-682.56 240,-682.56 240,-694.56 240,-694.56 240,-700.56 234,-706.56 228,-706.56"/>
<text text-anchor="middle" x="197.88" y="-683.14" font-family="Times,serif" font-size="14.00">Documentos</text>
</g>
<!-- chunking -->
<g id="node3" class="node">
<title>chunking</title>
<path fill="#f0f0ff" stroke="black" d="M222.25,-633.56C222.25,-633.56 175.5,-633.56 175.5,-633.56 169.5,-633.56 163.5,-627.56 163.5,-621.56 163.5,-621.56 163.5,-609.56 163.5,-609.56 163.5,-603.56 169.5,-597.56 175.5,-597.56 175.5,-597.56 222.25,-597.56 222.25,-597.56 228.25,-597.56 234.25,-603.56 234.25,-609.56 234.25,-609.56 234.25,-621.56 234.25,-621.56 234.25,-627.56 228.25,-633.56 222.25,-633.56"/>
<text text-anchor="middle" x="198.88" y="-610.14" font-family="Times,serif" font-size="14.00">Chunking</text>
</g>
<!-- documentos&#45;&gt;chunking -->
<g id="edge1" class="edge">
<title>documentos&#45;&gt;chunking</title>
<path fill="none" stroke="black" d="M198.12,-670.38C198.22,-662.79 198.35,-653.66 198.47,-645.1"/>
<polygon fill="black" stroke="black" points="201.97,-645.15 198.61,-635.1 194.97,-645.05 201.97,-645.15"/>
</g>
<!-- embedding_idx -->
<g id="node4" class="node">
<title>embedding_idx</title>
<path fill="#f0f0ff" stroke="black" d="M227,-540.56C227,-540.56 172.75,-540.56 172.75,-540.56 166.75,-540.56 160.75,-534.56 160.75,-528.56 160.75,-528.56 160.75,-513.06 160.75,-513.06 160.75,-507.06 166.75,-501.06 172.75,-501.06 172.75,-501.06 227,-501.06 227,-501.06 233,-501.06 239,-507.06 239,-513.06 239,-513.06 239,-528.56 239,-528.56 239,-534.56 233,-540.56 227,-540.56"/>
<text text-anchor="middle" x="199.88" y="-523.26" font-family="Times,serif" font-size="14.00">Embedding</text>
<text text-anchor="middle" x="199.88" y="-507.51" font-family="Times,serif" font-size="14.00">Models</text>
</g>
<!-- chunking&#45;&gt;embedding_idx -->
<g id="edge2" class="edge">
<title>chunking&#45;&gt;embedding_idx</title>
<path fill="none" stroke="black" d="M199.06,-597.12C199.2,-584.45 199.39,-566.98 199.55,-552.06"/>
<polygon fill="black" stroke="black" points="203.05,-552.33 199.65,-542.29 196.05,-552.25 203.05,-552.33"/>
</g>
<!-- vector_store -->
<g id="node5" class="node">
<title>vector_store</title>
<path fill="#ffffe0" stroke="black" d="M235.88,-459.12C235.88,-461.85 223.77,-464.06 208.88,-464.06 193.98,-464.06 181.88,-461.85 181.88,-459.12 181.88,-459.12 181.88,-414.69 181.88,-414.69 181.88,-411.96 193.98,-409.75 208.88,-409.75 223.77,-409.75 235.88,-411.96 235.88,-414.69 235.88,-414.69 235.88,-459.12 235.88,-459.12"/>
<path fill="none" stroke="black" d="M235.88,-459.12C235.88,-456.4 223.77,-454.19 208.88,-454.19 193.98,-454.19 181.88,-456.4 181.88,-459.12"/>
<text text-anchor="middle" x="208.88" y="-439.36" font-family="Times,serif" font-size="14.00">Vector</text>
<text text-anchor="middle" x="208.88" y="-423.61" font-family="Times,serif" font-size="14.00">Store</text>
</g>
<!-- embedding_idx&#45;&gt;vector_store -->
<g id="edge3" class="edge">
<title>embedding_idx&#45;&gt;vector_store</title>
<path fill="none" stroke="black" d="M201.96,-500.82C202.79,-493.32 203.76,-484.44 204.72,-475.74"/>
<polygon fill="black" stroke="black" points="208.17,-476.38 205.78,-466.06 201.21,-475.62 208.17,-476.38"/>
</g>
<!-- retrieval -->
<g id="node8" class="node">
<title>retrieval</title>
<path fill="#f0f0ff" stroke="black" d="M323.25,-358C323.25,-358 282.5,-358 282.5,-358 276.5,-358 270.5,-352 270.5,-346 270.5,-346 270.5,-330.5 270.5,-330.5 270.5,-324.5 276.5,-318.5 282.5,-318.5 282.5,-318.5 323.25,-318.5 323.25,-318.5 329.25,-318.5 335.25,-324.5 335.25,-330.5 335.25,-330.5 335.25,-346 335.25,-346 335.25,-352 329.25,-358 323.25,-358"/>
<text text-anchor="middle" x="302.88" y="-340.7" font-family="Times,serif" font-size="14.00">Retrieval</text>
<text text-anchor="middle" x="302.88" y="-324.95" font-family="Times,serif" font-size="14.00">(Top&#45;k)</text>
</g>
<!-- vector_store&#45;&gt;retrieval -->
<g id="edge6" class="edge">
<title>vector_store&#45;&gt;retrieval</title>
<path fill="none" stroke="black" stroke-dasharray="5,2" d="M214.28,-409.49C217.66,-398.15 223.03,-385.37 231.38,-376 239.17,-367.25 249.55,-360.28 259.98,-354.87"/>
<polygon fill="black" stroke="black" points="261.42,-358.06 268.96,-350.62 258.42,-351.73 261.42,-358.06"/>
<text text-anchor="middle" x="265.12" y="-378.45" font-family="Times,serif" font-size="14.00">similaridade</text>
</g>
<!-- query -->
<g id="node6" class="node">
<title>query</title>
<path fill="#e0e0e0" stroke="black" d="M317.88,-538.81C317.88,-538.81 287.88,-538.81 287.88,-538.81 281.88,-538.81 275.88,-532.81 275.88,-526.81 275.88,-526.81 275.88,-514.81 275.88,-514.81 275.88,-508.81 281.88,-502.81 287.88,-502.81 287.88,-502.81 317.88,-502.81 317.88,-502.81 323.88,-502.81 329.88,-508.81 329.88,-514.81 329.88,-514.81 329.88,-526.81 329.88,-526.81 329.88,-532.81 323.88,-538.81 317.88,-538.81"/>
<text text-anchor="middle" x="302.88" y="-515.39" font-family="Times,serif" font-size="14.00">Query</text>
</g>
<!-- embedding_qry -->
<g id="node7" class="node">
<title>embedding_qry</title>
<path fill="#f0f0ff" stroke="black" d="M330,-454.91C330,-454.91 275.75,-454.91 275.75,-454.91 269.75,-454.91 263.75,-448.91 263.75,-442.91 263.75,-442.91 263.75,-430.91 263.75,-430.91 263.75,-424.91 269.75,-418.91 275.75,-418.91 275.75,-418.91 330,-418.91 330,-418.91 336,-418.91 342,-424.91 342,-430.91 342,-430.91 342,-442.91 342,-442.91 342,-448.91 336,-454.91 330,-454.91"/>
<text text-anchor="middle" x="302.88" y="-431.48" font-family="Times,serif" font-size="14.00">Embedding</text>
</g>
<!-- query&#45;&gt;embedding_qry -->
<g id="edge4" class="edge">
<title>query&#45;&gt;embedding_qry</title>
<path fill="none" stroke="black" d="M302.88,-502.44C302.88,-492.02 302.88,-478.5 302.88,-466.53"/>
<polygon fill="black" stroke="black" points="306.38,-466.76 302.88,-456.76 299.38,-466.76 306.38,-466.76"/>
</g>
<!-- embedding_qry&#45;&gt;retrieval -->
<g id="edge5" class="edge">
<title>embedding_qry&#45;&gt;retrieval</title>
<path fill="none" stroke="black" d="M302.88,-418.63C302.88,-404.99 302.88,-385.64 302.88,-369.46"/>
<polygon fill="black" stroke="black" points="306.38,-369.88 302.88,-359.88 299.38,-369.88 306.38,-369.88"/>
</g>
<!-- reranking -->
<g id="node9" class="node">
<title>reranking</title>
<path fill="#f0f0ff" stroke="black" d="M327.38,-281.5C327.38,-281.5 278.38,-281.5 278.38,-281.5 272.38,-281.5 266.38,-275.5 266.38,-269.5 266.38,-269.5 266.38,-254 266.38,-254 266.38,-248 272.38,-242 278.38,-242 278.38,-242 327.38,-242 327.38,-242 333.38,-242 339.38,-248 339.38,-254 339.38,-254 339.38,-269.5 339.38,-269.5 339.38,-275.5 333.38,-281.5 327.38,-281.5"/>
<text text-anchor="middle" x="302.88" y="-264.2" font-family="Times,serif" font-size="14.00">Reranking</text>
<text text-anchor="middle" x="302.88" y="-248.45" font-family="Times,serif" font-size="14.00">(opcional)</text>
</g>
<!-- retrieval&#45;&gt;reranking -->
<g id="edge7" class="edge">
<title>retrieval&#45;&gt;reranking</title>
<path fill="none" stroke="black" d="M302.88,-318.06C302.88,-310.5 302.88,-301.63 302.88,-293.24"/>
<polygon fill="black" stroke="black" points="306.38,-293.38 302.88,-283.38 299.38,-293.38 306.38,-293.38"/>
</g>
<!-- prompt_context -->
<g id="node10" class="node">
<title>prompt_context</title>
<path fill="#f0f0ff" stroke="black" d="M330,-205C330,-205 275.75,-205 275.75,-205 269.75,-205 263.75,-199 263.75,-193 263.75,-193 263.75,-177.5 263.75,-177.5 263.75,-171.5 269.75,-165.5 275.75,-165.5 275.75,-165.5 330,-165.5 330,-165.5 336,-165.5 342,-171.5 342,-177.5 342,-177.5 342,-193 342,-193 342,-199 336,-205 330,-205"/>
<text text-anchor="middle" x="302.88" y="-187.7" font-family="Times,serif" font-size="14.00">Prompt</text>
<text text-anchor="middle" x="302.88" y="-171.95" font-family="Times,serif" font-size="14.00">+ Contexto</text>
</g>
<!-- reranking&#45;&gt;prompt_context -->
<g id="edge8" class="edge">
<title>reranking&#45;&gt;prompt_context</title>
<path fill="none" stroke="black" d="M302.88,-241.56C302.88,-234 302.88,-225.13 302.88,-216.74"/>
<polygon fill="black" stroke="black" points="306.38,-216.88 302.88,-206.88 299.38,-216.88 306.38,-216.88"/>
</g>
<!-- llm -->
<g id="node11" class="node">
<title>llm</title>
<path fill="#e0e0e0" stroke="black" d="M317.88,-128.5C317.88,-128.5 287.88,-128.5 287.88,-128.5 281.88,-128.5 275.88,-122.5 275.88,-116.5 275.88,-116.5 275.88,-104.5 275.88,-104.5 275.88,-98.5 281.88,-92.5 287.88,-92.5 287.88,-92.5 317.88,-92.5 317.88,-92.5 323.88,-92.5 329.88,-98.5 329.88,-104.5 329.88,-104.5 329.88,-116.5 329.88,-116.5 329.88,-122.5 323.88,-128.5 317.88,-128.5"/>
<text text-anchor="middle" x="302.88" y="-105.08" font-family="Times,serif" font-size="14.00">LLM</text>
</g>
<!-- prompt_context&#45;&gt;llm -->
<g id="edge9" class="edge">
<title>prompt_context&#45;&gt;llm</title>
<path fill="none" stroke="black" d="M302.88,-165.14C302.88,-157.47 302.88,-148.47 302.88,-140.05"/>
<polygon fill="black" stroke="black" points="306.38,-140.26 302.88,-130.26 299.38,-140.26 306.38,-140.26"/>
</g>
<!-- resposta -->
<g id="node12" class="node">
<title>resposta</title>
<path fill="#e0ffe0" stroke="black" d="M322.88,-55.5C322.88,-55.5 282.88,-55.5 282.88,-55.5 276.88,-55.5 270.88,-49.5 270.88,-43.5 270.88,-43.5 270.88,-28 270.88,-28 270.88,-22 276.88,-16 282.88,-16 282.88,-16 322.88,-16 322.88,-16 328.88,-16 334.88,-22 334.88,-28 334.88,-28 334.88,-43.5 334.88,-43.5 334.88,-49.5 328.88,-55.5 322.88,-55.5"/>
<text text-anchor="middle" x="302.88" y="-38.2" font-family="Times,serif" font-size="14.00">Resposta</text>
<text text-anchor="middle" x="302.88" y="-22.45" font-family="Times,serif" font-size="14.00">Final</text>
</g>
<!-- llm&#45;&gt;resposta -->
<g id="edge10" class="edge">
<title>llm&#45;&gt;resposta</title>
<path fill="none" stroke="black" d="M302.88,-92.26C302.88,-84.75 302.88,-75.72 302.88,-67.14"/>
<polygon fill="black" stroke="black" points="306.38,-67.43 302.88,-57.43 299.38,-67.43 306.38,-67.43"/>
</g>
</g>
</svg>
