<?xml version="1.0" encoding="UTF-8" standalone="no"?>
<!DOCTYPE svg PUBLIC "-//W3C//DTD SVG 1.1//EN"
 "http://www.w3.org/Graphics/SVG/1.1/DTD/svg11.dtd">
<!-- Generated by graphviz version 12.2.1 (20241206.2353)
 -->
<!-- Title: SistemaAtendimento Pages: 1 -->
<svg width="186pt" height="708pt"
 viewBox="0.00 0.00 185.50 707.56" xmlns="http://www.w3.org/2000/svg" xmlns:xlink="http://www.w3.org/1999/xlink">
<g id="graph0" class="graph" transform="scale(1 1) rotate(0) translate(4 703.56)">
<title>SistemaAtendimento</title>
<polygon fill="white" stroke="none" points="-4,4 -4,-703.56 181.5,-703.56 181.5,4 -4,4"/>
<!-- usuario -->
<g id="node1" class="node">
<title>usuario</title>
<path fill="#e0e0e0" stroke="black" d="M103.5,-699.56C103.5,-699.56 69.5,-699.56 69.5,-699.56 63.5,-699.56 57.5,-693.56 57.5,-687.56 57.5,-687.56 57.5,-675.56 57.5,-675.56 57.5,-669.56 63.5,-663.56 69.5,-663.56 69.5,-663.56 103.5,-663.56 103.5,-663.56 109.5,-663.56 115.5,-669.56 115.5,-675.56 115.5,-675.56 115.5,-687.56 115.5,-687.56 115.5,-693.56 109.5,-699.56 103.5,-699.56"/>
<text text-anchor="middle" x="86.5" y="-676.14" font-family="Times,serif" font-size="14.00">Usuário</text>
</g>
<!-- whatsapp -->
<g id="node2" class="node">
<title>whatsapp</title>
<path fill="#e0e0e0" stroke="black" d="M124.88,-626.56C124.88,-626.56 48.12,-626.56 48.12,-626.56 42.12,-626.56 36.12,-620.56 36.12,-614.56 36.12,-614.56 36.12,-602.56 36.12,-602.56 36.12,-596.56 42.12,-590.56 48.12,-590.56 48.12,-590.56 124.88,-590.56 124.88,-590.56 130.88,-590.56 136.88,-596.56 136.88,-602.56 136.88,-602.56 136.88,-614.56 136.88,-614.56 136.88,-620.56 130.88,-626.56 124.88,-626.56"/>
<text text-anchor="middle" x="86.5" y="-603.14" font-family="Times,serif" font-size="14.00">WhatsApp API</text>
</g>
<!-- usuario&#45;&gt;whatsapp -->
<g id="edge1" class="edge">
<title>usuario&#45;&gt;whatsapp</title>
<path fill="none" stroke="black" d="M86.5,-663.38C86.5,-655.79 86.5,-646.66 86.5,-638.1"/>
<polygon fill="black" stroke="black" points="90,-638.1 86.5,-628.1 83,-638.1 90,-638.1"/>
</g>
<!-- memoria -->
<g id="node3" class="node">
<title>memoria</title>
<path fill="#f0f0ff" stroke="black" d="M135.38,-553.56C135.38,-553.56 37.62,-553.56 37.62,-553.56 31.62,-553.56 25.62,-547.56 25.62,-541.56 25.62,-541.56 25.62,-526.06 25.62,-526.06 25.62,-520.06 31.62,-514.06 37.62,-514.06 37.62,-514.06 135.38,-514.06 135.38,-514.06 141.38,-514.06 147.38,-520.06 147.38,-526.06 147.38,-526.06 147.38,-541.56 147.38,-541.56 147.38,-547.56 141.38,-553.56 135.38,-553.56"/>
<text text-anchor="middle" x="86.5" y="-536.26" font-family="Times,serif" font-size="14.00">Memória</text>
<text text-anchor="middle" x="86.5" y="-520.51" font-family="Times,serif" font-size="14.00">(recupera contexto)</text>
</g>
<!-- whatsapp&#45;&gt;memoria -->
<g id="edge2" class="edge">
<title>whatsapp&#45;&gt;memoria</title>
<path fill="none" stroke="black" d="M86.5,-590.32C86.5,-582.81 86.5,-573.78 86.5,-565.2"/>
<polygon fill="black" stroke="black" points="90,-565.49 86.5,-555.49 83,-565.49 90,-565.49"/>
</g>
<!-- pergunta -->
<g id="node4" class="node">
<title>pergunta</title>
<path fill="#f0f0ff" stroke="black" d="M106.5,-477.06C106.5,-477.06 66.5,-477.06 66.5,-477.06 60.5,-477.06 54.5,-471.06 54.5,-465.06 54.5,-465.06 54.5,-453.06 54.5,-453.06 54.5,-447.06 60.5,-441.06 66.5,-441.06 66.5,-441.06 106.5,-441.06 106.5,-441.06 112.5,-441.06 118.5,-447.06 118.5,-453.06 118.5,-453.06 118.5,-465.06 118.5,-465.06 118.5,-471.06 112.5,-477.06 106.5,-477.06"/>
<text text-anchor="middle" x="86.5" y="-453.64" font-family="Times,serif" font-size="14.00">Pergunta</text>
</g>
<!-- memoria&#45;&gt;pergunta -->
<g id="edge3" class="edge">
<title>memoria&#45;&gt;pergunta</title>
<path fill="none" stroke="black" d="M86.5,-513.7C86.5,-506.03 86.5,-497.03 86.5,-488.61"/>
<polygon fill="black" stroke="black" points="90,-488.82 86.5,-478.82 83,-488.82 90,-488.82"/>
</g>
<!-- embedding -->
<g id="node5" class="node">
<title>embedding</title>
<path fill="#f0f0ff" stroke="black" d="M113.62,-404.06C113.62,-404.06 59.38,-404.06 59.38,-404.06 53.38,-404.06 47.38,-398.06 47.38,-392.06 47.38,-392.06 47.38,-380.06 47.38,-380.06 47.38,-374.06 53.38,-368.06 59.38,-368.06 59.38,-368.06 113.62,-368.06 113.62,-368.06 119.62,-368.06 125.62,-374.06 125.62,-380.06 125.62,-380.06 125.62,-392.06 125.62,-392.06 125.62,-398.06 119.62,-404.06 113.62,-404.06"/>
<text text-anchor="middle" x="86.5" y="-380.64" font-family="Times,serif" font-size="14.00">Embedding</text>
</g>
<!-- pergunta&#45;&gt;embedding -->
<g id="edge4" class="edge">
<title>pergunta&#45;&gt;embedding</title>
<path fill="none" stroke="black" d="M86.5,-440.88C86.5,-433.29 86.5,-424.16 86.5,-415.6"/>
<polygon fill="black" stroke="black" points="90,-415.6 86.5,-405.6 83,-415.6 90,-415.6"/>
</g>
<!-- vectordb -->
<g id="node6" class="node">
<title>vectordb</title>
<path fill="#ffffe0" stroke="black" d="M132,-326.12C132,-328.85 111.61,-331.06 86.5,-331.06 61.39,-331.06 41,-328.85 41,-326.12 41,-326.12 41,-281.69 41,-281.69 41,-278.96 61.39,-276.75 86.5,-276.75 111.61,-276.75 132,-278.96 132,-281.69 132,-281.69 132,-326.12 132,-326.12"/>
<path fill="none" stroke="black" d="M132,-326.12C132,-323.4 111.61,-321.19 86.5,-321.19 61.39,-321.19 41,-323.4 41,-326.12"/>
<text text-anchor="middle" x="86.5" y="-306.36" font-family="Times,serif" font-size="14.00">Vector DB</text>
<text text-anchor="middle" x="86.5" y="-290.61" font-family="Times,serif" font-size="14.00">(busca PDFs)</text>
</g>
<!-- embedding&#45;&gt;vectordb -->
<g id="edge5" class="edge">
<title>embedding&#45;&gt;vectordb</title>
<path fill="none" stroke="black" d="M86.5,-367.67C86.5,-360.31 86.5,-351.42 86.5,-342.68"/>
<polygon fill="black" stroke="black" points="90,-342.93 86.5,-332.93 83,-342.93 90,-342.93"/>
</g>
<!-- documentos -->
<g id="node7" class="node">
<title>documentos</title>
<path fill="#f0f0ff" stroke="black" d="M116.62,-239.75C116.62,-239.75 56.38,-239.75 56.38,-239.75 50.38,-239.75 44.38,-233.75 44.38,-227.75 44.38,-227.75 44.38,-215.75 44.38,-215.75 44.38,-209.75 50.38,-203.75 56.38,-203.75 56.38,-203.75 116.62,-203.75 116.62,-203.75 122.62,-203.75 128.62,-209.75 128.62,-215.75 128.62,-215.75 128.62,-227.75 128.62,-227.75 128.62,-233.75 122.62,-239.75 116.62,-239.75"/>
<text text-anchor="middle" x="86.5" y="-216.32" font-family="Times,serif" font-size="14.00">Documentos</text>
</g>
<!-- vectordb&#45;&gt;documentos -->
<g id="edge6" class="edge">
<title>vectordb&#45;&gt;documentos</title>
<path fill="none" stroke="black" d="M86.5,-276.66C86.5,-268.56 86.5,-259.6 86.5,-251.35"/>
<polygon fill="black" stroke="black" points="90,-251.47 86.5,-241.47 83,-251.47 90,-251.47"/>
</g>
<!-- llm_decision -->
<g id="node8" class="node">
<title>llm_decision</title>
<path fill="#f0f0ff" stroke="black" d="M75.58,-161.77C75.58,-161.77 10.92,-132.23 10.92,-132.23 5.46,-129.74 5.46,-124.76 10.92,-122.27 10.92,-122.27 75.58,-92.73 75.58,-92.73 81.04,-90.24 91.96,-90.24 97.42,-92.73 97.42,-92.73 162.08,-122.27 162.08,-122.27 167.54,-124.76 167.54,-129.74 162.08,-132.23 162.08,-132.23 97.42,-161.77 97.42,-161.77 91.96,-164.26 81.04,-164.26 75.58,-161.77"/>
<text text-anchor="middle" x="86.5" y="-129.7" font-family="Times,serif" font-size="14.00">LLM</text>
<text text-anchor="middle" x="86.5" y="-113.95" font-family="Times,serif" font-size="14.00">→ Resposta?</text>
</g>
<!-- documentos&#45;&gt;llm_decision -->
<g id="edge7" class="edge">
<title>documentos&#45;&gt;llm_decision</title>
<path fill="none" stroke="black" d="M86.5,-203.35C86.5,-196.14 86.5,-187.37 86.5,-178.4"/>
<polygon fill="black" stroke="black" points="90,-178.55 86.5,-168.55 83,-178.55 90,-178.55"/>
</g>
<!-- resposta -->
<g id="node9" class="node">
<title>resposta</title>
<path fill="#e0ffe0" stroke="black" d="M59.5,-36C59.5,-36 19.5,-36 19.5,-36 13.5,-36 7.5,-30 7.5,-24 7.5,-24 7.5,-12 7.5,-12 7.5,-6 13.5,0 19.5,0 19.5,0 59.5,0 59.5,0 65.5,0 71.5,-6 71.5,-12 71.5,-12 71.5,-24 71.5,-24 71.5,-30 65.5,-36 59.5,-36"/>
<text text-anchor="middle" x="39.5" y="-12.57" font-family="Times,serif" font-size="14.00">Resposta</text>
</g>
<!-- llm_decision&#45;&gt;resposta -->
<g id="edge8" class="edge">
<title>llm_decision&#45;&gt;resposta</title>
<path fill="none" stroke="black" d="M72.27,-93.78C65.68,-78.75 57.94,-61.07 51.63,-46.68"/>
<polygon fill="black" stroke="black" points="54.96,-45.55 47.74,-37.8 48.55,-48.36 54.96,-45.55"/>
<text text-anchor="middle" x="72.84" y="-56.45" font-family="Times,serif" font-size="14.00">Sim</text>
</g>
<!-- zendesk -->
<g id="node10" class="node">
<title>zendesk</title>
<path fill="#ffffe0" stroke="black" d="M165.5,-36C165.5,-36 101.5,-36 101.5,-36 95.5,-36 89.5,-30 89.5,-24 89.5,-24 89.5,-12 89.5,-12 89.5,-6 95.5,0 101.5,0 101.5,0 165.5,0 165.5,0 171.5,0 177.5,-6 177.5,-12 177.5,-12 177.5,-24 177.5,-24 177.5,-30 171.5,-36 165.5,-36"/>
<text text-anchor="middle" x="133.5" y="-12.57" font-family="Times,serif" font-size="14.00">Zendesk API</text>
</g>
<!-- llm_decision&#45;&gt;zendesk -->
<g id="edge9" class="edge">
<title>llm_decision&#45;&gt;zendesk</title>
<path fill="none" stroke="black" d="M100.73,-93.78C107.32,-78.75 115.06,-61.07 121.37,-46.68"/>
<polygon fill="black" stroke="black" points="124.45,-48.36 125.26,-37.8 118.04,-45.55 124.45,-48.36"/>
<text text-anchor="middle" x="128.58" y="-56.45" font-family="Times,serif" font-size="14.00">Não</text>
</g>
</g>
</svg>
