<?xml version="1.0" encoding="UTF-8" standalone="no"?>
<!DOCTYPE svg PUBLIC "-//W3C//DTD SVG 1.1//EN"
 "http://www.w3.org/Graphics/SVG/1.1/DTD/svg11.dtd">
<!-- Generated by graphviz version 12.2.1 (20241206.2353)
 -->
<!-- Title: TaxonomiaPrompting Pages: 1 -->
<svg width="1281pt" height="143pt"
 viewBox="0.00 0.00 1281.00 142.75" xmlns="http://www.w3.org/2000/svg" xmlns:xlink="http://www.w3.org/1999/xlink">
<g id="graph0" class="graph" transform="scale(1 1) rotate(0) translate(4 138.75)">
<title>TaxonomiaPrompting</title>
<polygon fill="white" stroke="none" points="-4,4 -4,-138.75 1277,-138.75 1277,4 -4,4"/>
<g id="clust1" class="cluster">
<title>cluster_basicas</title>
<path fill="none" stroke="black" d="M20,-9.75C20,-9.75 359,-9.75 359,-9.75 365,-9.75 371,-15.75 371,-21.75 371,-21.75 371,-73.5 371,-73.5 371,-79.5 365,-85.5 359,-85.5 359,-85.5 20,-85.5 20,-85.5 14,-85.5 8,-79.5 8,-73.5 8,-73.5 8,-21.75 8,-21.75 8,-15.75 14,-9.75 20,-9.75"/>
<text text-anchor="middle" x="189.5" y="-68.2" font-family="Times,serif" font-size="14.00">Básicas</text>
</g>
<g id="clust2" class="cluster">
<title>cluster_avancadas</title>
<path fill="none" stroke="black" d="M391,-8C391,-8 825,-8 825,-8 831,-8 837,-14 837,-20 837,-20 837,-75.25 837,-75.25 837,-81.25 831,-87.25 825,-87.25 825,-87.25 391,-87.25 391,-87.25 385,-87.25 379,-81.25 379,-75.25 379,-75.25 379,-20 379,-20 379,-14 385,-8 391,-8"/>
<text text-anchor="middle" x="608" y="-69.95" font-family="Times,serif" font-size="14.00">Avançadas</text>
</g>
<g id="clust3" class="cluster">
<title>cluster_especializadas</title>
<path fill="none" stroke="black" d="M857,-9.75C857,-9.75 1253,-9.75 1253,-9.75 1259,-9.75 1265,-15.75 1265,-21.75 1265,-21.75 1265,-73.5 1265,-73.5 1265,-79.5 1259,-85.5 1253,-85.5 1253,-85.5 857,-85.5 857,-85.5 851,-85.5 845,-79.5 845,-73.5 845,-73.5 845,-21.75 845,-21.75 845,-15.75 851,-9.75 857,-9.75"/>
<text text-anchor="middle" x="1055" y="-68.2" font-family="Times,serif" font-size="14.00">Especializadas</text>
</g>
<!-- tecnicas -->
<g id="node1" class="node">
<title>tecnicas</title>
<polygon fill="#e0e0ff" stroke="black" stroke-width="2" points="691,-134.75 585,-134.75 585,-95.25 691,-95.25 691,-134.75"/>
<text text-anchor="middle" x="638" y="-117.45" font-family="Times,serif" font-size="14.00">TÉCNICAS DE</text>
<text text-anchor="middle" x="638" y="-101.7" font-family="Times,serif" font-size="14.00">PROMPTING</text>
</g>
<!-- zero_shot -->
<g id="node2" class="node">
<title>zero_shot</title>
<path fill="#f0f0ff" stroke="black" d="M71.88,-53.75C71.88,-53.75 28.12,-53.75 28.12,-53.75 22.12,-53.75 16.12,-47.75 16.12,-41.75 16.12,-41.75 16.12,-29.75 16.12,-29.75 16.12,-23.75 22.12,-17.75 28.12,-17.75 28.12,-17.75 71.88,-17.75 71.88,-17.75 77.88,-17.75 83.88,-23.75 83.88,-29.75 83.88,-29.75 83.88,-41.75 83.88,-41.75 83.88,-47.75 77.88,-53.75 71.88,-53.75"/>
<text text-anchor="middle" x="50" y="-30.32" font-family="Times,serif" font-size="14.00">Zero&#45;shot</text>
</g>
<!-- tecnicas&#45;&gt;zero_shot -->
<g id="edge1" class="edge">
<title>tecnicas&#45;&gt;zero_shot</title>
<path fill="none" stroke="black" d="M584.57,-113.77C455.91,-112.89 136.3,-108.55 93,-87.25 82.26,-81.97 73.16,-72.65 66.13,-63.45"/>
<polygon fill="black" stroke="black" points="69.04,-61.51 60.44,-55.32 63.3,-65.52 69.04,-61.51"/>
</g>
<!-- few_shot -->
<g id="node3" class="node">
<title>few_shot</title>
<path fill="#f0f0ff" stroke="black" d="M155.75,-53.75C155.75,-53.75 114.25,-53.75 114.25,-53.75 108.25,-53.75 102.25,-47.75 102.25,-41.75 102.25,-41.75 102.25,-29.75 102.25,-29.75 102.25,-23.75 108.25,-17.75 114.25,-17.75 114.25,-17.75 155.75,-17.75 155.75,-17.75 161.75,-17.75 167.75,-23.75 167.75,-29.75 167.75,-29.75 167.75,-41.75 167.75,-41.75 167.75,-47.75 161.75,-53.75 155.75,-53.75"/>
<text text-anchor="middle" x="135" y="-30.32" font-family="Times,serif" font-size="14.00">Few&#45;shot</text>
</g>
<!-- tecnicas&#45;&gt;few_shot -->
<g id="edge2" class="edge">
<title>tecnicas&#45;&gt;few_shot</title>
<path fill="none" stroke="black" d="M584.91,-113.29C471.42,-111.42 212.6,-105.22 177,-87.25 166.42,-81.91 157.51,-72.59 150.66,-63.39"/>
<polygon fill="black" stroke="black" points="153.65,-61.57 145.13,-55.28 147.87,-65.51 153.65,-61.57"/>
</g>
<!-- role -->
<g id="node4" class="node">
<title>role</title>
<path fill="#f0f0ff" stroke="black" d="M277.88,-53.75C277.88,-53.75 198.12,-53.75 198.12,-53.75 192.12,-53.75 186.12,-47.75 186.12,-41.75 186.12,-41.75 186.12,-29.75 186.12,-29.75 186.12,-23.75 192.12,-17.75 198.12,-17.75 198.12,-17.75 277.88,-17.75 277.88,-17.75 283.88,-17.75 289.88,-23.75 289.88,-29.75 289.88,-29.75 289.88,-41.75 289.88,-41.75 289.88,-47.75 283.88,-53.75 277.88,-53.75"/>
<text text-anchor="middle" x="238" y="-30.32" font-family="Times,serif" font-size="14.00">Role Prompting</text>
</g>
<!-- tecnicas&#45;&gt;role -->
<g id="edge3" class="edge">
<title>tecnicas&#45;&gt;role</title>
<path fill="none" stroke="black" d="M584.58,-113.68C502.44,-112.55 349.34,-107.65 299,-87.25 285.06,-81.6 271.9,-71.56 261.4,-61.91"/>
<polygon fill="black" stroke="black" points="263.94,-59.5 254.32,-55.06 259.07,-64.53 263.94,-59.5"/>
</g>
<!-- format -->
<g id="node5" class="node">
<title>format</title>
<path fill="#f0f0ff" stroke="black" d="M350.5,-53.75C350.5,-53.75 319.5,-53.75 319.5,-53.75 313.5,-53.75 307.5,-47.75 307.5,-41.75 307.5,-41.75 307.5,-29.75 307.5,-29.75 307.5,-23.75 313.5,-17.75 319.5,-17.75 319.5,-17.75 350.5,-17.75 350.5,-17.75 356.5,-17.75 362.5,-23.75 362.5,-29.75 362.5,-29.75 362.5,-41.75 362.5,-41.75 362.5,-47.75 356.5,-53.75 350.5,-53.75"/>
<text text-anchor="middle" x="335" y="-30.32" font-family="Times,serif" font-size="14.00">Format</text>
</g>
<!-- tecnicas&#45;&gt;format -->
<g id="edge4" class="edge">
<title>tecnicas&#45;&gt;format</title>
<path fill="none" stroke="black" d="M584.54,-113.42C518.31,-111.87 409.92,-106.38 375,-87.25 364.91,-81.73 356.48,-72.49 349.99,-63.42"/>
<polygon fill="black" stroke="black" points="352.96,-61.56 344.56,-55.09 347.09,-65.38 352.96,-61.56"/>
</g>
<!-- cot -->
<g id="node6" class="node">
<title>cot</title>
<path fill="#f0f0ff" stroke="black" d="M490.88,-55.5C490.88,-55.5 399.12,-55.5 399.12,-55.5 393.12,-55.5 387.12,-49.5 387.12,-43.5 387.12,-43.5 387.12,-28 387.12,-28 387.12,-22 393.12,-16 399.12,-16 399.12,-16 490.88,-16 490.88,-16 496.88,-16 502.88,-22 502.88,-28 502.88,-28 502.88,-43.5 502.88,-43.5 502.88,-49.5 496.88,-55.5 490.88,-55.5"/>
<text text-anchor="middle" x="445" y="-38.2" font-family="Times,serif" font-size="14.00">Chain&#45;of&#45;Thought</text>
<text text-anchor="middle" x="445" y="-22.45" font-family="Times,serif" font-size="14.00">(CoT)</text>
</g>
<!-- tecnicas&#45;&gt;cot -->
<g id="edge5" class="edge">
<title>tecnicas&#45;&gt;cot</title>
<path fill="none" stroke="black" d="M584.57,-107.93C561.52,-104 534.69,-97.59 512,-87.25 498.64,-81.16 485.42,-72.04 474.29,-63.22"/>
<polygon fill="black" stroke="black" points="476.59,-60.58 466.65,-56.92 472.14,-65.98 476.59,-60.58"/>
</g>
<!-- tot -->
<g id="node7" class="node">
<title>tot</title>
<path fill="#f0f0ff" stroke="black" d="M616.75,-55.5C616.75,-55.5 533.25,-55.5 533.25,-55.5 527.25,-55.5 521.25,-49.5 521.25,-43.5 521.25,-43.5 521.25,-28 521.25,-28 521.25,-22 527.25,-16 533.25,-16 533.25,-16 616.75,-16 616.75,-16 622.75,-16 628.75,-22 628.75,-28 628.75,-28 628.75,-43.5 628.75,-43.5 628.75,-49.5 622.75,-55.5 616.75,-55.5"/>
<text text-anchor="middle" x="575" y="-38.2" font-family="Times,serif" font-size="14.00">Tree&#45;of&#45;Thought</text>
<text text-anchor="middle" x="575" y="-22.45" font-family="Times,serif" font-size="14.00">(ToT)</text>
</g>
<!-- tecnicas&#45;&gt;tot -->
<g id="edge6" class="edge">
<title>tecnicas&#45;&gt;tot</title>
<path fill="none" stroke="black" d="M622.43,-94.9C615.01,-85.81 605.99,-74.74 597.81,-64.72"/>
<polygon fill="black" stroke="black" points="600.6,-62.6 591.57,-57.07 595.18,-67.03 600.6,-62.6"/>
</g>
<!-- sc -->
<g id="node8" class="node">
<title>sc</title>
<path fill="#f0f0ff" stroke="black" d="M744.88,-53.75C744.88,-53.75 659.12,-53.75 659.12,-53.75 653.12,-53.75 647.12,-47.75 647.12,-41.75 647.12,-41.75 647.12,-29.75 647.12,-29.75 647.12,-23.75 653.12,-17.75 659.12,-17.75 659.12,-17.75 744.88,-17.75 744.88,-17.75 750.88,-17.75 756.88,-23.75 756.88,-29.75 756.88,-29.75 756.88,-41.75 756.88,-41.75 756.88,-47.75 750.88,-53.75 744.88,-53.75"/>
<text text-anchor="middle" x="702" y="-30.32" font-family="Times,serif" font-size="14.00">Self&#45;Consistency</text>
</g>
<!-- tecnicas&#45;&gt;sc -->
<g id="edge7" class="edge">
<title>tecnicas&#45;&gt;sc</title>
<path fill="none" stroke="black" d="M653.82,-94.9C661.84,-85.23 671.69,-73.33 680.39,-62.83"/>
<polygon fill="black" stroke="black" points="683.02,-65.14 686.71,-55.21 677.63,-60.68 683.02,-65.14"/>
</g>
<!-- dspy -->
<g id="node9" class="node">
<title>dspy</title>
<path fill="#f0f0ff" stroke="black" d="M817,-53.75C817,-53.75 787,-53.75 787,-53.75 781,-53.75 775,-47.75 775,-41.75 775,-41.75 775,-29.75 775,-29.75 775,-23.75 781,-17.75 787,-17.75 787,-17.75 817,-17.75 817,-17.75 823,-17.75 829,-23.75 829,-29.75 829,-29.75 829,-41.75 829,-41.75 829,-47.75 823,-53.75 817,-53.75"/>
<text text-anchor="middle" x="802" y="-30.32" font-family="Times,serif" font-size="14.00">DSPy</text>
</g>
<!-- tecnicas&#45;&gt;dspy -->
<g id="edge8" class="edge">
<title>tecnicas&#45;&gt;dspy</title>
<path fill="none" stroke="black" d="M691.19,-111.67C715.61,-108.5 743.95,-101.65 766,-87.25 775.04,-81.35 782.52,-72.32 788.28,-63.52"/>
<polygon fill="black" stroke="black" points="791.14,-65.55 793.26,-55.17 785.13,-61.96 791.14,-65.55"/>
</g>
<!-- rag_prompt -->
<g id="node10" class="node">
<title>rag_prompt</title>
<path fill="#f0f0ff" stroke="black" d="M947.38,-53.75C947.38,-53.75 864.62,-53.75 864.62,-53.75 858.62,-53.75 852.62,-47.75 852.62,-41.75 852.62,-41.75 852.62,-29.75 852.62,-29.75 852.62,-23.75 858.62,-17.75 864.62,-17.75 864.62,-17.75 947.38,-17.75 947.38,-17.75 953.38,-17.75 959.38,-23.75 959.38,-29.75 959.38,-29.75 959.38,-41.75 959.38,-41.75 959.38,-47.75 953.38,-53.75 947.38,-53.75"/>
<text text-anchor="middle" x="906" y="-30.32" font-family="Times,serif" font-size="14.00">RAG Prompting</text>
</g>
<!-- tecnicas&#45;&gt;rag_prompt -->
<g id="edge9" class="edge">
<title>tecnicas&#45;&gt;rag_prompt</title>
<path fill="none" stroke="black" d="M691.27,-114.52C733.41,-113.19 792.95,-107.33 841,-87.25 855.36,-81.25 869.26,-71.22 880.5,-61.67"/>
<polygon fill="black" stroke="black" points="882.62,-64.47 887.77,-55.21 877.97,-59.24 882.62,-64.47"/>
</g>
<!-- multimodal -->
<g id="node11" class="node">
<title>multimodal</title>
<path fill="#f0f0ff" stroke="black" d="M1044.88,-53.75C1044.88,-53.75 989.12,-53.75 989.12,-53.75 983.12,-53.75 977.12,-47.75 977.12,-41.75 977.12,-41.75 977.12,-29.75 977.12,-29.75 977.12,-23.75 983.12,-17.75 989.12,-17.75 989.12,-17.75 1044.88,-17.75 1044.88,-17.75 1050.88,-17.75 1056.88,-23.75 1056.88,-29.75 1056.88,-29.75 1056.88,-41.75 1056.88,-41.75 1056.88,-47.75 1050.88,-53.75 1044.88,-53.75"/>
<text text-anchor="middle" x="1017" y="-30.32" font-family="Times,serif" font-size="14.00">Multimodal</text>
</g>
<!-- tecnicas&#45;&gt;multimodal -->
<g id="edge10" class="edge">
<title>tecnicas&#45;&gt;multimodal</title>
<path fill="none" stroke="black" d="M691.26,-114.19C771.84,-113.72 920.37,-109.71 968,-87.25 979.72,-81.72 990.14,-72.1 998.33,-62.73"/>
<polygon fill="black" stroke="black" points="1000.91,-65.11 1004.51,-55.14 995.48,-60.69 1000.91,-65.11"/>
</g>
<!-- tool_use -->
<g id="node12" class="node">
<title>tool_use</title>
<path fill="#f0f0ff" stroke="black" d="M1129.12,-53.75C1129.12,-53.75 1086.88,-53.75 1086.88,-53.75 1080.88,-53.75 1074.88,-47.75 1074.88,-41.75 1074.88,-41.75 1074.88,-29.75 1074.88,-29.75 1074.88,-23.75 1080.88,-17.75 1086.88,-17.75 1086.88,-17.75 1129.12,-17.75 1129.12,-17.75 1135.12,-17.75 1141.12,-23.75 1141.12,-29.75 1141.12,-29.75 1141.12,-41.75 1141.12,-41.75 1141.12,-47.75 1135.12,-53.75 1129.12,-53.75"/>
<text text-anchor="middle" x="1108" y="-30.32" font-family="Times,serif" font-size="14.00">Tool Use</text>
</g>
<!-- tecnicas&#45;&gt;tool_use -->
<g id="edge11" class="edge">
<title>tecnicas&#45;&gt;tool_use</title>
<path fill="none" stroke="black" d="M691.33,-113.02C798.67,-110.71 1033.39,-103.8 1066,-87.25 1076.57,-81.89 1085.47,-72.56 1092.33,-63.37"/>
<polygon fill="black" stroke="black" points="1095.12,-65.49 1097.86,-55.26 1089.33,-61.55 1095.12,-65.49"/>
</g>
<!-- conversational -->
<g id="node13" class="node">
<title>conversational</title>
<path fill="#f0f0ff" stroke="black" d="M1244.88,-53.75C1244.88,-53.75 1171.12,-53.75 1171.12,-53.75 1165.12,-53.75 1159.12,-47.75 1159.12,-41.75 1159.12,-41.75 1159.12,-29.75 1159.12,-29.75 1159.12,-23.75 1165.12,-17.75 1171.12,-17.75 1171.12,-17.75 1244.88,-17.75 1244.88,-17.75 1250.88,-17.75 1256.88,-23.75 1256.88,-29.75 1256.88,-29.75 1256.88,-41.75 1256.88,-41.75 1256.88,-47.75 1250.88,-53.75 1244.88,-53.75"/>
<text text-anchor="middle" x="1208" y="-30.32" font-family="Times,serif" font-size="14.00">Conversational</text>
</g>
<!-- tecnicas&#45;&gt;conversational -->
<g id="edge12" class="edge">
<title>tecnicas&#45;&gt;conversational</title>
<path fill="none" stroke="black" d="M691.17,-113.18C813.64,-111.01 1108.33,-104.1 1150,-87.25 1163.4,-81.83 1175.84,-71.96 1185.74,-62.37"/>
<polygon fill="black" stroke="black" points="1188.23,-64.84 1192.69,-55.23 1183.21,-59.96 1188.23,-64.84"/>
</g>
</g>
</svg>
